ReLeland.ufo
<glyph name="brace" format="2">
  <advance width="62"/>
  <unicode hex="E000"/>
  <outline>
    <contour>
      <point x="9" y="500" type="curve"/>
      <point x="27" y="519"/>
      <point x="62" y="558"/>
      <point x="62" y="630" type="curve" smooth="yes"/>
      <point x="62" y="721"/>
      <point x="23" y="813"/>
      <point x="23" y="870" type="curve" smooth="yes"/>
      <point x="23" y="931"/>
      <point x="58" y="988"/>
      <point x="60" y="990" type="curve"/>
      <point x="60" y="991"/>
      <point x="60" y="991"/>
      <point x="60" y="992" type="curve"/>
      <point x="60" y="993"/>
      <point x="60" y="994"/>
      <point x="59" y="995" type="curve"/>
      <point x="58" y="995"/>
      <point x="56" y="995"/>
      <point x="55" y="993" type="curve"/>
      <point x="54" y="992"/>
      <point x="0" y="938"/>
      <point x="0" y="856" type="curve" smooth="yes"/>
      <point x="0" y="768"/>
      <point x="35" y="706"/>
      <point x="35" y="591" type="curve" smooth="yes"/>
      <point x="35" y="569"/>
      <point x="26" y="534"/>
      <point x="1" y="503" type="curve"/>
      <point x="0" y="502"/>
      <point x="0" y="498"/>
      <point x="1" y="497" type="curve"/>
      <point x="26" y="466"/>
      <point x="35" y="431"/>
      <point x="35" y="409" type="curve" smooth="yes"/>
      <point x="35" y="294"/>
      <point x="0" y="232"/>
      <point x="0" y="144" type="curve" smooth="yes"/>
      <point x="0" y="63"/>
      <point x="54" y="8"/>
      <point x="55" y="7" type="curve"/>
      <point x="56" y="5"/>
      <point x="58" y="4"/>
      <point x="59" y="5" type="curve" smooth="yes"/>
      <point x="60" y="6"/>
      <point x="61" y="7"/>
      <point x="60" y="8" type="curve"/>
      <point x="60" y="8"/>
      <point x="60" y="9"/>
      <point x="60" y="10" type="curve"/>
      <point x="58" y="12"/>
      <point x="23" y="69"/>
      <point x="23" y="130" type="curve" smooth="yes"/>
      <point x="23" y="187"/>
      <point x="62" y="279"/>
      <point x="62" y="370" type="curve" smooth="yes"/>
      <point x="62" y="443"/>
      <point x="27" y="481"/>
    </contour>
  </outline>
</glyph>
<glyph name="reversedBrace" format="2">
  <advance width="62"/>
  <unicode hex="E001"/>
  <outline>
    <contour>
      <point x="53" y="500" type="curve"/>
      <point x="35" y="481"/>
      <point x="0" y="443"/>
      <point x="0" y="370" type="curve" smooth="yes"/>
      <point x="0" y="279"/>
      <point x="39" y="187"/>
      <point x="39" y="130" type="curve" smooth="yes"/>
      <point x="39" y="69"/>
      <point x="4" y="12"/>
      <point x="3" y="10" type="curve"/>
      <point x="2" y="9"/>
      <point x="2" y="8"/>
      <point x="2" y="7" type="curve"/>
      <point x="2" y="6"/>
      <point x="2" y="6"/>
      <point x="3" y="5" type="curve" smooth="yes"/>
      <point x="4" y="4"/>
      <point x="6" y="5"/>
      <point x="7" y="7" type="curve"/>
      <point x="8" y="8"/>
      <point x="62" y="63"/>
      <point x="62" y="144" type="curve" smooth="yes"/>
      <point x="62" y="232"/>
      <point x="27" y="294"/>
      <point x="27" y="409" type="curve" smooth="yes"/>
      <point x="27" y="431"/>
      <point x="36" y="466"/>
      <point x="61" y="497" type="curve"/>
      <point x="62" y="498"/>
      <point x="63" y="499"/>
      <point x="62" y="500" type="curve"/>
      <point x="62" y="501"/>
      <point x="62" y="502"/>
      <point x="61" y="503" type="curve"/>
      <point x="36" y="534"/>
      <point x="27" y="569"/>
      <point x="27" y="591" type="curve" smooth="yes"/>
      <point x="27" y="706"/>
      <point x="62" y="768"/>
      <point x="62" y="856" type="curve" smooth="yes"/>
      <point x="62" y="937"/>
      <point x="8" y="992"/>
      <point x="7" y="993" type="curve"/>
      <point x="6" y="995"/>
      <point x="4" y="995"/>
      <point x="3" y="995" type="curve"/>
      <point x="2" y="994"/>
      <point x="2" y="993"/>
      <point x="2" y="992" type="curve"/>
      <point x="2" y="991"/>
      <point x="2" y="991"/>
      <point x="3" y="990" type="curve"/>
      <point x="4" y="988"/>
      <point x="39" y="931"/>
      <point x="39" y="870" type="curve" smooth="yes"/>
      <point x="39" y="813"/>
      <point x="0" y="721"/>
      <point x="0" y="630" type="curve" smooth="yes"/>
      <point x="0" y="558"/>
      <point x="35" y="519"/>
    </contour>
  </outline>
</glyph>
<glyph name="bracket" format="2">
  <advance width="528"/>
  <unicode hex="E002"/>
  <outline>
    <contour>
      <point x="210" y="-269" type="line" smooth="yes"/>
      <point x="401" y="-269"/>
      <point x="503" y="-424"/>
      <point x="504" y="-426" type="curve" smooth="yes"/>
      <point x="507" y="-429"/>
      <point x="510" y="-431"/>
      <point x="514" y="-431" type="curve" smooth="yes"/>
      <point x="516" y="-431"/>
      <point x="519" y="-430"/>
      <point x="521" y="-429" type="curve" smooth="yes"/>
      <point x="526" y="-427"/>
      <point x="528" y="-422"/>
      <point x="528" y="-417" type="curve" smooth="yes"/>
      <point x="528" y="-415"/>
      <point x="528" y="-414"/>
      <point x="527" y="-412" type="curve" smooth="yes"/>
      <point x="526" y="-409"/>
      <point x="467" y="-152"/>
      <point x="159" y="-152" type="curve" smooth="yes"/>
      <point x="108" y="-152" type="line"/>
      <point x="108" y="1153" type="line"/>
      <point x="159" y="1153" type="line" smooth="yes"/>
      <point x="466" y="1153"/>
      <point x="526" y="1410"/>
      <point x="527" y="1413" type="curve" smooth="yes"/>
      <point x="528" y="1415"/>
      <point x="528" y="1416"/>
      <point x="528" y="1418" type="curve" smooth="yes"/>
      <point x="528" y="1423"/>
      <point x="526" y="1428"/>
      <point x="521" y="1430" type="curve" smooth="yes"/>
      <point x="519" y="1431"/>
      <point x="516" y="1431"/>
      <point x="514" y="1431" type="curve" smooth="yes"/>
      <point x="510" y="1431"/>
      <point x="506" y="1429"/>
      <point x="503" y="1426" type="curve" smooth="yes"/>
      <point x="502" y="1424"/>
      <point x="401" y="1270"/>
      <point x="210" y="1270" type="curve" smooth="yes"/>
      <point x="14" y="1270" type="line" smooth="yes"/>
      <point x="6" y="1270"/>
      <point x="0" y="1264"/>
      <point x="0" y="1256" type="curve" smooth="yes"/>
      <point x="0" y="-255" type="line" smooth="yes"/>
      <point x="0" y="-263"/>
      <point x="6" y="-269"/>
      <point x="14" y="-269" type="curve" smooth="yes"/>
    </contour>
  </outline>
</glyph>
<glyph name="bracketTop" format="2">
  <advance width="491"/>
  <unicode hex="E003"/>
  <outline>
    <contour>
      <point x="484" y="277" type="curve" smooth="yes"/>
      <point x="482" y="278"/>
      <point x="479" y="279"/>
      <point x="477" y="279" type="curve" smooth="yes"/>
      <point x="473" y="279"/>
      <point x="468" y="278"/>
      <point x="466" y="274" type="curve" smooth="yes"/>
      <point x="464" y="271"/>
      <point x="364" y="117"/>
      <point x="173" y="117" type="curve" smooth="yes"/>
      <point x="14" y="117" type="line" smooth="yes"/>
      <point x="6" y="117"/>
      <point x="0" y="112"/>
      <point x="0" y="104" type="curve" smooth="yes"/>
      <point x="0" y="0" type="line"/>
      <point x="122" y="0" type="line" smooth="yes"/>
      <point x="430" y="0"/>
      <point x="489" y="257"/>
      <point x="490" y="260" type="curve"/>
      <point x="490" y="261"/>
      <point x="491" y="263"/>
      <point x="491" y="265" type="curve" smooth="yes"/>
      <point x="491" y="270"/>
      <point x="488" y="274"/>
    </contour>
  </outline>
</glyph>
<glyph name="bracketBottom" format="2">
  <advance width="491"/>
  <unicode hex="E004"/>
  <outline>
    <contour>
      <point x="484" y="-277" type="curve" smooth="yes"/>
      <point x="488" y="-274"/>
      <point x="491" y="-270"/>
      <point x="491" y="-265" type="curve" smooth="yes"/>
      <point x="491" y="-263"/>
      <point x="490" y="-261"/>
      <point x="490" y="-260" type="curve"/>
      <point x="489" y="-257"/>
      <point x="430" y="0"/>
      <point x="122" y="0" type="curve" smooth="yes"/>
      <point x="0" y="0" type="line"/>
      <point x="0" y="-104" type="line" smooth="yes"/>
      <point x="0" y="-112"/>
      <point x="6" y="-117"/>
      <point x="14" y="-117" type="curve" smooth="yes"/>
      <point x="173" y="-117" type="line" smooth="yes"/>
      <point x="364" y="-117"/>
      <point x="464" y="-271"/>
      <point x="466" y="-274" type="curve" smooth="yes"/>
      <point x="468" y="-278"/>
      <point x="473" y="-279"/>
      <point x="477" y="-279" type="curve" smooth="yes"/>
      <point x="479" y="-279"/>
      <point x="482" y="-278"/>
    </contour>
  </outline>
</glyph>
<glyph name="reversedBracketTop" format="2">
  <advance width="491"/>
  <unicode hex="E005"/>
  <outline>
    <contour>
      <point x="7" y="277" type="curve" smooth="yes"/>
      <point x="3" y="274"/>
      <point x="0" y="270"/>
      <point x="0" y="265" type="curve" smooth="yes"/>
      <point x="0" y="263"/>
      <point x="1" y="261"/>
      <point x="1" y="260" type="curve"/>
      <point x="2" y="257"/>
      <point x="61" y="0"/>
      <point x="369" y="0" type="curve" smooth="yes"/>
      <point x="491" y="0" type="line"/>
      <point x="491" y="104" type="line" smooth="yes"/>
      <point x="491" y="112"/>
      <point x="485" y="117"/>
      <point x="477" y="117" type="curve" smooth="yes"/>
      <point x="318" y="117" type="line" smooth="yes"/>
      <point x="127" y="117"/>
      <point x="27" y="271"/>
      <point x="25" y="274" type="curve" smooth="yes"/>
      <point x="23" y="278"/>
      <point x="18" y="279"/>
      <point x="14" y="279" type="curve" smooth="yes"/>
      <point x="12" y="279"/>
      <point x="9" y="278"/>
    </contour>
  </outline>
</glyph>
<glyph name="reversedBracketBottom" format="2">
  <advance width="491"/>
  <unicode hex="E006"/>
  <outline>
    <contour>
      <point x="7" y="-277" type="curve"/>
      <point x="9" y="-278"/>
      <point x="12" y="-279"/>
      <point x="14" y="-279" type="curve" smooth="yes"/>
      <point x="18" y="-279"/>
      <point x="23" y="-278"/>
      <point x="25" y="-274" type="curve"/>
      <point x="27" y="-271"/>
      <point x="127" y="-117"/>
      <point x="318" y="-117" type="curve" smooth="yes"/>
      <point x="477" y="-117" type="line" smooth="yes"/>
      <point x="485" y="-117"/>
      <point x="491" y="-112"/>
      <point x="491" y="-104" type="curve" smooth="yes"/>
      <point x="491" y="0" type="line"/>
      <point x="369" y="0" type="line" smooth="yes"/>
      <point x="61" y="0"/>
      <point x="2" y="-257"/>
      <point x="1" y="-260" type="curve"/>
      <point x="1" y="-261"/>
      <point x="0" y="-263"/>
      <point x="0" y="-265" type="curve" smooth="yes"/>
      <point x="0" y="-270"/>
      <point x="3" y="-274"/>
    </contour>
  </outline>
</glyph>
<glyph name="systemDivider" format="2">
  <advance width="1042"/>
  <unicode hex="E007"/>
  <outline>
    <contour>
      <point x="0" y="-79" type="line" smooth="yes"/>
      <point x="0" y="-91"/>
      <point x="8" y="-99"/>
      <point x="20" y="-99" type="curve" smooth="yes"/>
      <point x="24" y="-99"/>
      <point x="28" y="-98"/>
      <point x="30" y="-97" type="curve" smooth="yes"/>
      <point x="1028" y="369" type="line" smooth="yes"/>
      <point x="1036" y="373"/>
      <point x="1042" y="382"/>
      <point x="1042" y="392" type="curve" smooth="yes"/>
      <point x="1042" y="600" type="line" smooth="yes"/>
      <point x="1042" y="612"/>
      <point x="1034" y="620"/>
      <point x="1022" y="620" type="curve" smooth="yes"/>
      <point x="1018" y="620"/>
      <point x="1014" y="619"/>
      <point x="1012" y="618" type="curve" smooth="yes"/>
      <point x="14" y="153" type="line" smooth="yes"/>
      <point x="6" y="149"/>
      <point x="0" y="140"/>
      <point x="0" y="130" type="curve" smooth="yes"/>
    </contour>
    <contour>
      <point x="0" y="421" type="line" smooth="yes"/>
      <point x="0" y="409"/>
      <point x="8" y="401"/>
      <point x="20" y="401" type="curve" smooth="yes"/>
      <point x="24" y="401"/>
      <point x="28" y="402"/>
      <point x="30" y="403" type="curve" smooth="yes"/>
      <point x="1028" y="869" type="line" smooth="yes"/>
      <point x="1036" y="873"/>
      <point x="1042" y="882"/>
      <point x="1042" y="892" type="curve" smooth="yes"/>
      <point x="1042" y="1100" type="line" smooth="yes"/>
      <point x="1042" y="1112"/>
      <point x="1034" y="1120"/>
      <point x="1022" y="1120" type="curve" smooth="yes"/>
      <point x="1018" y="1120"/>
      <point x="1014" y="1119"/>
      <point x="1012" y="1118" type="curve" smooth="yes"/>
      <point x="14" y="653" type="line" smooth="yes"/>
      <point x="6" y="649"/>
      <point x="0" y="640"/>
      <point x="0" y="630" type="curve" smooth="yes"/>
    </contour>
  </outline>
</glyph>
<glyph name="systemDividerLong" format="2">
  <advance width="1539"/>
  <unicode hex="E008"/>
  <outline>
    <contour>
      <point x="17" y="151" type="line" smooth="yes"/>
      <point x="7" y="148"/>
      <point x="0" y="137"/>
      <point x="0" y="128" type="curve" smooth="yes"/>
      <point x="0" y="-67" type="line" smooth="yes"/>
      <point x="0" y="-80"/>
      <point x="11" y="-91"/>
      <point x="24" y="-91" type="curve" smooth="yes"/>
      <point x="26" y="-91"/>
      <point x="29" y="-90"/>
      <point x="31" y="-89" type="curve" smooth="yes"/>
      <point x="1522" y="381" type="line"/>
      <point x="1531" y="383"/>
      <point x="1539" y="394"/>
      <point x="1539" y="403" type="curve" smooth="yes"/>
      <point x="1539" y="598" type="line" smooth="yes"/>
      <point x="1539" y="611"/>
      <point x="1528" y="622"/>
      <point x="1515" y="622" type="curve" smooth="yes"/>
      <point x="1513" y="622"/>
      <point x="1510" y="621"/>
      <point x="1508" y="621" type="curve"/>
    </contour>
    <contour>
      <point x="17" y="639" type="line" smooth="yes"/>
      <point x="8" y="636"/>
      <point x="0" y="626"/>
      <point x="0" y="617" type="curve" smooth="yes"/>
      <point x="0" y="422" type="line" smooth="yes"/>
      <point x="0" y="409"/>
      <point x="11" y="398"/>
      <point x="24" y="398" type="curve" smooth="yes"/>
      <point x="26" y="398"/>
      <point x="29" y="399"/>
      <point x="31" y="399" type="curve"/>
      <point x="1522" y="869" type="line" smooth="yes"/>
      <point x="1532" y="872"/>
      <point x="1539" y="882"/>
      <point x="1539" y="892" type="curve" smooth="yes"/>
      <point x="1539" y="1087" type="line" smooth="yes"/>
      <point x="1539" y="1100"/>
      <point x="1528" y="1110"/>
      <point x="1515" y="1110" type="curve" smooth="yes"/>
      <point x="1513" y="1110"/>
      <point x="1510" y="1110"/>
      <point x="1508" y="1109" type="curve" smooth="yes"/>
    </contour>
  </outline>
</glyph>
<glyph name="systemDividerExtraLong" format="2">
  <advance width="2276"/>
  <unicode hex="E009"/>
  <outline>
    <contour>
      <point x="20" y="186" type="line" smooth="yes"/>
      <point x="9" y="184"/>
      <point x="0" y="174"/>
      <point x="0" y="163" type="curve" smooth="yes"/>
      <point x="0" y="-26" type="line" smooth="yes"/>
      <point x="0" y="-39"/>
      <point x="11" y="-50"/>
      <point x="24" y="-50" type="curve"/>
      <point x="25" y="-50"/>
      <point x="27" y="-50"/>
      <point x="28" y="-49" type="curve"/>
      <point x="2256" y="343" type="line" smooth="yes"/>
      <point x="2267" y="345"/>
      <point x="2276" y="356"/>
      <point x="2276" y="367" type="curve" smooth="yes"/>
      <point x="2276" y="555" type="line" smooth="yes"/>
      <point x="2276" y="568"/>
      <point x="2265" y="579"/>
      <point x="2252" y="579" type="curve"/>
      <point x="2251" y="579"/>
      <point x="2249" y="579"/>
      <point x="2248" y="578" type="curve"/>
    </contour>
    <contour>
      <point x="20" y="661" type="line" smooth="yes"/>
      <point x="9" y="659"/>
      <point x="0" y="648"/>
      <point x="0" y="637" type="curve" smooth="yes"/>
      <point x="0" y="449" type="line" smooth="yes"/>
      <point x="0" y="432"/>
      <point x="13" y="425"/>
      <point x="28" y="425" type="curve"/>
      <point x="2256" y="818" type="line" smooth="yes"/>
      <point x="2267" y="820"/>
      <point x="2276" y="830"/>
      <point x="2276" y="841" type="curve" smooth="yes"/>
      <point x="2276" y="1029" type="line" smooth="yes"/>
      <point x="2276" y="1046"/>
      <point x="2263" y="1053"/>
      <point x="2248" y="1053" type="curve"/>
    </contour>
  </outline>
</glyph>
<glyph name="repeatDots" format="2">
  <advance width="104"/>
  <unicode hex="E043"/>
  <outline>
    <contour>
      <point x="104" y="625" type="curve" smooth="yes"/>
      <point x="104" y="654"/>
      <point x="81" y="678"/>
      <point x="52" y="678" type="curve" smooth="yes"/>
      <point x="23" y="678"/>
      <point x="0" y="654"/>
      <point x="0" y="625" type="curve" smooth="yes"/>
      <point x="0" y="596"/>
      <point x="23" y="572"/>
      <point x="52" y="572" type="curve" smooth="yes"/>
      <point x="81" y="572"/>
      <point x="104" y="596"/>
    </contour>
    <contour>
      <point x="104" y="375" type="curve" smooth="yes"/>
      <point x="104" y="404"/>
      <point x="81" y="428"/>
      <point x="52" y="428" type="curve" smooth="yes"/>
      <point x="23" y="428"/>
      <point x="0" y="404"/>
      <point x="0" y="375" type="curve" smooth="yes"/>
      <point x="0" y="346"/>
      <point x="23" y="322"/>
      <point x="52" y="322" type="curve" smooth="yes"/>
      <point x="81" y="322"/>
      <point x="104" y="346"/>
    </contour>
  </outline>
</glyph>
<glyph name="repeatDot" format="2">
  <advance width="104"/>
  <unicode hex="E044"/>
  <outline>
    <contour>
      <point x="104" y="0" type="curve" smooth="yes"/>
      <point x="104" y="29"/>
      <point x="81" y="53"/>
      <point x="52" y="53" type="curve" smooth="yes"/>
      <point x="23" y="53"/>
      <point x="0" y="29"/>
      <point x="0" y="0" type="curve" smooth="yes"/>
      <point x="0" y="-29"/>
      <point x="23" y="-53"/>
      <point x="52" y="-53" type="curve" smooth="yes"/>
      <point x="81" y="-53"/>
      <point x="104" y="-29"/>
    </contour>
  </outline>
</glyph>
<glyph name="codaSquare" format="2">
  <advance width="738"/>
  <unicode hex="E049"/>
  <outline>
    <contour>
      <point x="632" y="324" type="line"/>
      <point x="632" y="592" type="line" smooth="yes"/>
      <point x="632" y="609"/>
      <point x="619" y="622"/>
      <point x="602" y="622" type="curve" smooth="yes"/>
      <point x="389" y="622" type="line"/>
      <point x="389" y="721" type="line" smooth="yes"/>
      <point x="389" y="729"/>
      <point x="383" y="735"/>
      <point x="375" y="735" type="curve" smooth="yes"/>
      <point x="364" y="735" type="line" smooth="yes"/>
      <point x="356" y="735"/>
      <point x="350" y="729"/>
      <point x="350" y="721" type="curve" smooth="yes"/>
      <point x="350" y="622" type="line"/>
      <point x="136" y="622" type="line" smooth="yes"/>
      <point x="119" y="622"/>
      <point x="106" y="609"/>
      <point x="106" y="592" type="curve" smooth="yes"/>
      <point x="106" y="324" type="line"/>
      <point x="14" y="324" type="line" smooth="yes"/>
      <point x="6" y="324"/>
      <point x="0" y="319"/>
      <point x="0" y="311" type="curve" smooth="yes"/>
      <point x="0" y="299" type="line" smooth="yes"/>
      <point x="0" y="291"/>
      <point x="6" y="286"/>
      <point x="14" y="286" type="curve" smooth="yes"/>
      <point x="106" y="286" type="line"/>
      <point x="106" y="30" type="line" smooth="yes"/>
      <point x="106" y="13"/>
      <point x="119" y="0"/>
      <point x="136" y="0" type="curve" smooth="yes"/>
      <point x="350" y="0" type="line"/>
      <point x="350" y="-99" type="line" smooth="yes"/>
      <point x="350" y="-107"/>
      <point x="356" y="-113"/>
      <point x="364" y="-113" type="curve" smooth="yes"/>
      <point x="375" y="-113" type="line" smooth="yes"/>
      <point x="383" y="-113"/>
      <point x="389" y="-107"/>
      <point x="389" y="-99" type="curve" smooth="yes"/>
      <point x="389" y="0" type="line"/>
      <point x="602" y="0" type="line" smooth="yes"/>
      <point x="619" y="0"/>
      <point x="632" y="13"/>
      <point x="632" y="30" type="curve" smooth="yes"/>
      <point x="632" y="286" type="line"/>
      <point x="725" y="286" type="line" smooth="yes"/>
      <point x="733" y="286"/>
      <point x="738" y="291"/>
      <point x="738" y="299" type="curve" smooth="yes"/>
      <point x="738" y="311" type="line" smooth="yes"/>
      <point x="738" y="319"/>
      <point x="733" y="324"/>
      <point x="725" y="324" type="curve" smooth="yes"/>
    </contour>
    <contour>
      <point x="526" y="324" type="line"/>
      <point x="389" y="324" type="line"/>
      <point x="389" y="592" type="line"/>
      <point x="526" y="592" type="line"/>
    </contour>
    <contour>
      <point x="350" y="324" type="line"/>
      <point x="213" y="324" type="line"/>
      <point x="213" y="592" type="line"/>
      <point x="350" y="592" type="line"/>
    </contour>
    <contour>
      <point x="213" y="286" type="line"/>
      <point x="350" y="286" type="line"/>
      <point x="350" y="30" type="line"/>
      <point x="213" y="30" type="line"/>
    </contour>
    <contour>
      <point x="389" y="286" type="line"/>
      <point x="526" y="286" type="line"/>
      <point x="526" y="30" type="line"/>
      <point x="389" y="30" type="line"/>
    </contour>
  </outline>
</glyph>
<glyph name="segnoSerpent1" format="2">
  <advance width="554"/>
  <unicode hex="E04A"/>
  <outline>
    <contour>
      <point x="189" y="285" type="line" smooth="yes"/>
      <point x="179" y="290"/>
      <point x="171" y="294"/>
      <point x="166" y="297" type="curve" smooth="yes"/>
      <point x="136" y="314"/>
      <point x="79" y="331"/>
      <point x="79" y="428" type="curve"/>
      <point x="80" y="434"/>
      <point x="85" y="483"/>
      <point x="112" y="502" type="curve"/>
      <point x="132" y="488"/>
      <point x="167" y="467"/>
      <point x="189" y="456" type="curve" smooth="yes"/>
      <point x="365" y="371" type="line"/>
      <point x="432" y="341"/>
      <point x="475" y="314"/>
      <point x="475" y="229" type="curve"/>
      <point x="474" y="223"/>
      <point x="469" y="173"/>
      <point x="442" y="154" type="curve"/>
      <point x="422" y="169"/>
      <point x="387" y="190"/>
      <point x="365" y="201" type="curve" smooth="yes"/>
    </contour>
    <contour>
      <point x="188" y="624" type="line"/>
      <point x="142" y="649"/>
      <point x="79" y="696"/>
      <point x="79" y="791" type="curve" smooth="yes"/>
      <point x="79" y="816"/>
      <point x="88" y="837"/>
      <point x="104" y="853" type="curve"/>
      <point x="129" y="834"/>
      <point x="158" y="816"/>
      <point x="189" y="801" type="curve" smooth="yes"/>
      <point x="365" y="716" type="line"/>
      <point x="432" y="686"/>
      <point x="475" y="659"/>
      <point x="475" y="574" type="curve"/>
      <point x="474" y="569"/>
      <point x="469" y="520"/>
      <point x="443" y="500" type="curve"/>
      <point x="419" y="515"/>
      <point x="392" y="529"/>
      <point x="365" y="540" type="curve"/>
    </contour>
    <contour>
      <point x="366" y="32" type="line"/>
      <point x="412" y="7"/>
      <point x="475" y="-40"/>
      <point x="475" y="-135" type="curve" smooth="yes"/>
      <point x="475" y="-194"/>
      <point x="424" y="-232"/>
      <point x="347" y="-232" type="curve" smooth="yes"/>
      <point x="270" y="-232"/>
      <point x="245" y="-200"/>
      <point x="227" y="-146" type="curve" smooth="yes"/>
      <point x="207" y="-87"/>
      <point x="187" y="-50"/>
      <point x="132" y="-50" type="curve" smooth="yes"/>
      <point x="86" y="-50"/>
      <point x="59" y="-77"/>
      <point x="59" y="-124" type="curve" smooth="yes"/>
      <point x="59" y="-242"/>
      <point x="234" y="-280"/>
      <point x="323" y="-280" type="curve" smooth="yes"/>
      <point x="505" y="-280"/>
      <point x="554" y="-147"/>
      <point x="554" y="-57" type="curve" smooth="yes"/>
      <point x="554" y="14"/>
      <point x="519" y="91"/>
      <point x="465" y="136" type="curve"/>
      <point x="493" y="159"/>
      <point x="554" y="211"/>
      <point x="554" y="322" type="curve" smooth="yes"/>
      <point x="554" y="394"/>
      <point x="519" y="445"/>
      <point x="468" y="483" type="curve"/>
      <point x="497" y="507"/>
      <point x="554" y="560"/>
      <point x="554" y="668" type="curve" smooth="yes"/>
      <point x="554" y="782"/>
      <point x="465" y="843"/>
      <point x="365" y="885" type="curve"/>
      <point x="189" y="969" type="line"/>
      <point x="142" y="994"/>
      <point x="79" y="1034"/>
      <point x="79" y="1129" type="curve" smooth="yes"/>
      <point x="79" y="1188"/>
      <point x="130" y="1234"/>
      <point x="207" y="1234" type="curve" smooth="yes"/>
      <point x="284" y="1234"/>
      <point x="311" y="1192"/>
      <point x="327" y="1147" type="curve" smooth="yes"/>
      <point x="347" y="1092"/>
      <point x="377" y="1059"/>
      <point x="424" y="1059" type="curve" smooth="yes"/>
      <point x="462" y="1059"/>
      <point x="498" y="1075"/>
      <point x="498" y="1119" type="curve" smooth="yes"/>
      <point x="498" y="1137"/>
      <point x="492" y="1158"/>
      <point x="482" y="1175" type="curve" smooth="yes"/>
      <point x="458" y="1217"/>
      <point x="406" y="1281"/>
      <point x="231" y="1281" type="curve" smooth="yes"/>
      <point x="69" y="1281"/>
      <point x="0" y="1165"/>
      <point x="0" y="1058" type="curve" smooth="yes"/>
      <point x="0" y="993"/>
      <point x="29" y="920"/>
      <point x="75" y="877" type="curve"/>
      <point x="18" y="821"/>
      <point x="0" y="781"/>
      <point x="0" y="694" type="curve" smooth="yes"/>
      <point x="0" y="632"/>
      <point x="35" y="566"/>
      <point x="89" y="521" type="curve"/>
      <point x="61" y="498"/>
      <point x="0" y="445"/>
      <point x="0" y="334" type="curve" smooth="yes"/>
      <point x="0" y="220"/>
      <point x="89" y="159"/>
      <point x="189" y="117" type="curve"/>
    </contour>
  </outline>
</glyph>
<glyph name="gClef" format="2">
  <advance width="640"/>
  <unicode hex="E050"/>
  <outline>
    <contour>
      <point x="420" y="-206" type="line"/>
      <point x="400" y="-210"/>
      <point x="381" y="-212"/>
      <point x="362" y="-212" type="curve" smooth="yes"/>
      <point x="219" y="-212"/>
      <point x="97" y="-112"/>
      <point x="97" y="39" type="curve" smooth="yes"/>
      <point x="97" y="161"/>
      <point x="183" y="270"/>
      <point x="271" y="346" type="curve" smooth="yes"/>
      <point x="288" y="361"/>
      <point x="304" y="375"/>
      <point x="319" y="390" type="curve"/>
      <point x="328" y="336"/>
      <point x="335" y="289"/>
      <point x="342" y="248" type="curve"/>
      <point x="251" y="221"/>
      <point x="189" y="125"/>
      <point x="189" y="31" type="curve" smooth="yes"/>
      <point x="189" y="-39"/>
      <point x="244" y="-135"/>
      <point x="324" y="-135" type="curve" smooth="yes"/>
      <point x="332" y="-135"/>
      <point x="341" y="-131"/>
      <point x="341" y="-122" type="curve" smooth="yes"/>
      <point x="341" y="-113"/>
      <point x="331" y="-108"/>
      <point x="319" y="-100" type="curve"/>
      <point x="280" y="-76"/>
      <point x="258" y="-50"/>
      <point x="258" y="-1" type="curve" smooth="yes"/>
      <point x="258" y="60"/>
      <point x="303" y="109"/>
      <point x="362" y="123" type="curve"/>
    </contour>
    <contour>
      <point x="332" y="822" type="curve"/>
      <point x="341" y="862"/>
      <point x="387" y="967"/>
      <point x="439" y="967" type="curve" smooth="yes"/>
      <point x="454" y="967"/>
      <point x="478" y="918"/>
      <point x="478" y="849" type="curve" smooth="yes"/>
      <point x="478" y="745"/>
      <point x="401" y="667"/>
      <point x="332" y="599" type="curve"/>
      <point x="326" y="639"/>
      <point x="321" y="678"/>
      <point x="321" y="720" type="curve" smooth="yes"/>
      <point x="321" y="757"/>
      <point x="324" y="791"/>
    </contour>
    <contour>
      <point x="562" y="-21" type="curve" smooth="yes"/>
      <point x="562" y="-92"/>
      <point x="533" y="-165"/>
      <point x="462" y="-194" type="curve"/>
      <point x="441" y="-74"/>
      <point x="414" y="85"/>
      <point x="407" y="129" type="curve"/>
      <point x="497" y="129"/>
      <point x="562" y="68"/>
    </contour>
    <contour>
      <point x="122" y="-513" type="curve" smooth="yes"/>
      <point x="122" y="-579"/>
      <point x="173" y="-666"/>
      <point x="308" y="-666" type="curve" smooth="yes"/>
      <point x="355" y="-666"/>
      <point x="396" y="-654"/>
      <point x="432" y="-632" type="curve"/>
      <point x="486" y="-594"/>
      <point x="500" y="-528"/>
      <point x="500" y="-465" type="curve" smooth="yes"/>
      <point x="500" y="-426"/>
      <point x="494" y="-381"/>
      <point x="484" y="-324" type="curve" smooth="yes"/>
      <point x="481" y="-304"/>
      <point x="475" y="-274"/>
      <point x="469" y="-235" type="curve"/>
      <point x="567" y="-203"/>
      <point x="640" y="-101"/>
      <point x="640" y="2" type="curve" smooth="yes"/>
      <point x="640" y="153"/>
      <point x="533" y="255"/>
      <point x="387" y="255" type="curve"/>
      <point x="377" y="315"/>
      <point x="367" y="374"/>
      <point x="358" y="430" type="curve"/>
      <point x="464" y="541"/>
      <point x="537" y="666"/>
      <point x="537" y="825" type="curve" smooth="yes"/>
      <point x="537" y="916"/>
      <point x="509" y="990"/>
      <point x="493" y="1026" type="curve" smooth="yes"/>
      <point x="469" y="1077"/>
      <point x="440" y="1112"/>
      <point x="422" y="1112" type="curve" smooth="yes"/>
      <point x="415" y="1112"/>
      <point x="384" y="1100"/>
      <point x="351" y="1061" type="curve" smooth="yes"/>
      <point x="287" y="985"/>
      <point x="269" y="857"/>
      <point x="269" y="773" type="curve" smooth="yes"/>
      <point x="269" y="719"/>
      <point x="274" y="670"/>
      <point x="291" y="558" type="curve"/>
      <point x="290" y="557"/>
      <point x="238" y="504"/>
      <point x="217" y="487" type="curve"/>
      <point x="126" y="402"/>
      <point x="0" y="281"/>
      <point x="0" y="81" type="curve" smooth="yes"/>
      <point x="0" y="-106"/>
      <point x="163" y="-253"/>
      <point x="349" y="-253" type="curve" smooth="yes"/>
      <point x="378" y="-253"/>
      <point x="405" y="-250"/>
      <point x="428" y="-246" type="curve"/>
      <point x="447" y="-342"/>
      <point x="458" y="-412"/>
      <point x="458" y="-465" type="curve" smooth="yes"/>
      <point x="458" y="-569"/>
      <point x="405" y="-624"/>
      <point x="304" y="-624" type="curve" smooth="yes"/>
      <point x="280" y="-624"/>
      <point x="259" y="-619"/>
      <point x="257" y="-619" type="curve"/>
      <point x="256" y="-618"/>
      <point x="254" y="-617"/>
      <point x="254" y="-616" type="curve"/>
      <point x="254" y="-614"/>
      <point x="256" y="-613"/>
      <point x="259" y="-612" type="curve"/>
      <point x="306" y="-605"/>
      <point x="353" y="-565"/>
      <point x="353" y="-501" type="curve" smooth="yes"/>
      <point x="353" y="-447"/>
      <point x="312" y="-390"/>
      <point x="237" y="-390" type="curve" smooth="yes"/>
      <point x="167" y="-390"/>
      <point x="122" y="-447"/>
    </contour>
  </outline>
</glyph>
<glyph name="gClef15mb" format="2">
  <advance width="640"/>
  <unicode hex="E051"/>
  <outline>
    <contour>
      <point x="420" y="-206" type="line"/>
      <point x="400" y="-210"/>
      <point x="381" y="-212"/>
      <point x="362" y="-212" type="curve" smooth="yes"/>
      <point x="219" y="-212"/>
      <point x="97" y="-112"/>
      <point x="97" y="39" type="curve" smooth="yes"/>
      <point x="97" y="161"/>
      <point x="183" y="270"/>
      <point x="271" y="346" type="curve" smooth="yes"/>
      <point x="288" y="361"/>
      <point x="304" y="375"/>
      <point x="319" y="390" type="curve"/>
      <point x="328" y="336"/>
      <point x="335" y="289"/>
      <point x="342" y="248" type="curve"/>
      <point x="251" y="221"/>
      <point x="189" y="125"/>
      <point x="189" y="31" type="curve" smooth="yes"/>
      <point x="189" y="-39"/>
      <point x="244" y="-135"/>
      <point x="324" y="-135" type="curve" smooth="yes"/>
      <point x="332" y="-135"/>
      <point x="341" y="-131"/>
      <point x="341" y="-122" type="curve" smooth="yes"/>
      <point x="341" y="-113"/>
      <point x="331" y="-108"/>
      <point x="319" y="-100" type="curve"/>
      <point x="280" y="-76"/>
      <point x="258" y="-50"/>
      <point x="258" y="-1" type="curve" smooth="yes"/>
      <point x="258" y="60"/>
      <point x="303" y="109"/>
      <point x="362" y="123" type="curve"/>
    </contour>
    <contour>
      <point x="332" y="822" type="curve"/>
      <point x="341" y="862"/>
      <point x="387" y="967"/>
      <point x="439" y="967" type="curve" smooth="yes"/>
      <point x="454" y="967"/>
      <point x="478" y="918"/>
      <point x="478" y="849" type="curve" smooth="yes"/>
      <point x="478" y="745"/>
      <point x="401" y="667"/>
      <point x="332" y="599" type="curve"/>
      <point x="326" y="639"/>
      <point x="321" y="678"/>
      <point x="321" y="720" type="curve" smooth="yes"/>
      <point x="321" y="757"/>
      <point x="324" y="791"/>
    </contour>
    <contour>
      <point x="562" y="-21" type="curve" smooth="yes"/>
      <point x="562" y="-92"/>
      <point x="533" y="-165"/>
      <point x="462" y="-194" type="curve"/>
      <point x="441" y="-74"/>
      <point x="414" y="85"/>
      <point x="407" y="129" type="curve"/>
      <point x="508" y="129"/>
      <point x="551" y="59"/>
      <point x="560" y="11" type="curve"/>
      <point x="561" y="2"/>
      <point x="562" y="-8"/>
    </contour>
    <contour>
      <point x="269" y="773" type="curve" smooth="yes"/>
      <point x="269" y="719"/>
      <point x="274" y="670"/>
      <point x="291" y="558" type="curve"/>
      <point x="290" y="557"/>
      <point x="238" y="504"/>
      <point x="217" y="487" type="curve"/>
      <point x="126" y="402"/>
      <point x="0" y="281"/>
      <point x="0" y="81" type="curve" smooth="yes"/>
      <point x="0" y="-106"/>
      <point x="163" y="-253"/>
      <point x="349" y="-253" type="curve" smooth="yes"/>
      <point x="378" y="-253"/>
      <point x="405" y="-250"/>
      <point x="428" y="-246" type="curve"/>
      <point x="447" y="-342"/>
      <point x="458" y="-412"/>
      <point x="458" y="-465" type="curve" smooth="yes"/>
      <point x="458" y="-569"/>
      <point x="405" y="-624"/>
      <point x="304" y="-624" type="curve" smooth="yes"/>
      <point x="280" y="-624"/>
      <point x="259" y="-619"/>
      <point x="257" y="-619" type="curve"/>
      <point x="256" y="-618"/>
      <point x="254" y="-617"/>
      <point x="254" y="-616" type="curve"/>
      <point x="254" y="-614"/>
      <point x="256" y="-613"/>
      <point x="259" y="-612" type="curve"/>
      <point x="306" y="-605"/>
      <point x="353" y="-565"/>
      <point x="353" y="-501" type="curve" smooth="yes"/>
      <point x="353" y="-447"/>
      <point x="312" y="-390"/>
      <point x="237" y="-390" type="curve" smooth="yes"/>
      <point x="167" y="-390"/>
      <point x="122" y="-447"/>
      <point x="122" y="-513" type="curve" smooth="yes"/>
      <point x="122" y="-600"/>
      <point x="196" y="-654"/>
      <point x="277" y="-664" type="curve"/>
      <point x="263" y="-675"/>
      <point x="223" y="-686"/>
      <point x="193" y="-686" type="curve" smooth="yes"/>
      <point x="191" y="-686" type="line"/>
      <point x="185" y="-707" type="line"/>
      <point x="217" y="-707" type="line" smooth="yes"/>
      <point x="228" y="-707"/>
      <point x="228" y="-710"/>
      <point x="228" y="-713" type="curve" smooth="yes"/>
      <point x="228" y="-715"/>
      <point x="228" y="-718"/>
      <point x="226" y="-724" type="curve"/>
      <point x="191" y="-856" type="line" smooth="yes"/>
      <point x="189" y="-863"/>
      <point x="188" y="-866"/>
      <point x="185" y="-868" type="curve"/>
      <point x="183" y="-870"/>
      <point x="176" y="-870"/>
      <point x="164" y="-870" type="curve" smooth="yes"/>
      <point x="146" y="-870" type="line"/>
      <point x="143" y="-893" type="line"/>
      <point x="282" y="-893" type="line"/>
      <point x="285" y="-870" type="line"/>
      <point x="266" y="-870" type="line" smooth="yes"/>
      <point x="245" y="-870"/>
      <point x="244" y="-868"/>
      <point x="244" y="-865" type="curve" smooth="yes"/>
      <point x="244" y="-862"/>
      <point x="245" y="-856"/>
      <point x="248" y="-845" type="curve" smooth="yes"/>
      <point x="296" y="-666" type="line"/>
      <point x="345" y="-666"/>
      <point x="389" y="-658"/>
      <point x="432" y="-632" type="curve"/>
      <point x="486" y="-594"/>
      <point x="500" y="-528"/>
      <point x="500" y="-465" type="curve" smooth="yes"/>
      <point x="500" y="-426"/>
      <point x="494" y="-381"/>
      <point x="484" y="-324" type="curve" smooth="yes"/>
      <point x="481" y="-304"/>
      <point x="475" y="-274"/>
      <point x="469" y="-235" type="curve"/>
      <point x="567" y="-203"/>
      <point x="640" y="-101"/>
      <point x="640" y="2" type="curve" smooth="yes"/>
      <point x="640" y="153"/>
      <point x="533" y="255"/>
      <point x="387" y="255" type="curve"/>
      <point x="377" y="315"/>
      <point x="367" y="374"/>
      <point x="358" y="430" type="curve"/>
      <point x="464" y="541"/>
      <point x="537" y="666"/>
      <point x="537" y="825" type="curve" smooth="yes"/>
      <point x="537" y="916"/>
      <point x="509" y="990"/>
      <point x="493" y="1026" type="curve" smooth="yes"/>
      <point x="469" y="1077"/>
      <point x="440" y="1112"/>
      <point x="422" y="1112" type="curve" smooth="yes"/>
      <point x="415" y="1112"/>
      <point x="384" y="1100"/>
      <point x="351" y="1061" type="curve" smooth="yes"/>
      <point x="287" y="985"/>
      <point x="269" y="857"/>
    </contour>
    <contour>
      <point x="329" y="-867" type="curve" smooth="yes"/>
      <point x="329" y="-865"/>
      <point x="329" y="-865"/>
      <point x="331" y="-864" type="curve"/>
      <point x="342" y="-862"/>
      <point x="352" y="-850"/>
      <point x="352" y="-837" type="curve" smooth="yes"/>
      <point x="352" y="-821"/>
      <point x="340" y="-810"/>
      <point x="324" y="-810" type="curve" smooth="yes"/>
      <point x="305" y="-810"/>
      <point x="292" y="-824"/>
      <point x="292" y="-845" type="curve" smooth="yes"/>
      <point x="292" y="-877"/>
      <point x="318" y="-898"/>
      <point x="360" y="-898" type="curve" smooth="yes"/>
      <point x="414" y="-898"/>
      <point x="459" y="-861"/>
      <point x="459" y="-805" type="curve" smooth="yes"/>
      <point x="459" y="-767"/>
      <point x="427" y="-745"/>
      <point x="392" y="-745" type="curve" smooth="yes"/>
      <point x="378" y="-745"/>
      <point x="368" y="-747"/>
      <point x="354" y="-752" type="curve"/>
      <point x="364" y="-718" type="line"/>
      <point x="387" y="-723"/>
      <point x="388" y="-723"/>
      <point x="402" y="-723" type="curve" smooth="yes"/>
      <point x="432" y="-723"/>
      <point x="479" y="-708"/>
      <point x="479" y="-669" type="curve" smooth="yes"/>
      <point x="479" y="-666"/>
      <point x="477" y="-664"/>
      <point x="474" y="-664" type="curve"/>
      <point x="473" y="-664"/>
      <point x="473" y="-664"/>
      <point x="470" y="-665" type="curve"/>
      <point x="456" y="-671"/>
      <point x="443" y="-673"/>
      <point x="427" y="-673" type="curve" smooth="yes"/>
      <point x="406" y="-673"/>
      <point x="384" y="-670"/>
      <point x="358" y="-664" type="curve"/>
      <point x="355" y="-663" type="line"/>
      <point x="325" y="-766" type="line"/>
      <point x="317" y="-770"/>
      <point x="313" y="-776"/>
      <point x="313" y="-783" type="curve" smooth="yes"/>
      <point x="313" y="-791"/>
      <point x="318" y="-797"/>
      <point x="326" y="-797" type="curve" smooth="yes"/>
      <point x="336" y="-797"/>
      <point x="343" y="-790"/>
      <point x="345" y="-778" type="curve"/>
      <point x="360" y="-772"/>
      <point x="364" y="-771"/>
      <point x="372" y="-771" type="curve" smooth="yes"/>
      <point x="390" y="-771"/>
      <point x="401" y="-785"/>
      <point x="401" y="-809" type="curve" smooth="yes"/>
      <point x="401" y="-847"/>
      <point x="380" y="-876"/>
      <point x="353" y="-876" type="curve" smooth="yes"/>
      <point x="340" y="-876"/>
      <point x="329" y="-870"/>
    </contour>
  </outline>
</glyph>
<glyph name="gClef8vb" format="2">
  <advance width="640"/>
  <unicode hex="E052"/>
  <outline>
    <contour>
      <point x="362" y="-212" type="curve" smooth="yes"/>
      <point x="219" y="-212"/>
      <point x="97" y="-112"/>
      <point x="97" y="39" type="curve" smooth="yes"/>
      <point x="97" y="161"/>
      <point x="183" y="270"/>
      <point x="271" y="347" type="curve"/>
      <point x="288" y="361"/>
      <point x="304" y="375"/>
      <point x="319" y="390" type="curve"/>
      <point x="328" y="336"/>
      <point x="335" y="290"/>
      <point x="342" y="248" type="curve"/>
      <point x="251" y="222"/>
      <point x="189" y="125"/>
      <point x="189" y="32" type="curve" smooth="yes"/>
      <point x="189" y="-39"/>
      <point x="244" y="-135"/>
      <point x="324" y="-135" type="curve" smooth="yes"/>
      <point x="332" y="-135"/>
      <point x="341" y="-131"/>
      <point x="341" y="-121" type="curve" smooth="yes"/>
      <point x="341" y="-113"/>
      <point x="332" y="-107"/>
      <point x="319" y="-99" type="curve" smooth="yes"/>
      <point x="280" y="-76"/>
      <point x="258" y="-49"/>
      <point x="258" y="-1" type="curve" smooth="yes"/>
      <point x="258" y="60"/>
      <point x="304" y="109"/>
      <point x="362" y="123" type="curve"/>
      <point x="420" y="-205" type="line"/>
      <point x="400" y="-209"/>
      <point x="382" y="-212"/>
    </contour>
    <contour>
      <point x="332" y="822" type="curve" smooth="yes"/>
      <point x="342" y="862"/>
      <point x="387" y="967"/>
      <point x="439" y="967" type="curve" smooth="yes"/>
      <point x="454" y="967"/>
      <point x="479" y="919"/>
      <point x="479" y="849" type="curve" smooth="yes"/>
      <point x="479" y="746"/>
      <point x="401" y="668"/>
      <point x="332" y="599" type="curve"/>
      <point x="326" y="639"/>
      <point x="321" y="679"/>
      <point x="321" y="720" type="curve" smooth="yes"/>
      <point x="321" y="758"/>
      <point x="325" y="791"/>
    </contour>
    <contour>
      <point x="462" y="-193" type="curve"/>
      <point x="441" y="-74"/>
      <point x="414" y="85"/>
      <point x="407" y="129" type="curve"/>
      <point x="508" y="129"/>
      <point x="551" y="59"/>
      <point x="560" y="11" type="curve"/>
      <point x="561" y="3"/>
      <point x="563" y="-8"/>
      <point x="563" y="-20" type="curve" smooth="yes"/>
      <point x="563" y="-92"/>
      <point x="533" y="-164"/>
    </contour>
    <contour>
      <point x="323" y="-877" type="curve" smooth="yes"/>
      <point x="301" y="-877"/>
      <point x="286" y="-863"/>
      <point x="286" y="-842" type="curve" smooth="yes"/>
      <point x="286" y="-822"/>
      <point x="295" y="-806"/>
      <point x="312" y="-796" type="curve"/>
      <point x="316" y="-798"/>
      <point x="317" y="-798"/>
      <point x="320" y="-800" type="curve"/>
      <point x="332" y="-806"/>
      <point x="332" y="-806"/>
      <point x="334" y="-808" type="curve"/>
      <point x="353" y="-819"/>
      <point x="361" y="-829"/>
      <point x="361" y="-843" type="curve" smooth="yes"/>
      <point x="361" y="-862"/>
      <point x="345" y="-877"/>
    </contour>
    <contour>
      <point x="361" y="-757" type="curve"/>
      <point x="346" y="-749"/>
      <point x="342" y="-747"/>
      <point x="339" y="-745" type="curve"/>
      <point x="337" y="-744" type="line"/>
      <point x="322" y="-735"/>
      <point x="317" y="-728"/>
      <point x="317" y="-716" type="curve" smooth="yes"/>
      <point x="317" y="-698"/>
      <point x="331" y="-685"/>
      <point x="351" y="-685" type="curve" smooth="yes"/>
      <point x="370" y="-685"/>
      <point x="382" y="-697"/>
      <point x="382" y="-718" type="curve" smooth="yes"/>
      <point x="382" y="-734"/>
      <point x="376" y="-745"/>
    </contour>
    <contour>
      <point x="640" y="2" type="curve" smooth="yes"/>
      <point x="640" y="153"/>
      <point x="533" y="255"/>
      <point x="387" y="255" type="curve"/>
      <point x="377" y="315"/>
      <point x="368" y="374"/>
      <point x="359" y="430" type="curve"/>
      <point x="464" y="541"/>
      <point x="538" y="667"/>
      <point x="538" y="825" type="curve" smooth="yes"/>
      <point x="538" y="916"/>
      <point x="510" y="990"/>
      <point x="493" y="1026" type="curve" smooth="yes"/>
      <point x="469" y="1077"/>
      <point x="440" y="1112"/>
      <point x="423" y="1112" type="curve" smooth="yes"/>
      <point x="416" y="1112"/>
      <point x="384" y="1100"/>
      <point x="352" y="1061" type="curve" smooth="yes"/>
      <point x="287" y="985"/>
      <point x="269" y="858"/>
      <point x="269" y="774" type="curve" smooth="yes"/>
      <point x="269" y="720"/>
      <point x="274" y="671"/>
      <point x="291" y="558" type="curve"/>
      <point x="290" y="558"/>
      <point x="238" y="505"/>
      <point x="217" y="487" type="curve"/>
      <point x="126" y="403"/>
      <point x="0" y="281"/>
      <point x="0" y="82" type="curve" smooth="yes"/>
      <point x="0" y="-106"/>
      <point x="163" y="-253"/>
      <point x="349" y="-253" type="curve" smooth="yes"/>
      <point x="378" y="-253"/>
      <point x="405" y="-250"/>
      <point x="429" y="-246" type="curve"/>
      <point x="447" y="-341"/>
      <point x="459" y="-412"/>
      <point x="459" y="-465" type="curve" smooth="yes"/>
      <point x="459" y="-569"/>
      <point x="405" y="-624"/>
      <point x="304" y="-624" type="curve" smooth="yes"/>
      <point x="280" y="-624"/>
      <point x="259" y="-619"/>
      <point x="257" y="-618" type="curve"/>
      <point x="256" y="-618"/>
      <point x="254" y="-617"/>
      <point x="254" y="-616" type="curve"/>
      <point x="254" y="-614"/>
      <point x="256" y="-613"/>
      <point x="259" y="-612" type="curve"/>
      <point x="306" y="-605"/>
      <point x="353" y="-564"/>
      <point x="353" y="-501" type="curve" smooth="yes"/>
      <point x="353" y="-447"/>
      <point x="312" y="-390"/>
      <point x="237" y="-390" type="curve" smooth="yes"/>
      <point x="167" y="-390"/>
      <point x="123" y="-447"/>
      <point x="123" y="-513" type="curve" smooth="yes"/>
      <point x="123" y="-579"/>
      <point x="173" y="-666"/>
      <point x="308" y="-666" type="curve" smooth="yes"/>
      <point x="437" y="-666"/>
      <point x="500" y="-593"/>
      <point x="500" y="-465" type="curve" smooth="yes"/>
      <point x="500" y="-426"/>
      <point x="494" y="-381"/>
      <point x="484" y="-324" type="curve" smooth="yes"/>
      <point x="481" y="-304"/>
      <point x="476" y="-273"/>
      <point x="469" y="-235" type="curve"/>
      <point x="567" y="-202"/>
      <point x="640" y="-101"/>
    </contour>
    <contour>
      <point x="423" y="-717" type="curve" smooth="yes"/>
      <point x="423" y="-680"/>
      <point x="389" y="-664"/>
      <point x="356" y="-664" type="curve" smooth="yes"/>
      <point x="314" y="-664"/>
      <point x="273" y="-690"/>
      <point x="273" y="-735" type="curve" smooth="yes"/>
      <point x="273" y="-754"/>
      <point x="280" y="-768"/>
      <point x="294" y="-782" type="curve"/>
      <point x="268" y="-792"/>
      <point x="242" y="-812"/>
      <point x="242" y="-843" type="curve" smooth="yes"/>
      <point x="242" y="-876"/>
      <point x="272" y="-898"/>
      <point x="316" y="-898" type="curve" smooth="yes"/>
      <point x="370" y="-898"/>
      <point x="408" y="-868"/>
      <point x="408" y="-825" type="curve" smooth="yes"/>
      <point x="408" y="-802"/>
      <point x="398" y="-783"/>
      <point x="380" y="-770" type="curve"/>
      <point x="409" y="-757"/>
      <point x="423" y="-741"/>
    </contour>
  </outline>
</glyph>
<glyph name="gClef8va" format="2">
  <advance width="640"/>
  <unicode hex="E053"/>
  <outline>
    <contour>
      <point x="362" y="-211" type="curve" smooth="yes"/>
      <point x="219" y="-211"/>
      <point x="97" y="-112"/>
      <point x="97" y="39" type="curve" smooth="yes"/>
      <point x="97" y="161"/>
      <point x="183" y="270"/>
      <point x="271" y="347" type="curve" smooth="yes"/>
      <point x="288" y="361"/>
      <point x="304" y="376"/>
      <point x="319" y="390" type="curve"/>
      <point x="328" y="336"/>
      <point x="335" y="290"/>
      <point x="342" y="248" type="curve"/>
      <point x="251" y="222"/>
      <point x="189" y="125"/>
      <point x="189" y="32" type="curve" smooth="yes"/>
      <point x="189" y="-39"/>
      <point x="244" y="-135"/>
      <point x="324" y="-135" type="curve" smooth="yes"/>
      <point x="332" y="-135"/>
      <point x="341" y="-131"/>
      <point x="341" y="-121" type="curve" smooth="yes"/>
      <point x="341" y="-113"/>
      <point x="331" y="-107"/>
      <point x="319" y="-99" type="curve" smooth="yes"/>
      <point x="280" y="-75"/>
      <point x="258" y="-49"/>
      <point x="258" y="-1" type="curve" smooth="yes"/>
      <point x="258" y="61"/>
      <point x="304" y="109"/>
      <point x="362" y="123" type="curve"/>
      <point x="420" y="-205" type="line"/>
      <point x="400" y="-209"/>
      <point x="381" y="-211"/>
    </contour>
    <contour>
      <point x="332" y="822" type="curve"/>
      <point x="341" y="863"/>
      <point x="387" y="968"/>
      <point x="439" y="968" type="curve" smooth="yes"/>
      <point x="454" y="968"/>
      <point x="478" y="919"/>
      <point x="478" y="849" type="curve" smooth="yes"/>
      <point x="478" y="746"/>
      <point x="401" y="668"/>
      <point x="332" y="599" type="curve"/>
      <point x="326" y="640"/>
      <point x="321" y="679" name=".hr01"/>
      <point x="321" y="720" type="curve" smooth="yes"/>
      <point x="321" y="758"/>
      <point x="324" y="791"/>
    </contour>
    <contour>
      <point x="379" y="1160" type="curve" smooth="yes"/>
      <point x="379" y="1179"/>
      <point x="388" y="1195" name=".hr02"/>
      <point x="405" y="1205" type="curve"/>
      <point x="409" y="1203"/>
      <point x="410" y="1203"/>
      <point x="413" y="1201" type="curve" smooth="yes"/>
      <point x="425" y="1195"/>
      <point x="425" y="1195"/>
      <point x="427" y="1193" type="curve"/>
      <point x="447" y="1182"/>
      <point x="454" y="1172"/>
      <point x="454" y="1158" type="curve" smooth="yes"/>
      <point x="454" y="1139"/>
      <point x="438" y="1124"/>
      <point x="416" y="1124" type="curve" smooth="yes"/>
      <point x="394" y="1124"/>
      <point x="379" y="1138"/>
    </contour>
    <contour>
      <point x="444" y="1316" type="curve" smooth="yes"/>
      <point x="464" y="1316"/>
      <point x="475" y="1304"/>
      <point x="475" y="1283" type="curve" smooth="yes"/>
      <point x="475" y="1267"/>
      <point x="469" y="1256"/>
      <point x="454" y="1244" type="curve"/>
      <point x="439" y="1252"/>
      <point x="435" y="1254"/>
      <point x="432" y="1256" type="curve" smooth="yes"/>
      <point x="431" y="1257" type="line" smooth="yes"/>
      <point x="415" y="1266"/>
      <point x="410" y="1273"/>
      <point x="410" y="1285" type="curve" smooth="yes"/>
      <point x="410" y="1303"/>
      <point x="424" y="1316"/>
    </contour>
    <contour>
      <point x="462" y="-193" type="curve"/>
      <point x="441" y="-74"/>
      <point x="414" y="85"/>
      <point x="407" y="129" type="curve"/>
      <point x="508" y="129"/>
      <point x="551" y="59"/>
      <point x="560" y="11" type="curve" smooth="yes"/>
      <point x="561" y="3"/>
      <point x="562" y="-8"/>
      <point x="562" y="-20" type="curve" smooth="yes"/>
      <point x="562" y="-92"/>
      <point x="533" y="-164"/>
    </contour>
    <contour>
      <point x="640" y="3" type="curve" smooth="yes"/>
      <point x="640" y="153"/>
      <point x="533" y="255"/>
      <point x="387" y="255" type="curve"/>
      <point x="377" y="316"/>
      <point x="367" y="375"/>
      <point x="359" y="430" type="curve" name=".hr03"/>
      <point x="464" y="541"/>
      <point x="537" y="667"/>
      <point x="537" y="825" type="curve" smooth="yes"/>
      <point x="537" y="917"/>
      <point x="509" y="990"/>
      <point x="493" y="1026" type="curve" smooth="yes"/>
      <point x="475" y="1064"/>
      <point x="454" y="1094"/>
      <point x="437" y="1106" type="curve"/>
      <point x="476" y="1115"/>
      <point x="501" y="1141"/>
      <point x="501" y="1176" type="curve" smooth="yes"/>
      <point x="501" y="1199"/>
      <point x="491" y="1218"/>
      <point x="473" y="1232" type="curve"/>
      <point x="502" y="1244"/>
      <point x="516" y="1260"/>
      <point x="516" y="1284" type="curve" smooth="yes"/>
      <point x="516" y="1321"/>
      <point x="482" y="1337"/>
      <point x="449" y="1337" type="curve" smooth="yes" name=".hr04"/>
      <point x="407" y="1337"/>
      <point x="366" y="1311"/>
      <point x="366" y="1266" type="curve"/>
      <point x="367" y="1247"/>
      <point x="373" y="1233"/>
      <point x="388" y="1219" type="curve" name=".hr05"/>
      <point x="362" y="1209"/>
      <point x="335" y="1189"/>
      <point x="335" y="1158" type="curve" smooth="yes"/>
      <point x="335" y="1128"/>
      <point x="361" y="1107"/>
      <point x="400" y="1104" type="curve" name=".hr06"/>
      <point x="298" y="1041"/>
      <point x="269" y="884"/>
      <point x="269" y="774" type="curve" smooth="yes"/>
      <point x="269" y="720"/>
      <point x="274" y="671"/>
      <point x="291" y="558" type="curve"/>
      <point x="290" y="558"/>
      <point x="238" y="505"/>
      <point x="217" y="487" type="curve"/>
      <point x="126" y="403"/>
      <point x="0" y="282"/>
      <point x="0" y="82" type="curve" smooth="yes"/>
      <point x="0" y="-106"/>
      <point x="163" y="-253"/>
      <point x="349" y="-253" type="curve" smooth="yes"/>
      <point x="378" y="-253"/>
      <point x="405" y="-250"/>
      <point x="428" y="-245" type="curve"/>
      <point x="447" y="-341"/>
      <point x="459" y="-412"/>
      <point x="459" y="-465" type="curve" smooth="yes"/>
      <point x="459" y="-569"/>
      <point x="405" y="-624"/>
      <point x="304" y="-624" type="curve" smooth="yes"/>
      <point x="280" y="-624"/>
      <point x="259" y="-619"/>
      <point x="257" y="-618" type="curve"/>
      <point x="256" y="-618"/>
      <point x="254" y="-616"/>
      <point x="254" y="-615" type="curve"/>
      <point x="254" y="-613"/>
      <point x="256" y="-613"/>
      <point x="259" y="-612" type="curve" smooth="yes"/>
      <point x="306" y="-604"/>
      <point x="353" y="-564"/>
      <point x="353" y="-500" type="curve" smooth="yes"/>
      <point x="353" y="-447"/>
      <point x="312" y="-390"/>
      <point x="237" y="-390" type="curve" smooth="yes"/>
      <point x="167" y="-390"/>
      <point x="122" y="-447"/>
      <point x="122" y="-513" type="curve" smooth="yes"/>
      <point x="122" y="-579"/>
      <point x="173" y="-666"/>
      <point x="308" y="-666" type="curve" smooth="yes" name=".hr07"/>
      <point x="437" y="-666"/>
      <point x="500" y="-593"/>
      <point x="500" y="-465" type="curve" smooth="yes"/>
      <point x="500" y="-426"/>
      <point x="494" y="-380"/>
      <point x="484" y="-324" type="curve" smooth="yes" name=".hr08"/>
      <point x="481" y="-304"/>
      <point x="475" y="-273"/>
      <point x="469" y="-235" type="curve"/>
      <point x="567" y="-202"/>
      <point x="640" y="-101"/>
    </contour>
  </outline>
</glyph>
<glyph name="gClef15ma" format="2">
  <advance width="640"/>
  <unicode hex="E054"/>
  <outline>
    <contour>
      <point x="362" y="-212" type="curve" smooth="yes"/>
      <point x="219" y="-212"/>
      <point x="97" y="-113"/>
      <point x="97" y="39" type="curve" smooth="yes"/>
      <point x="97" y="160"/>
      <point x="183" y="269"/>
      <point x="271" y="346" type="curve" smooth="yes"/>
      <point x="288" y="360"/>
      <point x="304" y="375"/>
      <point x="319" y="389" type="curve"/>
      <point x="328" y="335"/>
      <point x="335" y="289"/>
      <point x="342" y="248" type="curve"/>
      <point x="251" y="221" name=".hr01"/>
      <point x="189" y="124"/>
      <point x="189" y="31" type="curve" smooth="yes"/>
      <point x="189" y="-40"/>
      <point x="244" y="-135"/>
      <point x="324" y="-135" type="curve" smooth="yes"/>
      <point x="332" y="-135"/>
      <point x="341" y="-132"/>
      <point x="341" y="-122" type="curve" smooth="yes"/>
      <point x="341" y="-114"/>
      <point x="331" y="-108"/>
      <point x="319" y="-100" type="curve" smooth="yes"/>
      <point x="280" y="-76"/>
      <point x="258" y="-50"/>
      <point x="258" y="-2" type="curve" smooth="yes"/>
      <point x="258" y="60"/>
      <point x="304" y="108"/>
      <point x="362" y="122" type="curve"/>
      <point x="420" y="-206" type="line"/>
      <point x="400" y="-210"/>
      <point x="381" y="-212"/>
    </contour>
    <contour>
      <point x="332" y="821" type="curve" smooth="yes"/>
      <point x="342" y="862"/>
      <point x="387" y="967"/>
      <point x="439" y="967" type="curve" smooth="yes"/>
      <point x="454" y="967"/>
      <point x="479" y="918"/>
      <point x="479" y="849" type="curve" smooth="yes"/>
      <point x="479" y="745"/>
      <point x="401" y="667"/>
      <point x="332" y="598" type="curve"/>
      <point x="326" y="639"/>
      <point x="321" y="678" name=".hr02"/>
      <point x="321" y="719" type="curve" smooth="yes"/>
      <point x="321" y="757"/>
      <point x="325" y="790"/>
    </contour>
    <contour>
      <point x="462" y="-194" type="curve"/>
      <point x="441" y="-75"/>
      <point x="414" y="84"/>
      <point x="407" y="129" type="curve"/>
      <point x="508" y="129"/>
      <point x="551" y="58"/>
      <point x="560" y="11" type="curve"/>
      <point x="561" y="2"/>
      <point x="562" y="-9"/>
      <point x="562" y="-21" type="curve" smooth="yes"/>
      <point x="562" y="-93"/>
      <point x="533" y="-165"/>
    </contour>
    <contour>
      <point x="640" y="2" type="curve" smooth="yes"/>
      <point x="640" y="152"/>
      <point x="533" y="255"/>
      <point x="387" y="255" type="curve"/>
      <point x="377" y="315" name=".hr03"/>
      <point x="367" y="374"/>
      <point x="359" y="429" type="curve"/>
      <point x="464" y="540"/>
      <point x="538" y="666"/>
      <point x="538" y="825" type="curve" smooth="yes"/>
      <point x="538" y="916"/>
      <point x="510" y="989"/>
      <point x="493" y="1025" type="curve" smooth="yes"/>
      <point x="476" y="1062"/>
      <point x="456" y="1091"/>
      <point x="439" y="1104" type="curve"/>
      <point x="444" y="1103"/>
      <point x="449" y="1103"/>
      <point x="454" y="1103" type="curve" smooth="yes"/>
      <point x="508" y="1103"/>
      <point x="553" y="1140"/>
      <point x="553" y="1196" type="curve" smooth="yes"/>
      <point x="553" y="1235" name=".hr04"/>
      <point x="524" y="1256"/>
      <point x="487" y="1256" type="curve" smooth="yes"/>
      <point x="474" y="1256"/>
      <point x="463" y="1254"/>
      <point x="449" y="1249" type="curve"/>
      <point x="458" y="1283" type="line"/>
      <point x="482" y="1278"/>
      <point x="482" y="1278"/>
      <point x="496" y="1278" type="curve" smooth="yes"/>
      <point x="523" y="1278"/>
      <point x="540" y="1283"/>
      <point x="554" y="1295" type="curve" smooth="yes"/>
      <point x="565" y="1305"/>
      <point x="573" y="1321"/>
      <point x="573" y="1332" type="curve" smooth="yes"/>
      <point x="573" y="1335" name=".hr05"/>
      <point x="571" y="1337"/>
      <point x="569" y="1337" type="curve"/>
      <point x="568" y="1337"/>
      <point x="567" y="1337"/>
      <point x="565" y="1336" type="curve" smooth="yes"/>
      <point x="551" y="1330"/>
      <point x="538" y="1328"/>
      <point x="521" y="1328" type="curve" smooth="yes"/>
      <point x="501" y="1328"/>
      <point x="478" y="1331"/>
      <point x="452" y="1337" type="curve" smooth="yes"/>
      <point x="450" y="1338" type="line"/>
      <point x="420" y="1235" type="line"/>
      <point x="411" y="1231"/>
      <point x="407" y="1225"/>
      <point x="407" y="1218" type="curve" smooth="yes"/>
      <point x="407" y="1210" name=".hr06"/>
      <point x="413" y="1204"/>
      <point x="420" y="1204" type="curve" smooth="yes"/>
      <point x="431" y="1204"/>
      <point x="438" y="1211"/>
      <point x="440" y="1223" type="curve"/>
      <point x="454" y="1229"/>
      <point x="459" y="1230"/>
      <point x="466" y="1230" type="curve" smooth="yes"/>
      <point x="485" y="1230"/>
      <point x="496" y="1216"/>
      <point x="496" y="1192" type="curve" smooth="yes"/>
      <point x="496" y="1154" name=".hr07"/>
      <point x="474" y="1125"/>
      <point x="447" y="1125" type="curve" smooth="yes"/>
      <point x="434" y="1125"/>
      <point x="424" y="1130"/>
      <point x="424" y="1134" type="curve"/>
      <point x="424" y="1135"/>
      <point x="424" y="1136"/>
      <point x="426" y="1137" type="curve" smooth="yes"/>
      <point x="439" y="1141"/>
      <point x="446" y="1151"/>
      <point x="446" y="1164" type="curve" smooth="yes"/>
      <point x="446" y="1180"/>
      <point x="435" y="1190"/>
      <point x="418" y="1190" type="curve" smooth="yes"/>
      <point x="399" y="1190"/>
      <point x="386" y="1176"/>
      <point x="386" y="1156" type="curve" smooth="yes"/>
      <point x="386" y="1135"/>
      <point x="397" y="1119"/>
      <point x="416" y="1110" type="curve"/>
      <point x="404" y="1106"/>
      <point x="378" y="1092"/>
      <point x="351" y="1060" type="curve" smooth="yes"/>
      <point x="287" y="984"/>
      <point x="269" y="857"/>
      <point x="269" y="773" type="curve" smooth="yes"/>
      <point x="269" y="719" name=".hr08"/>
      <point x="274" y="670"/>
      <point x="291" y="558" type="curve"/>
      <point x="290" y="557"/>
      <point x="238" y="504"/>
      <point x="217" y="487" type="curve"/>
      <point x="126" y="402"/>
      <point x="0" y="281"/>
      <point x="0" y="81" type="curve" smooth="yes"/>
      <point x="0" y="-107"/>
      <point x="163" y="-254"/>
      <point x="349" y="-254" type="curve" smooth="yes"/>
      <point x="378" y="-254"/>
      <point x="405" y="-251"/>
      <point x="429" y="-246" type="curve"/>
      <point x="447" y="-342"/>
      <point x="459" y="-413"/>
      <point x="459" y="-466" type="curve" smooth="yes"/>
      <point x="459" y="-570"/>
      <point x="405" y="-625"/>
      <point x="304" y="-625" type="curve" smooth="yes"/>
      <point x="280" y="-625"/>
      <point x="259" y="-620"/>
      <point x="257" y="-619" type="curve"/>
      <point x="256" y="-619"/>
      <point x="254" y="-617"/>
      <point x="254" y="-616" type="curve"/>
      <point x="254" y="-614"/>
      <point x="256" y="-614"/>
      <point x="259" y="-613" type="curve" smooth="yes"/>
      <point x="306" y="-605"/>
      <point x="353" y="-565"/>
      <point x="353" y="-501" type="curve" smooth="yes"/>
      <point x="353" y="-448"/>
      <point x="312" y="-390"/>
      <point x="237" y="-390" type="curve" smooth="yes"/>
      <point x="167" y="-390"/>
      <point x="123" y="-448"/>
      <point x="123" y="-514" type="curve" smooth="yes"/>
      <point x="123" y="-580" name=".hr09"/>
      <point x="173" y="-667"/>
      <point x="308" y="-667" type="curve" smooth="yes"/>
      <point x="355" y="-667"/>
      <point x="396" y="-655"/>
      <point x="432" y="-633" type="curve"/>
      <point x="486" y="-595"/>
      <point x="500" y="-529"/>
      <point x="500" y="-466" type="curve" smooth="yes"/>
      <point x="500" y="-427"/>
      <point x="494" y="-381"/>
      <point x="484" y="-325" type="curve" smooth="yes"/>
      <point x="481" y="-305"/>
      <point x="476" y="-274"/>
      <point x="469" y="-236" type="curve"/>
      <point x="567" y="-203"/>
      <point x="640" y="-102"/>
    </contour>
    <contour>
      <point x="379" y="1131" type="line"/>
      <point x="360" y="1131" type="line" smooth="yes"/>
      <point x="339" y="1131"/>
      <point x="338" y="1132"/>
      <point x="338" y="1136" type="curve" smooth="yes"/>
      <point x="338" y="1139"/>
      <point x="339" y="1145"/>
      <point x="342" y="1156" type="curve" smooth="yes"/>
      <point x="391" y="1338" type="line"/>
      <point x="373" y="1338" type="line"/>
      <point x="373" y="1337" type="line"/>
      <point x="359" y="1327"/>
      <point x="318" y="1315"/>
      <point x="287" y="1315" type="curve" smooth="yes"/>
      <point x="285" y="1315" type="line"/>
      <point x="279" y="1293" type="line"/>
      <point x="312" y="1293" type="line" smooth="yes"/>
      <point x="323" y="1293"/>
      <point x="323" y="1291"/>
      <point x="323" y="1288" type="curve" smooth="yes"/>
      <point x="323" y="1286"/>
      <point x="322" y="1283" name=".hr10"/>
      <point x="321" y="1277" type="curve" smooth="yes"/>
      <point x="289" y="1157" type="line" smooth="yes"/>
      <point x="286" y="1147"/>
      <point x="285" y="1142"/>
      <point x="285" y="1141" type="curve"/>
      <point x="284" y="1141" type="line"/>
      <point x="283" y="1137"/>
      <point x="282" y="1135"/>
      <point x="281" y="1134" type="curve" smooth="yes"/>
      <point x="279" y="1131"/>
      <point x="271" y="1131"/>
      <point x="259" y="1131" type="curve" smooth="yes"/>
      <point x="240" y="1131" type="line"/>
      <point x="237" y="1108" type="line"/>
      <point x="376" y="1108" type="line"/>
    </contour>
  </outline>
</glyph>
<glyph name="gClef8vbOld" format="2">
  <advance width="1044"/>
  <unicode hex="E055"/>
  <outline>
    <contour>
      <point x="362" y="-213" type="curve" smooth="yes"/>
      <point x="219" y="-213"/>
      <point x="97" y="-113"/>
      <point x="97" y="38" type="curve" smooth="yes"/>
      <point x="97" y="160"/>
      <point x="184" y="269"/>
      <point x="272" y="346" type="curve" smooth="yes"/>
      <point x="288" y="360"/>
      <point x="304" y="375"/>
      <point x="319" y="389" type="curve"/>
      <point x="328" y="335"/>
      <point x="336" y="289"/>
      <point x="342" y="248" type="curve"/>
      <point x="251" y="221"/>
      <point x="189" y="124"/>
      <point x="189" y="31" type="curve" smooth="yes"/>
      <point x="189" y="-40"/>
      <point x="244" y="-136"/>
      <point x="324" y="-136" type="curve" smooth="yes"/>
      <point x="332" y="-136"/>
      <point x="341" y="-132"/>
      <point x="341" y="-122" type="curve" smooth="yes"/>
      <point x="341" y="-114"/>
      <point x="332" y="-108"/>
      <point x="319" y="-100" type="curve" smooth="yes"/>
      <point x="281" y="-76"/>
      <point x="259" y="-50"/>
      <point x="259" y="-2" type="curve" smooth="yes"/>
      <point x="259" y="60"/>
      <point x="304" y="108"/>
      <point x="363" y="122" type="curve"/>
      <point x="420" y="-206" type="line"/>
      <point x="400" y="-210"/>
      <point x="382" y="-213"/>
    </contour>
    <contour>
      <point x="676" y="346" type="curve" smooth="yes"/>
      <point x="692" y="360"/>
      <point x="708" y="375"/>
      <point x="723" y="389" type="curve"/>
      <point x="732" y="335"/>
      <point x="740" y="289"/>
      <point x="746" y="248" type="curve"/>
      <point x="686" y="230"/>
      <point x="638" y="181"/>
      <point x="613" y="123" type="curve"/>
      <point x="598" y="154"/>
      <point x="576" y="180"/>
      <point x="550" y="201" type="curve"/>
      <point x="583" y="256"/>
      <point x="629" y="305"/>
    </contour>
    <contour>
      <point x="332" y="821" type="curve" smooth="yes"/>
      <point x="342" y="862"/>
      <point x="387" y="967"/>
      <point x="439" y="967" type="curve" smooth="yes"/>
      <point x="454" y="967"/>
      <point x="479" y="918"/>
      <point x="479" y="849" type="curve" smooth="yes"/>
      <point x="479" y="745"/>
      <point x="401" y="667"/>
      <point x="333" y="598" type="curve"/>
      <point x="326" y="639"/>
      <point x="321" y="678"/>
      <point x="321" y="719" type="curve" smooth="yes"/>
      <point x="321" y="757"/>
      <point x="325" y="790"/>
    </contour>
    <contour>
      <point x="736" y="821" type="curve" smooth="yes"/>
      <point x="746" y="862"/>
      <point x="791" y="967"/>
      <point x="843" y="967" type="curve" smooth="yes"/>
      <point x="858" y="967"/>
      <point x="883" y="918"/>
      <point x="883" y="849" type="curve" smooth="yes"/>
      <point x="883" y="745"/>
      <point x="805" y="667"/>
      <point x="737" y="598" type="curve"/>
      <point x="730" y="639"/>
      <point x="725" y="678"/>
      <point x="725" y="719" type="curve" smooth="yes"/>
      <point x="725" y="757"/>
      <point x="729" y="790"/>
    </contour>
    <contour>
      <point x="462" y="-194" type="curve"/>
      <point x="441" y="-75"/>
      <point x="414" y="84"/>
      <point x="407" y="128" type="curve"/>
      <point x="508" y="128"/>
      <point x="551" y="58"/>
      <point x="560" y="10" type="curve"/>
      <point x="562" y="2"/>
      <point x="563" y="-9"/>
      <point x="563" y="-21" type="curve" smooth="yes"/>
      <point x="563" y="-93"/>
      <point x="533" y="-165"/>
    </contour>
    <contour>
      <point x="766" y="-213" type="curve" smooth="yes"/>
      <point x="698" y="-213"/>
      <point x="635" y="-190"/>
      <point x="587" y="-150" type="curve"/>
      <point x="605" y="-127"/>
      <point x="618" y="-101"/>
      <point x="628" y="-74" type="curve"/>
      <point x="651" y="-109"/>
      <point x="686" y="-136"/>
      <point x="728" y="-136" type="curve" smooth="yes"/>
      <point x="736" y="-136"/>
      <point x="745" y="-132"/>
      <point x="745" y="-122" type="curve" smooth="yes"/>
      <point x="745" y="-114"/>
      <point x="736" y="-108"/>
      <point x="723" y="-100" type="curve" smooth="yes"/>
      <point x="685" y="-76"/>
      <point x="663" y="-50"/>
      <point x="663" y="-2" type="curve" smooth="yes"/>
      <point x="663" y="60"/>
      <point x="708" y="108"/>
      <point x="767" y="122" type="curve"/>
      <point x="824" y="-206" type="line"/>
      <point x="804" y="-210"/>
      <point x="786" y="-213"/>
    </contour>
    <contour>
      <point x="866" y="-194" type="curve"/>
      <point x="845" y="-75"/>
      <point x="818" y="84"/>
      <point x="811" y="128" type="curve"/>
      <point x="912" y="128"/>
      <point x="955" y="58"/>
      <point x="964" y="10" type="curve"/>
      <point x="966" y="2"/>
      <point x="967" y="-9"/>
      <point x="967" y="-21" type="curve" smooth="yes"/>
      <point x="967" y="-93"/>
      <point x="937" y="-165"/>
    </contour>
    <contour>
      <point x="1044" y="2" type="curve" smooth="yes"/>
      <point x="1044" y="152"/>
      <point x="937" y="254"/>
      <point x="791" y="254" type="curve"/>
      <point x="781" y="315"/>
      <point x="772" y="374"/>
      <point x="763" y="429" type="curve"/>
      <point x="868" y="540"/>
      <point x="942" y="666"/>
      <point x="942" y="825" type="curve" smooth="yes"/>
      <point x="942" y="916"/>
      <point x="914" y="989"/>
      <point x="897" y="1025" type="curve" smooth="yes"/>
      <point x="874" y="1076"/>
      <point x="845" y="1112"/>
      <point x="827" y="1112" type="curve" smooth="yes"/>
      <point x="820" y="1112"/>
      <point x="788" y="1099"/>
      <point x="756" y="1060" type="curve" smooth="yes"/>
      <point x="691" y="984"/>
      <point x="673" y="857"/>
      <point x="673" y="773" type="curve" smooth="yes"/>
      <point x="673" y="719"/>
      <point x="678" y="670"/>
      <point x="695" y="557" type="curve"/>
      <point x="694" y="557"/>
      <point x="642" y="504"/>
      <point x="621" y="487" type="curve"/>
      <point x="559" y="429"/>
      <point x="482" y="355"/>
      <point x="438" y="250" type="curve"/>
      <point x="422" y="253"/>
      <point x="405" y="254"/>
      <point x="387" y="254" type="curve"/>
      <point x="377" y="315"/>
      <point x="368" y="374"/>
      <point x="359" y="429" type="curve"/>
      <point x="464" y="540"/>
      <point x="538" y="666"/>
      <point x="538" y="825" type="curve" smooth="yes"/>
      <point x="538" y="916"/>
      <point x="510" y="989"/>
      <point x="493" y="1025" type="curve" smooth="yes"/>
      <point x="470" y="1076"/>
      <point x="441" y="1112"/>
      <point x="423" y="1112" type="curve" smooth="yes"/>
      <point x="416" y="1112"/>
      <point x="384" y="1099"/>
      <point x="352" y="1060" type="curve" smooth="yes"/>
      <point x="287" y="984"/>
      <point x="269" y="857"/>
      <point x="269" y="773" type="curve" smooth="yes"/>
      <point x="269" y="719"/>
      <point x="274" y="670"/>
      <point x="291" y="557" type="curve"/>
      <point x="290" y="557"/>
      <point x="238" y="504"/>
      <point x="217" y="487" type="curve"/>
      <point x="126" y="402"/>
      <point x="0" y="281"/>
      <point x="0" y="81" type="curve" smooth="yes"/>
      <point x="0" y="-107"/>
      <point x="163" y="-254"/>
      <point x="349" y="-254" type="curve" smooth="yes"/>
      <point x="378" y="-254"/>
      <point x="405" y="-251"/>
      <point x="429" y="-246" type="curve"/>
      <point x="447" y="-342"/>
      <point x="459" y="-413"/>
      <point x="459" y="-466" type="curve" smooth="yes"/>
      <point x="459" y="-570"/>
      <point x="405" y="-625"/>
      <point x="305" y="-625" type="curve" smooth="yes"/>
      <point x="280" y="-625"/>
      <point x="260" y="-620"/>
      <point x="258" y="-619" type="curve"/>
      <point x="256" y="-619"/>
      <point x="255" y="-618"/>
      <point x="255" y="-617" type="curve"/>
      <point x="255" y="-615"/>
      <point x="256" y="-614"/>
      <point x="259" y="-613" type="curve"/>
      <point x="306" y="-606"/>
      <point x="353" y="-565"/>
      <point x="353" y="-501" type="curve" smooth="yes"/>
      <point x="353" y="-448"/>
      <point x="313" y="-391"/>
      <point x="238" y="-391" type="curve" smooth="yes"/>
      <point x="168" y="-391"/>
      <point x="123" y="-448"/>
      <point x="123" y="-514" type="curve" smooth="yes"/>
      <point x="123" y="-580"/>
      <point x="173" y="-667"/>
      <point x="308" y="-667" type="curve" smooth="yes"/>
      <point x="437" y="-667"/>
      <point x="500" y="-594"/>
      <point x="500" y="-466" type="curve" smooth="yes"/>
      <point x="500" y="-427"/>
      <point x="494" y="-381"/>
      <point x="485" y="-325" type="curve"/>
      <point x="481" y="-305"/>
      <point x="476" y="-274"/>
      <point x="469" y="-236" type="curve"/>
      <point x="499" y="-226"/>
      <point x="526" y="-210"/>
      <point x="550" y="-190" type="curve"/>
      <point x="608" y="-230"/>
      <point x="679" y="-254"/>
      <point x="753" y="-254" type="curve" smooth="yes"/>
      <point x="782" y="-254"/>
      <point x="809" y="-251"/>
      <point x="833" y="-246" type="curve"/>
      <point x="851" y="-342"/>
      <point x="863" y="-413"/>
      <point x="863" y="-466" type="curve" smooth="yes"/>
      <point x="863" y="-570"/>
      <point x="809" y="-625"/>
      <point x="709" y="-625" type="curve" smooth="yes"/>
      <point x="684" y="-625"/>
      <point x="664" y="-620"/>
      <point x="662" y="-619" type="curve"/>
      <point x="660" y="-619"/>
      <point x="659" y="-618"/>
      <point x="659" y="-617" type="curve"/>
      <point x="659" y="-615"/>
      <point x="660" y="-614"/>
      <point x="663" y="-613" type="curve"/>
      <point x="710" y="-606"/>
      <point x="757" y="-565"/>
      <point x="757" y="-501" type="curve" smooth="yes"/>
      <point x="757" y="-448"/>
      <point x="717" y="-391"/>
      <point x="642" y="-391" type="curve" smooth="yes"/>
      <point x="572" y="-391"/>
      <point x="527" y="-448"/>
      <point x="527" y="-514" type="curve" smooth="yes"/>
      <point x="527" y="-580"/>
      <point x="577" y="-667"/>
      <point x="712" y="-667" type="curve" smooth="yes"/>
      <point x="841" y="-667"/>
      <point x="904" y="-594"/>
      <point x="904" y="-466" type="curve" smooth="yes"/>
      <point x="904" y="-427"/>
      <point x="898" y="-381"/>
      <point x="889" y="-325" type="curve"/>
      <point x="885" y="-305"/>
      <point x="880" y="-274"/>
      <point x="873" y="-236" type="curve"/>
      <point x="971" y="-203"/>
      <point x="1044" y="-102"/>
    </contour>
  </outline>
</glyph>
<glyph name="gClef8vbParens" format="2">
  <advance width="640"/>
  <unicode hex="E057"/>
  <outline>
    <contour>
      <point x="362" y="-212" type="curve" smooth="yes"/>
      <point x="219" y="-212"/>
      <point x="97" y="-113"/>
      <point x="97" y="39" type="curve" smooth="yes"/>
      <point x="97" y="160"/>
      <point x="183" y="269"/>
      <point x="271" y="346" type="curve" smooth="yes"/>
      <point x="288" y="361"/>
      <point x="304" y="375"/>
      <point x="319" y="389" type="curve"/>
      <point x="328" y="335"/>
      <point x="335" y="289"/>
      <point x="342" y="248" type="curve"/>
      <point x="251" y="221"/>
      <point x="189" y="124"/>
      <point x="189" y="31" type="curve" smooth="yes"/>
      <point x="189" y="-40"/>
      <point x="244" y="-135"/>
      <point x="324" y="-135" type="curve" smooth="yes"/>
      <point x="332" y="-135"/>
      <point x="341" y="-132"/>
      <point x="341" y="-122" type="curve" smooth="yes"/>
      <point x="341" y="-114"/>
      <point x="331" y="-108"/>
      <point x="319" y="-100" type="curve" smooth="yes"/>
      <point x="280" y="-76"/>
      <point x="258" y="-50"/>
      <point x="258" y="-2" type="curve" smooth="yes"/>
      <point x="258" y="60"/>
      <point x="304" y="108"/>
      <point x="362" y="123" type="curve"/>
      <point x="420" y="-206" type="line"/>
      <point x="400" y="-210"/>
      <point x="381" y="-212"/>
    </contour>
    <contour>
      <point x="332" y="822" type="curve" smooth="yes"/>
      <point x="342" y="862"/>
      <point x="387" y="967"/>
      <point x="439" y="967" type="curve" smooth="yes"/>
      <point x="454" y="967"/>
      <point x="479" y="918"/>
      <point x="479" y="849" type="curve" smooth="yes"/>
      <point x="479" y="745"/>
      <point x="401" y="667"/>
      <point x="332" y="598" type="curve"/>
      <point x="326" y="639"/>
      <point x="321" y="678" name=".hr01"/>
      <point x="321" y="719" type="curve" smooth="yes"/>
      <point x="321" y="757"/>
      <point x="325" y="791"/>
    </contour>
    <contour>
      <point x="462" y="-194" type="curve"/>
      <point x="441" y="-75"/>
      <point x="414" y="84"/>
      <point x="407" y="129" type="curve"/>
      <point x="508" y="129"/>
      <point x="551" y="58"/>
      <point x="560" y="11" type="curve"/>
      <point x="561" y="2"/>
      <point x="562" y="-9"/>
      <point x="562" y="-21" type="curve" smooth="yes"/>
      <point x="562" y="-93"/>
      <point x="533" y="-165"/>
    </contour>
    <contour>
      <point x="323" y="-878" type="curve" smooth="yes"/>
      <point x="301" y="-878"/>
      <point x="286" y="-864"/>
      <point x="286" y="-843" type="curve" smooth="yes"/>
      <point x="286" y="-824" name=".hr02"/>
      <point x="295" y="-808"/>
      <point x="312" y="-798" type="curve"/>
      <point x="334" y="-809" type="line"/>
      <point x="353" y="-820"/>
      <point x="361" y="-830"/>
      <point x="361" y="-845" type="curve" smooth="yes"/>
      <point x="361" y="-864"/>
      <point x="345" y="-878"/>
    </contour>
    <contour>
      <point x="360" y="-758" type="curve"/>
      <point x="352" y="-754"/>
      <point x="347" y="-752"/>
      <point x="344" y="-750" type="curve" smooth="yes"/>
      <point x="337" y="-746" type="line" smooth="yes"/>
      <point x="322" y="-736"/>
      <point x="317" y="-730"/>
      <point x="317" y="-717" type="curve" smooth="yes"/>
      <point x="317" y="-699"/>
      <point x="331" y="-687" name=".hr03"/>
      <point x="351" y="-687" type="curve" smooth="yes"/>
      <point x="370" y="-687"/>
      <point x="382" y="-699"/>
      <point x="382" y="-719" type="curve" smooth="yes"/>
      <point x="382" y="-736"/>
      <point x="376" y="-746"/>
    </contour>
    <contour>
      <point x="387" y="255" type="curve"/>
      <point x="377" y="315"/>
      <point x="367" y="374"/>
      <point x="359" y="429" type="curve"/>
      <point x="464" y="540"/>
      <point x="538" y="666"/>
      <point x="538" y="825" type="curve" smooth="yes"/>
      <point x="538" y="916"/>
      <point x="510" y="989"/>
      <point x="493" y="1025" type="curve" smooth="yes"/>
      <point x="469" y="1076"/>
      <point x="440" y="1112"/>
      <point x="423" y="1112" type="curve" smooth="yes"/>
      <point x="415" y="1112"/>
      <point x="384" y="1099"/>
      <point x="351" y="1061" type="curve"/>
      <point x="287" y="984"/>
      <point x="269" y="857"/>
      <point x="269" y="773" type="curve" smooth="yes"/>
      <point x="269" y="719"/>
      <point x="274" y="670"/>
      <point x="291" y="558" type="curve" name=".hr04"/>
      <point x="290" y="557"/>
      <point x="238" y="504"/>
      <point x="217" y="487" type="curve"/>
      <point x="126" y="402"/>
      <point x="0" y="281"/>
      <point x="0" y="81" type="curve" smooth="yes"/>
      <point x="0" y="-107"/>
      <point x="163" y="-254"/>
      <point x="349" y="-254" type="curve" smooth="yes"/>
      <point x="378" y="-254"/>
      <point x="405" y="-251"/>
      <point x="429" y="-246" type="curve"/>
      <point x="447" y="-342"/>
      <point x="459" y="-412"/>
      <point x="459" y="-466" type="curve" smooth="yes"/>
      <point x="459" y="-569"/>
      <point x="405" y="-624"/>
      <point x="304" y="-624" type="curve" smooth="yes"/>
      <point x="280" y="-624"/>
      <point x="259" y="-620"/>
      <point x="257" y="-619" type="curve"/>
      <point x="256" y="-619"/>
      <point x="254" y="-617"/>
      <point x="254" y="-616" type="curve"/>
      <point x="254" y="-614"/>
      <point x="256" y="-614"/>
      <point x="259" y="-613" type="curve" smooth="yes"/>
      <point x="306" y="-605"/>
      <point x="353" y="-565"/>
      <point x="353" y="-501" type="curve" smooth="yes"/>
      <point x="353" y="-447"/>
      <point x="312" y="-390"/>
      <point x="237" y="-390" type="curve" smooth="yes" name=".hr05"/>
      <point x="167" y="-390"/>
      <point x="123" y="-448"/>
      <point x="123" y="-514" type="curve" smooth="yes"/>
      <point x="123" y="-562"/>
      <point x="149" y="-621"/>
      <point x="216" y="-650" type="curve"/>
      <point x="170" y="-678"/>
      <point x="142" y="-725"/>
      <point x="142" y="-781" type="curve" smooth="yes"/>
      <point x="142" y="-842"/>
      <point x="175" y="-892"/>
      <point x="227" y="-920" type="curve" smooth="yes" name=".hr06"/>
      <point x="231" y="-922" type="line"/>
      <point x="231" y="-901" type="line"/>
      <point x="230" y="-900" type="line" smooth="yes"/>
      <point x="192" y="-873"/>
      <point x="187" y="-825"/>
      <point x="187" y="-781" type="curve" smooth="yes"/>
      <point x="187" y="-738"/>
      <point x="192" y="-690"/>
      <point x="230" y="-664" type="curve" smooth="yes"/>
      <point x="231" y="-663" type="line"/>
      <point x="231" y="-655" type="line"/>
      <point x="253" y="-663"/>
      <point x="279" y="-667"/>
      <point x="308" y="-667" type="curve" smooth="yes"/>
      <point x="437" y="-667"/>
      <point x="500" y="-594"/>
      <point x="500" y="-465" type="curve" smooth="yes"/>
      <point x="500" y="-427"/>
      <point x="494" y="-381"/>
      <point x="484" y="-325" type="curve" smooth="yes"/>
      <point x="481" y="-305"/>
      <point x="476" y="-274"/>
      <point x="469" y="-236" type="curve"/>
      <point x="567" y="-203"/>
      <point x="640" y="-102"/>
      <point x="640" y="2" type="curve" smooth="yes"/>
      <point x="640" y="152"/>
      <point x="533" y="255"/>
    </contour>
    <contour>
      <point x="422" y="-718" type="curve" smooth="yes"/>
      <point x="422" y="-681"/>
      <point x="389" y="-665"/>
      <point x="356" y="-665" type="curve" smooth="yes" name=".hr07"/>
      <point x="314" y="-665"/>
      <point x="273" y="-692"/>
      <point x="273" y="-737" type="curve" smooth="yes"/>
      <point x="273" y="-755"/>
      <point x="279" y="-769"/>
      <point x="294" y="-783" type="curve"/>
      <point x="268" y="-794"/>
      <point x="242" y="-814"/>
      <point x="242" y="-845" type="curve" smooth="yes"/>
      <point x="242" y="-877"/>
      <point x="272" y="-899"/>
      <point x="316" y="-899" type="curve" smooth="yes"/>
      <point x="370" y="-899" name=".hr08"/>
      <point x="408" y="-869"/>
      <point x="408" y="-826" type="curve" smooth="yes"/>
      <point x="408" y="-804"/>
      <point x="398" y="-785"/>
      <point x="380" y="-771" type="curve"/>
      <point x="409" y="-759"/>
      <point x="422" y="-742"/>
    </contour>
    <contour>
      <point x="440" y="-641" type="line"/>
      <point x="440" y="-663" type="line"/>
      <point x="441" y="-664" type="line" smooth="yes"/>
      <point x="479" y="-691"/>
      <point x="485" y="-737" name=".hr09"/>
      <point x="485" y="-781" type="curve" smooth="yes"/>
      <point x="485" y="-826"/>
      <point x="479" y="-871"/>
      <point x="441" y="-899" type="curve" smooth="yes"/>
      <point x="440" y="-900" type="line"/>
      <point x="440" y="-922" type="line" name=".hr10"/>
      <point x="444" y="-920" type="line" smooth="yes"/>
      <point x="497" y="-892"/>
      <point x="530" y="-842"/>
      <point x="530" y="-781" type="curve" smooth="yes"/>
      <point x="530" y="-720"/>
      <point x="497" y="-671" name=".hr11"/>
      <point x="444" y="-644" type="curve"/>
    </contour>
  </outline>
</glyph>
<glyph name="fClef" format="2">
  <advance width="663"/>
  <unicode hex="E062"/>
  <outline>
    <contour>
      <point x="568" y="124" type="curve" smooth="yes"/>
      <point x="568" y="96"/>
      <point x="590" y="74"/>
      <point x="616" y="74" type="curve" smooth="yes"/>
      <point x="642" y="74"/>
      <point x="664" y="96"/>
      <point x="664" y="124" type="curve" smooth="yes"/>
      <point x="664" y="152"/>
      <point x="642" y="175"/>
      <point x="616" y="175" type="curve" smooth="yes"/>
      <point x="590" y="175"/>
      <point x="568" y="152"/>
    </contour>
    <contour>
      <point x="254" y="251" type="curve" smooth="yes"/>
      <point x="178" y="251"/>
      <point x="117" y="207"/>
      <point x="116" y="207" type="curve"/>
      <point x="57" y="164"/>
      <point x="19" y="98"/>
      <point x="19" y="25" type="curve" smooth="yes"/>
      <point x="19" y="-48"/>
      <point x="61" y="-102"/>
      <point x="135" y="-102" type="curve" smooth="yes"/>
      <point x="199" y="-102"/>
      <point x="249" y="-59"/>
      <point x="249" y="7" type="curve" smooth="yes"/>
      <point x="249" y="64"/>
      <point x="199" y="111"/>
      <point x="143" y="111" type="curve" smooth="yes"/>
      <point x="131" y="111"/>
      <point x="120" y="109"/>
      <point x="111" y="106" type="curve"/>
      <point x="101" y="102"/>
      <point x="84" y="92"/>
      <point x="76" y="85" type="curve"/>
      <point x="83" y="129"/>
      <point x="113" y="173"/>
      <point x="152" y="194" type="curve" smooth="yes"/>
      <point x="177" y="208"/>
      <point x="209" y="214"/>
      <point x="244" y="214" type="curve" smooth="yes"/>
      <point x="346" y="214"/>
      <point x="396" y="132"/>
      <point x="396" y="-36" type="curve" smooth="yes"/>
      <point x="396" y="-166"/>
      <point x="313" y="-353"/>
      <point x="215" y="-441" type="curve" smooth="yes"/>
      <point x="111" y="-536"/>
      <point x="13" y="-581"/>
      <point x="12" y="-581" type="curve"/>
      <point x="12" y="-581"/>
      <point x="0" y="-588"/>
      <point x="0" y="-600" type="curve" smooth="yes"/>
      <point x="0" y="-602"/>
      <point x="1" y="-603"/>
      <point x="1" y="-605" type="curve"/>
      <point x="4" y="-615"/>
      <point x="13" y="-617"/>
      <point x="19" y="-617" type="curve"/>
      <point x="20" y="-617"/>
      <point x="23" y="-616"/>
      <point x="24" y="-616" type="curve"/>
      <point x="25" y="-616"/>
      <point x="139" y="-569"/>
      <point x="230" y="-498" type="curve"/>
      <point x="370" y="-397"/>
      <point x="528" y="-219"/>
      <point x="528" y="-35" type="curve" smooth="yes"/>
      <point x="528" y="139"/>
      <point x="434" y="251"/>
    </contour>
    <contour>
      <point x="568" y="-123" type="curve" smooth="yes"/>
      <point x="568" y="-151"/>
      <point x="590" y="-174"/>
      <point x="616" y="-174" type="curve" smooth="yes"/>
      <point x="642" y="-174"/>
      <point x="664" y="-151"/>
      <point x="664" y="-123" type="curve" smooth="yes"/>
      <point x="664" y="-95"/>
      <point x="642" y="-72"/>
      <point x="616" y="-72" type="curve" smooth="yes"/>
      <point x="590" y="-72"/>
      <point x="568" y="-95"/>
    </contour>
  </outline>
</glyph>
<glyph name="fClef15mb" format="2">
  <advance width="662"/>
  <unicode hex="E063"/>
  <outline>
    <contour>
      <point x="567" y="124" type="curve" smooth="yes"/>
      <point x="567" y="96"/>
      <point x="589" y="74"/>
      <point x="615" y="74" type="curve" smooth="yes"/>
      <point x="641" y="74"/>
      <point x="663" y="96"/>
      <point x="663" y="124" type="curve" smooth="yes"/>
      <point x="663" y="152"/>
      <point x="641" y="175"/>
      <point x="615" y="175" type="curve" smooth="yes"/>
      <point x="589" y="175"/>
      <point x="567" y="152"/>
    </contour>
    <contour>
      <point x="253" y="251" type="curve" smooth="yes"/>
      <point x="177" y="251"/>
      <point x="117" y="207"/>
      <point x="116" y="207" type="curve"/>
      <point x="57" y="164"/>
      <point x="19" y="98"/>
      <point x="19" y="25" type="curve" smooth="yes"/>
      <point x="19" y="-50"/>
      <point x="62" y="-102"/>
      <point x="137" y="-102" type="curve" smooth="yes"/>
      <point x="200" y="-102"/>
      <point x="249" y="-58"/>
      <point x="249" y="7" type="curve" smooth="yes"/>
      <point x="249" y="65"/>
      <point x="199" y="111"/>
      <point x="142" y="111" type="curve" smooth="yes"/>
      <point x="129" y="111"/>
      <point x="119" y="109"/>
      <point x="110" y="106" type="curve"/>
      <point x="100" y="102"/>
      <point x="84" y="92"/>
      <point x="76" y="85" type="curve"/>
      <point x="83" y="129"/>
      <point x="113" y="173"/>
      <point x="152" y="194" type="curve" smooth="yes"/>
      <point x="177" y="208"/>
      <point x="209" y="214"/>
      <point x="244" y="214" type="curve" smooth="yes"/>
      <point x="346" y="214"/>
      <point x="396" y="132"/>
      <point x="396" y="-36" type="curve" smooth="yes"/>
      <point x="396" y="-166"/>
      <point x="313" y="-353"/>
      <point x="215" y="-441" type="curve" smooth="yes"/>
      <point x="111" y="-536"/>
      <point x="13" y="-581"/>
      <point x="12" y="-581" type="curve"/>
      <point x="11" y="-581" type="line"/>
      <point x="11" y="-581"/>
      <point x="0" y="-588"/>
      <point x="0" y="-600" type="curve"/>
      <point x="0" y="-601"/>
      <point x="1" y="-603"/>
      <point x="1" y="-605" type="curve"/>
      <point x="4" y="-615"/>
      <point x="12" y="-617"/>
      <point x="18" y="-617" type="curve"/>
      <point x="19" y="-617"/>
      <point x="23" y="-616"/>
      <point x="24" y="-616" type="curve"/>
      <point x="25" y="-616"/>
      <point x="139" y="-568"/>
      <point x="230" y="-497" type="curve"/>
      <point x="324" y="-429"/>
      <point x="400" y="-355"/>
      <point x="459" y="-255" type="curve" smooth="yes"/>
      <point x="503" y="-180"/>
      <point x="528" y="-102"/>
      <point x="528" y="-35" type="curve" smooth="yes"/>
      <point x="528" y="140"/>
      <point x="433" y="251"/>
    </contour>
    <contour>
      <point x="567" y="-123" type="curve" smooth="yes"/>
      <point x="567" y="-151"/>
      <point x="589" y="-174"/>
      <point x="615" y="-174" type="curve" smooth="yes"/>
      <point x="641" y="-174"/>
      <point x="663" y="-151"/>
      <point x="663" y="-123" type="curve" smooth="yes"/>
      <point x="663" y="-95"/>
      <point x="641" y="-72"/>
      <point x="615" y="-72" type="curve" smooth="yes"/>
      <point x="589" y="-72"/>
      <point x="567" y="-95"/>
    </contour>
    <contour>
      <point x="259" y="-710" type="curve" smooth="yes"/>
      <point x="259" y="-707"/>
      <point x="260" y="-702"/>
      <point x="263" y="-691" type="curve" smooth="yes"/>
      <point x="312" y="-509" type="line"/>
      <point x="294" y="-509" type="line"/>
      <point x="294" y="-510" type="line"/>
      <point x="280" y="-520"/>
      <point x="239" y="-531"/>
      <point x="208" y="-532" type="curve"/>
      <point x="206" y="-532" type="line"/>
      <point x="200" y="-553" type="line"/>
      <point x="233" y="-553" type="line" smooth="yes"/>
      <point x="244" y="-553"/>
      <point x="244" y="-556"/>
      <point x="244" y="-559" type="curve" smooth="yes"/>
      <point x="244" y="-562"/>
      <point x="243" y="-567"/>
      <point x="242" y="-570" type="curve"/>
      <point x="210" y="-690" type="line"/>
      <point x="207" y="-700"/>
      <point x="206" y="-704"/>
      <point x="206" y="-705" type="curve"/>
      <point x="205" y="-706" type="line"/>
      <point x="204" y="-711"/>
      <point x="203" y="-711"/>
      <point x="202" y="-712" type="curve"/>
      <point x="202" y="-713" type="line"/>
      <point x="200" y="-716"/>
      <point x="192" y="-716"/>
      <point x="180" y="-716" type="curve" smooth="yes"/>
      <point x="161" y="-716" type="line"/>
      <point x="158" y="-739" type="line"/>
      <point x="297" y="-739" type="line"/>
      <point x="300" y="-716" type="line"/>
      <point x="281" y="-716" type="line" smooth="yes"/>
      <point x="260" y="-716"/>
      <point x="259" y="-714"/>
    </contour>
    <contour>
      <point x="487" y="-510" type="line"/>
      <point x="486" y="-511" type="line"/>
      <point x="472" y="-517"/>
      <point x="459" y="-519"/>
      <point x="442" y="-519" type="curve" smooth="yes"/>
      <point x="422" y="-519"/>
      <point x="399" y="-516"/>
      <point x="373" y="-510" type="curve"/>
      <point x="371" y="-509" type="line"/>
      <point x="341" y="-611" type="line"/>
      <point x="332" y="-615"/>
      <point x="328" y="-621"/>
      <point x="328" y="-629" type="curve" smooth="yes"/>
      <point x="328" y="-637"/>
      <point x="333" y="-643"/>
      <point x="341" y="-643" type="curve" smooth="yes"/>
      <point x="351" y="-643"/>
      <point x="359" y="-636"/>
      <point x="361" y="-624" type="curve"/>
      <point x="376" y="-618"/>
      <point x="380" y="-616"/>
      <point x="387" y="-616" type="curve" smooth="yes"/>
      <point x="406" y="-616"/>
      <point x="417" y="-630"/>
      <point x="417" y="-655" type="curve" smooth="yes"/>
      <point x="417" y="-693"/>
      <point x="395" y="-722"/>
      <point x="368" y="-722" type="curve" smooth="yes"/>
      <point x="355" y="-722"/>
      <point x="345" y="-716"/>
      <point x="345" y="-711" type="curve"/>
      <point x="345" y="-711"/>
      <point x="346" y="-710"/>
      <point x="347" y="-710" type="curve"/>
      <point x="360" y="-706"/>
      <point x="367" y="-696"/>
      <point x="367" y="-683" type="curve" smooth="yes"/>
      <point x="367" y="-667"/>
      <point x="356" y="-656"/>
      <point x="339" y="-656" type="curve" smooth="yes"/>
      <point x="320" y="-656"/>
      <point x="307" y="-670"/>
      <point x="307" y="-691" type="curve" smooth="yes"/>
      <point x="307" y="-723"/>
      <point x="334" y="-744"/>
      <point x="375" y="-744" type="curve" smooth="yes"/>
      <point x="429" y="-744"/>
      <point x="474" y="-706"/>
      <point x="474" y="-651" type="curve" smooth="yes"/>
      <point x="474" y="-611"/>
      <point x="446" y="-591"/>
      <point x="408" y="-591" type="curve" smooth="yes"/>
      <point x="395" y="-591"/>
      <point x="384" y="-593"/>
      <point x="370" y="-598" type="curve"/>
      <point x="379" y="-564" type="line"/>
      <point x="402" y="-569"/>
      <point x="403" y="-569"/>
      <point x="417" y="-569" type="curve" smooth="yes"/>
      <point x="443" y="-569"/>
      <point x="461" y="-563"/>
      <point x="475" y="-551" type="curve" smooth="yes"/>
      <point x="485" y="-542"/>
      <point x="494" y="-526"/>
      <point x="494" y="-515" type="curve" smooth="yes"/>
      <point x="494" y="-511"/>
      <point x="492" y="-510"/>
      <point x="490" y="-510" type="curve" smooth="yes"/>
    </contour>
  </outline>
</glyph>
<glyph name="fClef8vb" format="2">
  <advance width="663"/>
  <unicode hex="E064"/>
  <outline>
    <contour>
      <point x="242" y="-640" type="curve"/>
      <point x="246" y="-642"/>
      <point x="247" y="-642"/>
      <point x="250" y="-644" type="curve" smooth="yes"/>
      <point x="262" y="-650"/>
      <point x="262" y="-651"/>
      <point x="264" y="-652" type="curve" smooth="yes"/>
      <point x="283" y="-663"/>
      <point x="291" y="-673"/>
      <point x="291" y="-687" type="curve" smooth="yes"/>
      <point x="291" y="-706"/>
      <point x="274" y="-721"/>
      <point x="252" y="-721" type="curve" smooth="yes"/>
      <point x="230" y="-721"/>
      <point x="216" y="-707"/>
      <point x="216" y="-686" type="curve" smooth="yes"/>
      <point x="216" y="-667"/>
      <point x="225" y="-650"/>
    </contour>
    <contour>
      <point x="267" y="-588" type="line" smooth="yes"/>
      <point x="251" y="-579"/>
      <point x="247" y="-573" name=".hr01"/>
      <point x="247" y="-560" type="curve" smooth="yes"/>
      <point x="247" y="-542"/>
      <point x="260" y="-529"/>
      <point x="280" y="-529" type="curve" smooth="yes"/>
      <point x="300" y="-529"/>
      <point x="311" y="-541"/>
      <point x="311" y="-562" type="curve" smooth="yes"/>
      <point x="311" y="-578"/>
      <point x="306" y="-589"/>
      <point x="290" y="-601" type="curve"/>
      <point x="276" y="-594"/>
      <point x="272" y="-591"/>
      <point x="268" y="-589" type="curve" smooth="yes"/>
    </contour>
    <contour>
      <point x="568" y="124" type="curve" smooth="yes"/>
      <point x="568" y="96"/>
      <point x="590" y="74"/>
      <point x="616" y="74" type="curve" smooth="yes"/>
      <point x="642" y="74"/>
      <point x="664" y="96"/>
      <point x="664" y="124" type="curve" smooth="yes"/>
      <point x="664" y="152"/>
      <point x="642" y="175"/>
      <point x="616" y="175" type="curve" smooth="yes"/>
      <point x="590" y="175"/>
      <point x="568" y="152"/>
    </contour>
    <contour>
      <point x="254" y="251" type="curve" smooth="yes"/>
      <point x="178" y="251"/>
      <point x="117" y="207"/>
      <point x="116" y="207" type="curve"/>
      <point x="57" y="164"/>
      <point x="19" y="98"/>
      <point x="19" y="25" type="curve" smooth="yes"/>
      <point x="19" y="-50"/>
      <point x="62" y="-102"/>
      <point x="137" y="-102" type="curve" smooth="yes" name=".hr02"/>
      <point x="201" y="-102"/>
      <point x="249" y="-60"/>
      <point x="249" y="7" type="curve" smooth="yes"/>
      <point x="249" y="64"/>
      <point x="199" y="111"/>
      <point x="143" y="111" type="curve" smooth="yes"/>
      <point x="131" y="111"/>
      <point x="120" y="109"/>
      <point x="111" y="106" type="curve" smooth="yes"/>
      <point x="101" y="102"/>
      <point x="84" y="92"/>
      <point x="76" y="85" type="curve"/>
      <point x="83" y="129"/>
      <point x="113" y="173"/>
      <point x="152" y="194" type="curve" smooth="yes"/>
      <point x="177" y="208"/>
      <point x="209" y="214"/>
      <point x="244" y="214" type="curve" smooth="yes"/>
      <point x="346" y="214"/>
      <point x="396" y="132"/>
      <point x="396" y="-36" type="curve" smooth="yes"/>
      <point x="396" y="-166"/>
      <point x="313" y="-353"/>
      <point x="215" y="-441" type="curve" smooth="yes"/>
      <point x="111" y="-536"/>
      <point x="13" y="-581"/>
      <point x="12" y="-581" type="curve"/>
      <point x="12" y="-581"/>
      <point x="0" y="-588"/>
      <point x="0" y="-600" type="curve" smooth="yes"/>
      <point x="0" y="-602"/>
      <point x="1" y="-603"/>
      <point x="1" y="-605" type="curve"/>
      <point x="4" y="-615"/>
      <point x="13" y="-617"/>
      <point x="19" y="-617" type="curve"/>
      <point x="20" y="-617"/>
      <point x="23" y="-616"/>
      <point x="24" y="-616" type="curve"/>
      <point x="25" y="-616"/>
      <point x="139" y="-568"/>
      <point x="230" y="-497" type="curve"/>
      <point x="372" y="-394"/>
      <point x="528" y="-222"/>
      <point x="528" y="-35" type="curve" smooth="yes"/>
      <point x="528" y="139"/>
      <point x="434" y="251"/>
    </contour>
    <contour>
      <point x="568" y="-123" type="curve" smooth="yes"/>
      <point x="568" y="-151"/>
      <point x="590" y="-174"/>
      <point x="616" y="-174" type="curve" smooth="yes"/>
      <point x="642" y="-174" name=".hr03"/>
      <point x="664" y="-151"/>
      <point x="664" y="-123" type="curve" smooth="yes"/>
      <point x="664" y="-95"/>
      <point x="642" y="-72"/>
      <point x="616" y="-72" type="curve" smooth="yes"/>
      <point x="590" y="-72"/>
      <point x="568" y="-95"/>
    </contour>
    <contour>
      <point x="352" y="-560" type="line"/>
      <point x="352" y="-524"/>
      <point x="316" y="-508"/>
      <point x="285" y="-508" type="curve" smooth="yes"/>
      <point x="243" y="-508"/>
      <point x="203" y="-533"/>
      <point x="203" y="-579" type="curve" smooth="yes"/>
      <point x="203" y="-598"/>
      <point x="209" y="-612"/>
      <point x="224" y="-626" type="curve"/>
      <point x="197" y="-638"/>
      <point x="172" y="-653"/>
      <point x="172" y="-687" type="curve" smooth="yes"/>
      <point x="172" y="-720"/>
      <point x="202" y="-742" name=".hr04"/>
      <point x="246" y="-742" type="curve" smooth="yes"/>
      <point x="300" y="-742"/>
      <point x="338" y="-712"/>
      <point x="338" y="-669" type="curve" smooth="yes"/>
      <point x="338" y="-647"/>
      <point x="327" y="-627"/>
      <point x="309" y="-614" type="curve"/>
      <point x="338" y="-602"/>
      <point x="352" y="-585"/>
      <point x="352" y="-561" type="curve"/>
    </contour>
  </outline>
</glyph>
<glyph name="fClef8va" format="2">
  <advance width="664"/>
  <unicode hex="E065"/>
  <outline>
    <contour>
      <point x="260" y="347" type="line" smooth="yes"/>
      <point x="272" y="341"/>
      <point x="272" y="341"/>
      <point x="275" y="339" type="curve" smooth="yes"/>
      <point x="295" y="328"/>
      <point x="303" y="317"/>
      <point x="303" y="302" type="curve" smooth="yes"/>
      <point x="303" y="282"/>
      <point x="286" y="267"/>
      <point x="263" y="267" type="curve" smooth="yes"/>
      <point x="240" y="267"/>
      <point x="225" y="282"/>
      <point x="225" y="304" type="curve" smooth="yes"/>
      <point x="225" y="324"/>
      <point x="235" y="340"/>
      <point x="252" y="351" type="curve"/>
    </contour>
    <contour>
      <point x="278" y="404" type="line"/>
      <point x="262" y="414" name=".hr01"/>
      <point x="257" y="421"/>
      <point x="257" y="434" type="curve" smooth="yes"/>
      <point x="257" y="453"/>
      <point x="272" y="466"/>
      <point x="292" y="466" type="curve" smooth="yes"/>
      <point x="313" y="466"/>
      <point x="325" y="454"/>
      <point x="325" y="432" type="curve" smooth="yes"/>
      <point x="325" y="415"/>
      <point x="318" y="403"/>
      <point x="302" y="391" type="curve"/>
      <point x="287" y="399"/>
      <point x="284" y="402"/>
      <point x="280" y="404" type="curve"/>
    </contour>
    <contour>
      <point x="282" y="248" type="curve"/>
      <point x="324" y="256" name=".hr02"/>
      <point x="351" y="284"/>
      <point x="351" y="321" type="curve" smooth="yes"/>
      <point x="351" y="344"/>
      <point x="341" y="364"/>
      <point x="322" y="378" type="curve"/>
      <point x="352" y="390" name=".hr03"/>
      <point x="366" y="408"/>
      <point x="366" y="433" type="curve"/>
      <point x="366" y="434" type="line"/>
      <point x="366" y="447"/>
      <point x="358" y="465"/>
      <point x="347" y="473" type="curve" smooth="yes"/>
      <point x="335" y="483"/>
      <point x="317" y="488"/>
      <point x="297" y="488" type="curve" smooth="yes"/>
      <point x="253" y="488"/>
      <point x="212" y="461"/>
      <point x="212" y="414" type="curve" smooth="yes"/>
      <point x="212" y="395"/>
      <point x="218" y="381"/>
      <point x="234" y="366" type="curve"/>
      <point x="207" y="355" name=".hr04"/>
      <point x="180" y="334"/>
      <point x="180" y="302" type="curve" smooth="yes"/>
      <point x="180" y="275"/>
      <point x="201" y="255"/>
      <point x="233" y="248" type="curve"/>
      <point x="166" y="242"/>
      <point x="116" y="206"/>
      <point x="116" y="206" type="curve"/>
      <point x="45" y="153" name=".hr05"/>
      <point x="19" y="84"/>
      <point x="19" y="26" type="curve" smooth="yes"/>
      <point x="19" y="-44"/>
      <point x="57" y="-102"/>
      <point x="134" y="-102" type="curve" smooth="yes"/>
      <point x="196" y="-102"/>
      <point x="248" y="-57"/>
      <point x="248" y="7" type="curve" smooth="yes"/>
      <point x="248" y="63"/>
      <point x="198" y="110"/>
      <point x="143" y="110" type="curve" smooth="yes"/>
      <point x="102" y="110"/>
      <point x="74" y="82"/>
      <point x="74" y="82" type="curve"/>
      <point x="74" y="82"/>
      <point x="88" y="215"/>
      <point x="243" y="215" type="curve" smooth="yes"/>
      <point x="348" y="215"/>
      <point x="396" y="130"/>
      <point x="396" y="-36" type="curve" smooth="yes"/>
      <point x="396" y="-202"/>
      <point x="283" y="-379"/>
      <point x="214" y="-442" type="curve" smooth="yes"/>
      <point x="108" y="-538"/>
      <point x="11" y="-582"/>
      <point x="11" y="-582" type="curve"/>
      <point x="11" y="-582"/>
      <point x="0" y="-589"/>
      <point x="0" y="-600" type="curve" smooth="yes"/>
      <point x="0" y="-602"/>
      <point x="1" y="-603"/>
      <point x="1" y="-605" type="curve"/>
      <point x="4" y="-616"/>
      <point x="14" y="-616"/>
      <point x="23" y="-616" type="curve"/>
      <point x="23" y="-616"/>
      <point x="136" y="-569"/>
      <point x="228" y="-497" type="curve"/>
      <point x="443" y="-344"/>
      <point x="526" y="-158"/>
      <point x="526" y="-36" type="curve" smooth="yes"/>
      <point x="526" y="111"/>
      <point x="458" y="236"/>
    </contour>
    <contour>
      <point x="569" y="124" type="curve" smooth="yes"/>
      <point x="569" y="96"/>
      <point x="591" y="74" name=".hr06"/>
      <point x="617" y="74" type="curve" smooth="yes"/>
      <point x="643" y="74"/>
      <point x="665" y="96"/>
      <point x="665" y="124" type="curve" smooth="yes"/>
      <point x="665" y="152"/>
      <point x="643" y="175"/>
      <point x="617" y="175" type="curve" smooth="yes"/>
      <point x="591" y="175"/>
      <point x="569" y="152"/>
    </contour>
    <contour>
      <point x="569" y="-123" type="curve" smooth="yes"/>
      <point x="569" y="-151"/>
      <point x="591" y="-174"/>
      <point x="617" y="-174" type="curve" smooth="yes"/>
      <point x="643" y="-174"/>
      <point x="665" y="-151"/>
      <point x="665" y="-123" type="curve" smooth="yes"/>
      <point x="665" y="-95"/>
      <point x="643" y="-72"/>
      <point x="617" y="-72" type="curve" smooth="yes"/>
      <point x="591" y="-72"/>
      <point x="569" y="-95"/>
    </contour>
  </outline>
</glyph>
<glyph name="fClef15ma" format="2">
  <advance width="664"/>
  <unicode hex="E066"/>
  <outline>
    <contour>
      <point x="569" y="124" type="curve" smooth="yes"/>
      <point x="569" y="96"/>
      <point x="591" y="74"/>
      <point x="617" y="74" type="curve" smooth="yes"/>
      <point x="643" y="74"/>
      <point x="665" y="96"/>
      <point x="665" y="124" type="curve" smooth="yes"/>
      <point x="665" y="152"/>
      <point x="643" y="175"/>
      <point x="617" y="175" type="curve" smooth="yes"/>
      <point x="591" y="175"/>
      <point x="569" y="152"/>
    </contour>
    <contour>
      <point x="225" y="278" type="line" smooth="yes"/>
      <point x="203" y="278"/>
      <point x="202" y="280"/>
      <point x="202" y="284" type="curve" smooth="yes"/>
      <point x="202" y="287"/>
      <point x="203" y="293"/>
      <point x="206" y="304" type="curve" smooth="yes"/>
      <point x="256" y="492" type="line"/>
      <point x="238" y="492" type="line"/>
      <point x="224" y="481"/>
      <point x="181" y="470"/>
      <point x="149" y="469" type="curve"/>
      <point x="147" y="469" type="line"/>
      <point x="141" y="447" type="line"/>
      <point x="174" y="447" type="line" smooth="yes"/>
      <point x="186" y="447"/>
      <point x="186" y="444"/>
      <point x="186" y="441" type="curve" smooth="yes"/>
      <point x="186" y="438"/>
      <point x="185" y="432"/>
      <point x="184" y="429" type="curve"/>
      <point x="151" y="306" type="line"/>
      <point x="148" y="296"/>
      <point x="147" y="290"/>
      <point x="147" y="289" type="curve"/>
      <point x="146" y="284"/>
      <point x="144" y="283"/>
      <point x="143" y="282" type="curve"/>
      <point x="141" y="279"/>
      <point x="132" y="278"/>
      <point x="120" y="278" type="curve" smooth="yes"/>
      <point x="101" y="278" type="line"/>
      <point x="97" y="255" type="line"/>
      <point x="241" y="255" type="line"/>
      <point x="245" y="278" type="line"/>
    </contour>
    <contour>
      <point x="292" y="285" type="line"/>
      <point x="306" y="290"/>
      <point x="314" y="299"/>
      <point x="314" y="313" type="curve" smooth="yes"/>
      <point x="314" y="329"/>
      <point x="302" y="340"/>
      <point x="285" y="340" type="curve" smooth="yes"/>
      <point x="265" y="340"/>
      <point x="252" y="325"/>
      <point x="252" y="304" type="curve" smooth="yes"/>
      <point x="252" y="271"/>
      <point x="279" y="250"/>
      <point x="322" y="250" type="curve" smooth="yes"/>
      <point x="377" y="250"/>
      <point x="425" y="288"/>
      <point x="425" y="346" type="curve" smooth="yes"/>
      <point x="425" y="386"/>
      <point x="394" y="408"/>
      <point x="356" y="408" type="curve" smooth="yes"/>
      <point x="343" y="408"/>
      <point x="331" y="406"/>
      <point x="316" y="401" type="curve"/>
      <point x="326" y="436" type="line"/>
      <point x="350" y="431"/>
      <point x="350" y="431"/>
      <point x="365" y="431" type="curve" smooth="yes"/>
      <point x="392" y="431"/>
      <point x="411" y="437"/>
      <point x="425" y="449" type="curve" smooth="yes"/>
      <point x="436" y="458"/>
      <point x="445" y="475"/>
      <point x="445" y="486" type="curve" smooth="yes"/>
      <point x="445" y="490"/>
      <point x="443" y="492"/>
      <point x="441" y="492" type="curve"/>
      <point x="440" y="492"/>
      <point x="439" y="491"/>
      <point x="438" y="491" type="curve"/>
      <point x="436" y="491" type="line"/>
      <point x="422" y="485"/>
      <point x="408" y="482"/>
      <point x="391" y="482" type="curve" smooth="yes"/>
      <point x="370" y="482"/>
      <point x="347" y="486"/>
      <point x="320" y="492" type="curve"/>
      <point x="317" y="492" type="line"/>
      <point x="287" y="387" type="line"/>
      <point x="278" y="383"/>
      <point x="273" y="376"/>
      <point x="273" y="368" type="curve" smooth="yes"/>
      <point x="273" y="360"/>
      <point x="279" y="354"/>
      <point x="287" y="354" type="curve" smooth="yes"/>
      <point x="298" y="354"/>
      <point x="305" y="361"/>
      <point x="307" y="374" type="curve"/>
      <point x="322" y="381"/>
      <point x="327" y="382"/>
      <point x="335" y="382" type="curve" smooth="yes"/>
      <point x="354" y="382"/>
      <point x="365" y="367"/>
      <point x="365" y="342" type="curve" smooth="yes"/>
      <point x="365" y="303"/>
      <point x="343" y="272"/>
      <point x="315" y="272" type="curve" smooth="yes"/>
      <point x="301" y="272"/>
      <point x="290" y="278"/>
      <point x="290" y="283" type="curve"/>
      <point x="290" y="284" type="line"/>
    </contour>
    <contour>
      <point x="252" y="249" type="curve" smooth="yes"/>
      <point x="175" y="249"/>
      <point x="115" y="206"/>
      <point x="115" y="206" type="curve"/>
      <point x="44" y="153"/>
      <point x="18" y="84"/>
      <point x="18" y="26" type="curve" smooth="yes"/>
      <point x="18" y="-45"/>
      <point x="57" y="-102"/>
      <point x="134" y="-102" type="curve" smooth="yes"/>
      <point x="196" y="-102"/>
      <point x="247" y="-58"/>
      <point x="247" y="6" type="curve" smooth="yes"/>
      <point x="247" y="62"/>
      <point x="198" y="110"/>
      <point x="142" y="110" type="curve" smooth="yes"/>
      <point x="101" y="110"/>
      <point x="74" y="82"/>
      <point x="74" y="82" type="curve"/>
      <point x="74" y="82"/>
      <point x="87" y="215"/>
      <point x="242" y="215" type="curve" smooth="yes"/>
      <point x="347" y="215"/>
      <point x="395" y="130"/>
      <point x="395" y="-36" type="curve" smooth="yes"/>
      <point x="395" y="-202"/>
      <point x="283" y="-379"/>
      <point x="214" y="-442" type="curve" smooth="yes"/>
      <point x="108" y="-538"/>
      <point x="11" y="-582"/>
      <point x="11" y="-582" type="curve"/>
      <point x="11" y="-582"/>
      <point x="0" y="-589"/>
      <point x="0" y="-600" type="curve" smooth="yes"/>
      <point x="0" y="-602"/>
      <point x="1" y="-603"/>
      <point x="1" y="-605" type="curve"/>
      <point x="4" y="-616"/>
      <point x="13" y="-616"/>
      <point x="22" y="-616" type="curve"/>
      <point x="22" y="-616"/>
      <point x="136" y="-569"/>
      <point x="228" y="-497" type="curve"/>
      <point x="443" y="-344"/>
      <point x="525" y="-158"/>
      <point x="525" y="-36" type="curve" smooth="yes"/>
      <point x="525" y="118"/>
      <point x="450" y="249"/>
    </contour>
    <contour>
      <point x="569" y="-123" type="curve" smooth="yes"/>
      <point x="569" y="-151"/>
      <point x="591" y="-174"/>
      <point x="617" y="-174" type="curve" smooth="yes"/>
      <point x="643" y="-174"/>
      <point x="665" y="-151"/>
      <point x="665" y="-123" type="curve" smooth="yes"/>
      <point x="665" y="-95"/>
      <point x="643" y="-72"/>
      <point x="617" y="-72" type="curve" smooth="yes"/>
      <point x="591" y="-72"/>
      <point x="569" y="-95"/>
    </contour>
  </outline>
</glyph>
<glyph name="unpitchedPercussionClef1" format="2">
  <advance width="352"/>
  <unicode hex="E069"/>
  <outline>
    <contour>
      <point x="13" y="252" type="line" smooth="yes"/>
      <point x="6" y="252"/>
      <point x="0" y="246"/>
      <point x="0" y="239" type="curve" smooth="yes"/>
      <point x="0" y="-239" type="line" smooth="yes"/>
      <point x="0" y="-246"/>
      <point x="6" y="-252"/>
      <point x="13" y="-252" type="curve" smooth="yes"/>
      <point x="123" y="-252" type="line" smooth="yes"/>
      <point x="130" y="-252"/>
      <point x="136" y="-246"/>
      <point x="136" y="-239" type="curve" smooth="yes"/>
      <point x="136" y="239" type="line" smooth="yes"/>
      <point x="136" y="246"/>
      <point x="130" y="252"/>
      <point x="123" y="252" type="curve" smooth="yes"/>
    </contour>
    <contour>
      <point x="229" y="252" type="line" smooth="yes"/>
      <point x="222" y="252"/>
      <point x="216" y="246"/>
      <point x="216" y="239" type="curve" smooth="yes"/>
      <point x="216" y="-239" type="line" smooth="yes"/>
      <point x="216" y="-246"/>
      <point x="222" y="-252"/>
      <point x="229" y="-252" type="curve" smooth="yes"/>
      <point x="339" y="-252" type="line" smooth="yes"/>
      <point x="346" y="-252"/>
      <point x="352" y="-246"/>
      <point x="352" y="-239" type="curve" smooth="yes"/>
      <point x="352" y="239" type="line" smooth="yes"/>
      <point x="352" y="246"/>
      <point x="346" y="252"/>
      <point x="339" y="252" type="curve" smooth="yes"/>
    </contour>
  </outline>
</glyph>
<glyph name="unpitchedPercussionClef2" format="2">
  <advance width="304"/>
  <unicode hex="E06A"/>
  <outline>
    <contour>
      <point x="304" y="-422" type="curve" smooth="yes"/>
      <point x="304" y="423" type="line" smooth="yes"/>
      <point x="304" y="431"/>
      <point x="297" y="439"/>
      <point x="288" y="439" type="curve" smooth="yes"/>
      <point x="16" y="439" type="line" smooth="yes"/>
      <point x="7" y="439"/>
      <point x="0" y="431"/>
      <point x="0" y="423" type="curve" smooth="yes"/>
      <point x="0" y="-422" type="line" smooth="yes"/>
      <point x="0" y="-431"/>
      <point x="7" y="-438"/>
      <point x="16" y="-438" type="curve" smooth="yes"/>
      <point x="288" y="-438" type="line" smooth="yes"/>
      <point x="297" y="-438"/>
      <point x="304" y="-431"/>
    </contour>
    <contour>
      <point x="40" y="335" type="line" smooth="yes"/>
      <point x="40" y="340"/>
      <point x="44" y="345"/>
      <point x="50" y="345" type="curve" smooth="yes"/>
      <point x="254" y="345" type="line" smooth="yes"/>
      <point x="260" y="345"/>
      <point x="264" y="340"/>
      <point x="264" y="335" type="curve" smooth="yes"/>
      <point x="264" y="-334" type="line" smooth="yes"/>
      <point x="264" y="-340"/>
      <point x="259" y="-344"/>
      <point x="254" y="-344" type="curve" smooth="yes"/>
      <point x="50" y="-344" type="line" smooth="yes"/>
      <point x="44" y="-344"/>
      <point x="40" y="-340"/>
      <point x="40" y="-334" type="curve" smooth="yes"/>
    </contour>
  </outline>
</glyph>
<glyph name="_6stringTabClef" format="2">
  <advance width="439"/>
  <unicode hex="E06D"/>
  <outline>
    <contour>
      <point x="219" y="126" type="line"/>
      <point x="278" y="-56" type="line"/>
      <point x="159" y="-56" type="line"/>
    </contour>
    <contour>
      <point x="242" y="-360" type="line" smooth="yes"/>
      <point x="280" y="-360"/>
      <point x="322" y="-361"/>
      <point x="322" y="-410" type="curve" smooth="yes"/>
      <point x="322" y="-452"/>
      <point x="291" y="-462"/>
      <point x="254" y="-462" type="curve" smooth="yes"/>
      <point x="141" y="-462" type="line"/>
      <point x="141" y="-360" type="line"/>
    </contour>
    <contour>
      <point x="255" y="-539" type="line" smooth="yes"/>
      <point x="294" y="-539"/>
      <point x="331" y="-549"/>
      <point x="331" y="-596" type="curve" smooth="yes"/>
      <point x="331" y="-648"/>
      <point x="300" y="-662"/>
      <point x="254" y="-662" type="curve" smooth="yes"/>
      <point x="141" y="-662" type="line"/>
      <point x="141" y="-539" type="line"/>
    </contour>
    <contour>
      <point x="0" y="-231" type="line"/>
      <point x="101" y="-231" type="line"/>
      <point x="133" y="-136" type="line"/>
      <point x="303" y="-136" type="line"/>
      <point x="334" y="-231" type="line"/>
      <point x="439" y="-231" type="line"/>
      <point x="275" y="232" type="line"/>
      <point x="165" y="232" type="line"/>
    </contour>
    <contour>
      <point x="36" y="746" type="line"/>
      <point x="36" y="665" type="line"/>
      <point x="173" y="665" type="line"/>
      <point x="173" y="291" type="line"/>
      <point x="269" y="291" type="line"/>
      <point x="269" y="665" type="line"/>
      <point x="405" y="665" type="line"/>
      <point x="405" y="746" type="line"/>
    </contour>
    <contour>
      <point x="273" y="-279" type="curve"/>
      <point x="49" y="-279" type="line"/>
      <point x="49" y="-743" type="line"/>
      <point x="260" y="-743" type="line" smooth="yes"/>
      <point x="323" y="-743"/>
      <point x="373" y="-731"/>
      <point x="408" y="-677" type="curve" smooth="yes"/>
      <point x="422" y="-655"/>
      <point x="429" y="-630"/>
      <point x="429" y="-603" type="curve" smooth="yes"/>
      <point x="429" y="-551"/>
      <point x="407" y="-513"/>
      <point x="357" y="-494" type="curve"/>
      <point x="398" y="-474"/>
      <point x="414" y="-447"/>
      <point x="414" y="-400" type="curve" smooth="yes"/>
      <point x="414" y="-316"/>
      <point x="352" y="-280"/>
    </contour>
  </outline>
</glyph>
<glyph name="gClefChange" format="2">
  <advance width="480"/>
  <unicode hex="E07A"/>
  <outline>
    <contour>
      <point x="315" y="-150" type="line"/>
      <point x="300" y="-153"/>
      <point x="286" y="-155"/>
      <point x="271" y="-155" type="curve" smooth="yes"/>
      <point x="164" y="-155"/>
      <point x="73" y="-80"/>
      <point x="73" y="33" type="curve" smooth="yes"/>
      <point x="73" y="124"/>
      <point x="137" y="206"/>
      <point x="203" y="264" type="curve" smooth="yes"/>
      <point x="216" y="275"/>
      <point x="228" y="285"/>
      <point x="239" y="296" type="curve"/>
      <point x="246" y="256"/>
      <point x="251" y="221"/>
      <point x="256" y="190" type="curve"/>
      <point x="188" y="170"/>
      <point x="142" y="97"/>
      <point x="142" y="28" type="curve" smooth="yes"/>
      <point x="142" y="-26"/>
      <point x="183" y="-97"/>
      <point x="243" y="-97" type="curve" smooth="yes"/>
      <point x="249" y="-97"/>
      <point x="255" y="-95"/>
      <point x="255" y="-87" type="curve" smooth="yes"/>
      <point x="255" y="-81"/>
      <point x="248" y="-77"/>
      <point x="239" y="-71" type="curve"/>
      <point x="210" y="-53"/>
      <point x="194" y="-33"/>
      <point x="194" y="3" type="curve" smooth="yes"/>
      <point x="194" y="49"/>
      <point x="228" y="85"/>
      <point x="272" y="96" type="curve"/>
    </contour>
    <contour>
      <point x="249" y="620" type="curve"/>
      <point x="256" y="651"/>
      <point x="290" y="729"/>
      <point x="329" y="729" type="curve" smooth="yes"/>
      <point x="340" y="729"/>
      <point x="359" y="693"/>
      <point x="359" y="641" type="curve" smooth="yes"/>
      <point x="359" y="563"/>
      <point x="300" y="505"/>
      <point x="249" y="453" type="curve"/>
      <point x="244" y="483"/>
      <point x="241" y="513"/>
      <point x="241" y="544" type="curve" smooth="yes"/>
      <point x="241" y="572"/>
      <point x="243" y="597"/>
    </contour>
    <contour>
      <point x="422" y="-11" type="curve" smooth="yes"/>
      <point x="422" y="-65"/>
      <point x="399" y="-120"/>
      <point x="346" y="-141" type="curve"/>
      <point x="331" y="-52"/>
      <point x="310" y="67"/>
      <point x="305" y="101" type="curve"/>
      <point x="372" y="101"/>
      <point x="422" y="55"/>
    </contour>
    <contour>
      <point x="92" y="-381" type="curve" smooth="yes"/>
      <point x="92" y="-430"/>
      <point x="130" y="-496"/>
      <point x="231" y="-496" type="curve" smooth="yes"/>
      <point x="328" y="-496"/>
      <point x="375" y="-441"/>
      <point x="375" y="-345" type="curve" smooth="yes"/>
      <point x="375" y="-316"/>
      <point x="370" y="-282"/>
      <point x="363" y="-239" type="curve"/>
      <point x="360" y="-224"/>
      <point x="357" y="-201"/>
      <point x="352" y="-173" type="curve"/>
      <point x="425" y="-148"/>
      <point x="480" y="-72"/>
      <point x="480" y="6" type="curve" smooth="yes"/>
      <point x="480" y="118"/>
      <point x="400" y="195"/>
      <point x="290" y="195" type="curve"/>
      <point x="283" y="240"/>
      <point x="275" y="285"/>
      <point x="269" y="326" type="curve"/>
      <point x="348" y="410"/>
      <point x="403" y="504"/>
      <point x="403" y="623" type="curve" smooth="yes"/>
      <point x="403" y="691"/>
      <point x="382" y="746"/>
      <point x="370" y="773" type="curve" smooth="yes"/>
      <point x="352" y="811"/>
      <point x="330" y="838"/>
      <point x="317" y="838" type="curve" smooth="yes"/>
      <point x="311" y="838"/>
      <point x="288" y="829"/>
      <point x="263" y="800" type="curve" smooth="yes"/>
      <point x="215" y="742"/>
      <point x="201" y="647"/>
      <point x="201" y="584" type="curve" smooth="yes"/>
      <point x="201" y="544"/>
      <point x="205" y="507"/>
      <point x="218" y="423" type="curve"/>
      <point x="217" y="422"/>
      <point x="178" y="382"/>
      <point x="162" y="369" type="curve"/>
      <point x="94" y="306"/>
      <point x="0" y="215"/>
      <point x="0" y="65" type="curve" smooth="yes"/>
      <point x="0" y="-76"/>
      <point x="122" y="-186"/>
      <point x="262" y="-186" type="curve" smooth="yes"/>
      <point x="283" y="-186"/>
      <point x="303" y="-184"/>
      <point x="321" y="-180" type="curve"/>
      <point x="335" y="-252"/>
      <point x="344" y="-305"/>
      <point x="344" y="-345" type="curve" smooth="yes"/>
      <point x="344" y="-423"/>
      <point x="304" y="-464"/>
      <point x="228" y="-464" type="curve" smooth="yes"/>
      <point x="224" y="-464"/>
      <point x="191" y="-462"/>
      <point x="191" y="-458" type="curve" smooth="yes"/>
      <point x="191" y="-456"/>
      <point x="192" y="-456"/>
      <point x="194" y="-455" type="curve"/>
      <point x="229" y="-450"/>
      <point x="264" y="-420"/>
      <point x="264" y="-372" type="curve" smooth="yes"/>
      <point x="264" y="-331"/>
      <point x="234" y="-288"/>
      <point x="178" y="-288" type="curve" smooth="yes"/>
      <point x="125" y="-288"/>
      <point x="92" y="-332"/>
    </contour>
  </outline>
</glyph>
<glyph name="cClefChange" format="2">
  <advance width="471"/>
  <unicode hex="E07B"/>
  <outline>
    <contour>
      <point x="10" y="355" type="line" smooth="yes"/>
      <point x="5" y="355"/>
      <point x="0" y="351"/>
      <point x="0" y="346" type="curve" smooth="yes"/>
      <point x="0" y="-337" type="line" smooth="yes"/>
      <point x="0" y="-342"/>
      <point x="5" y="-347"/>
      <point x="10" y="-347" type="curve" smooth="yes"/>
      <point x="64" y="-347" type="line" smooth="yes"/>
      <point x="69" y="-347"/>
      <point x="73" y="-342"/>
      <point x="73" y="-337" type="curve" smooth="yes"/>
      <point x="73" y="346" type="line" smooth="yes"/>
      <point x="73" y="351"/>
      <point x="69" y="355"/>
      <point x="64" y="355" type="curve" smooth="yes"/>
    </contour>
    <contour>
      <point x="471" y="-192" type="curve" smooth="yes"/>
      <point x="471" y="-101"/>
      <point x="422" y="-27"/>
      <point x="325" y="-27" type="curve" smooth="yes"/>
      <point x="312" y="-27"/>
      <point x="291" y="-29"/>
      <point x="263" y="-46" type="curve"/>
      <point x="261" y="-43"/>
      <point x="247" y="-13"/>
      <point x="222" y="4" type="curve"/>
      <point x="247" y="21"/>
      <point x="261" y="51"/>
      <point x="263" y="54" type="curve"/>
      <point x="287" y="39"/>
      <point x="306" y="35"/>
      <point x="334" y="35" type="curve" smooth="yes"/>
      <point x="426" y="35"/>
      <point x="471" y="120"/>
      <point x="471" y="201" type="curve" smooth="yes"/>
      <point x="471" y="306"/>
      <point x="394" y="365"/>
      <point x="303" y="365" type="curve" smooth="yes"/>
      <point x="220" y="365"/>
      <point x="189" y="328"/>
      <point x="185" y="324" type="curve"/>
      <point x="172" y="307"/>
      <point x="165" y="290"/>
      <point x="165" y="273" type="curve" smooth="yes"/>
      <point x="165" y="237"/>
      <point x="191" y="211"/>
      <point x="228" y="211" type="curve" smooth="yes"/>
      <point x="261" y="211"/>
      <point x="284" y="238"/>
      <point x="284" y="270" type="curve" smooth="yes"/>
      <point x="284" y="280"/>
      <point x="281" y="290"/>
      <point x="276" y="300" type="curve"/>
      <point x="264" y="321"/>
      <point x="243" y="324"/>
      <point x="221" y="324" type="curve"/>
      <point x="238" y="336"/>
      <point x="262" y="342"/>
      <point x="285" y="342" type="curve" smooth="yes"/>
      <point x="364" y="342"/>
      <point x="376" y="280"/>
      <point x="376" y="212" type="curve" smooth="yes"/>
      <point x="376" y="155"/>
      <point x="375" y="70"/>
      <point x="309" y="70" type="curve" smooth="yes"/>
      <point x="243" y="70"/>
      <point x="230" y="141"/>
      <point x="228" y="149" type="curve"/>
      <point x="228" y="150"/>
      <point x="228" y="160"/>
      <point x="217" y="160" type="curve" smooth="yes"/>
      <point x="206" y="160"/>
      <point x="206" y="150"/>
      <point x="206" y="149" type="curve"/>
      <point x="200" y="110"/>
      <point x="179" y="34"/>
      <point x="138" y="18" type="curve"/>
      <point x="138" y="346" type="line" smooth="yes"/>
      <point x="138" y="351"/>
      <point x="133" y="355"/>
      <point x="128" y="355" type="curve" smooth="yes"/>
      <point x="123" y="355"/>
      <point x="118" y="351"/>
      <point x="118" y="346" type="curve" smooth="yes"/>
      <point x="118" y="-337" type="line" smooth="yes"/>
      <point x="118" y="-342"/>
      <point x="123" y="-347"/>
      <point x="128" y="-347" type="curve" smooth="yes"/>
      <point x="133" y="-347"/>
      <point x="138" y="-342"/>
      <point x="138" y="-337" type="curve" smooth="yes"/>
      <point x="138" y="-10" type="line"/>
      <point x="151" y="-15"/>
      <point x="168" y="-28"/>
      <point x="180" y="-56" type="curve" smooth="yes"/>
      <point x="200" y="-102"/>
      <point x="205" y="-137"/>
      <point x="206" y="-141" type="curve"/>
      <point x="206" y="-142"/>
      <point x="206" y="-151"/>
      <point x="217" y="-151" type="curve" smooth="yes"/>
      <point x="228" y="-151"/>
      <point x="228" y="-142"/>
      <point x="228" y="-141" type="curve"/>
      <point x="230" y="-133"/>
      <point x="243" y="-62"/>
      <point x="309" y="-62" type="curve" smooth="yes"/>
      <point x="375" y="-62"/>
      <point x="376" y="-145"/>
      <point x="376" y="-203" type="curve" smooth="yes"/>
      <point x="376" y="-271"/>
      <point x="364" y="-333"/>
      <point x="285" y="-333" type="curve" smooth="yes"/>
      <point x="262" y="-333"/>
      <point x="238" y="-327"/>
      <point x="221" y="-315" type="curve"/>
      <point x="243" y="-315"/>
      <point x="264" y="-312"/>
      <point x="276" y="-291" type="curve"/>
      <point x="281" y="-281"/>
      <point x="284" y="-271"/>
      <point x="284" y="-261" type="curve" smooth="yes"/>
      <point x="284" y="-229"/>
      <point x="260" y="-203"/>
      <point x="228" y="-203" type="curve" smooth="yes"/>
      <point x="192" y="-203"/>
      <point x="165" y="-228"/>
      <point x="165" y="-264" type="curve" smooth="yes"/>
      <point x="165" y="-281"/>
      <point x="172" y="-298"/>
      <point x="185" y="-315" type="curve"/>
      <point x="189" y="-319"/>
      <point x="220" y="-357"/>
      <point x="303" y="-357" type="curve" smooth="yes"/>
      <point x="394" y="-357"/>
      <point x="471" y="-297"/>
    </contour>
  </outline>
</glyph>
<glyph name="clef8" format="2">
  <advance width="180"/>
  <unicode hex="E07D"/>
  <outline>
    <contour>
      <point x="137" y="128" type="curve"/>
      <point x="166" y="140"/>
      <point x="180" y="157"/>
      <point x="180" y="181" type="curve" smooth="yes"/>
      <point x="180" y="216"/>
      <point x="144" y="234"/>
      <point x="113" y="234" type="curve" smooth="yes"/>
      <point x="70" y="234"/>
      <point x="31" y="208"/>
      <point x="31" y="162" type="curve" smooth="yes"/>
      <point x="31" y="143"/>
      <point x="37" y="130"/>
      <point x="52" y="116" type="curve"/>
      <point x="25" y="104"/>
      <point x="0" y="88"/>
      <point x="0" y="54" type="curve" smooth="yes"/>
      <point x="0" y="21"/>
      <point x="29" y="0"/>
      <point x="73" y="0" type="curve" smooth="yes"/>
      <point x="127" y="0"/>
      <point x="165" y="30"/>
      <point x="165" y="73" type="curve" smooth="yes"/>
      <point x="165" y="95"/>
      <point x="155" y="115"/>
    </contour>
    <contour>
      <point x="95" y="153" type="line"/>
      <point x="79" y="162"/>
      <point x="74" y="169"/>
      <point x="74" y="182" type="curve" smooth="yes"/>
      <point x="74" y="200"/>
      <point x="88" y="213"/>
      <point x="108" y="213" type="curve" smooth="yes"/>
      <point x="128" y="213"/>
      <point x="139" y="201"/>
      <point x="139" y="180" type="curve" smooth="yes"/>
      <point x="139" y="164"/>
      <point x="134" y="153"/>
      <point x="118" y="141" type="curve"/>
      <point x="104" y="148"/>
      <point x="100" y="151"/>
      <point x="96" y="153" type="curve"/>
    </contour>
    <contour>
      <point x="69" y="101" type="curve"/>
      <point x="73" y="99"/>
      <point x="74" y="99"/>
      <point x="77" y="97" type="curve"/>
      <point x="89" y="91"/>
      <point x="90" y="91"/>
      <point x="92" y="90" type="curve"/>
      <point x="111" y="79"/>
      <point x="119" y="68"/>
      <point x="119" y="54" type="curve" smooth="yes"/>
      <point x="119" y="35"/>
      <point x="102" y="21"/>
      <point x="80" y="21" type="curve" smooth="yes"/>
      <point x="58" y="21"/>
      <point x="43" y="35"/>
      <point x="43" y="56" type="curve" smooth="yes"/>
      <point x="43" y="75"/>
      <point x="52" y="91"/>
    </contour>
  </outline>
</glyph>
<glyph name="clef15" format="2">
  <advance width="336"/>
  <unicode hex="E07E"/>
  <outline>
    <contour>
      <point x="101" y="28" type="curve" smooth="yes"/>
      <point x="101" y="31"/>
      <point x="102" y="37"/>
      <point x="105" y="48" type="curve" smooth="yes"/>
      <point x="154" y="230" type="line"/>
      <point x="136" y="230" type="line"/>
      <point x="136" y="229" type="line"/>
      <point x="122" y="219"/>
      <point x="81" y="208"/>
      <point x="50" y="207" type="curve"/>
      <point x="48" y="207" type="line"/>
      <point x="42" y="186" type="line"/>
      <point x="75" y="186" type="line" smooth="yes"/>
      <point x="86" y="186"/>
      <point x="86" y="183"/>
      <point x="86" y="180" type="curve" smooth="yes"/>
      <point x="86" y="177"/>
      <point x="85" y="172"/>
      <point x="84" y="169" type="curve" smooth="yes"/>
      <point x="52" y="49" type="line" smooth="yes"/>
      <point x="49" y="39"/>
      <point x="48" y="34"/>
      <point x="48" y="33" type="curve"/>
      <point x="47" y="28"/>
      <point x="45" y="27"/>
      <point x="44" y="26" type="curve" smooth="yes"/>
      <point x="42" y="23"/>
      <point x="34" y="23"/>
      <point x="22" y="23" type="curve" smooth="yes"/>
      <point x="3" y="23" type="line"/>
      <point x="0" y="0" type="line"/>
      <point x="139" y="0" type="line"/>
      <point x="142" y="23" type="line"/>
      <point x="123" y="23" type="line" smooth="yes"/>
      <point x="102" y="23"/>
      <point x="101" y="24"/>
    </contour>
    <contour>
      <point x="332" y="229" type="curve"/>
      <point x="331" y="229"/>
      <point x="330" y="228"/>
      <point x="329" y="228" type="curve"/>
      <point x="328" y="228" type="line"/>
      <point x="314" y="222"/>
      <point x="301" y="220" name=".hr01"/>
      <point x="284" y="220" type="curve" smooth="yes"/>
      <point x="264" y="220"/>
      <point x="241" y="223"/>
      <point x="215" y="229" type="curve" smooth="yes"/>
      <point x="213" y="230" type="line"/>
      <point x="183" y="127" type="line"/>
      <point x="174" y="123"/>
      <point x="170" y="118"/>
      <point x="170" y="110" type="curve" smooth="yes"/>
      <point x="170" y="102"/>
      <point x="175" y="96"/>
      <point x="183" y="96" type="curve" smooth="yes"/>
      <point x="193" y="96"/>
      <point x="201" y="103"/>
      <point x="203" y="115" type="curve"/>
      <point x="218" y="121"/>
      <point x="222" y="122"/>
      <point x="229" y="122" type="curve" smooth="yes"/>
      <point x="248" y="122"/>
      <point x="259" y="109"/>
      <point x="259" y="84" type="curve" smooth="yes"/>
      <point x="259" y="46"/>
      <point x="237" y="17"/>
      <point x="210" y="17" type="curve" smooth="yes"/>
      <point x="197" y="17"/>
      <point x="187" y="23"/>
      <point x="187" y="28" type="curve"/>
      <point x="189" y="29" type="line" smooth="yes"/>
      <point x="202" y="33"/>
      <point x="209" y="43"/>
      <point x="209" y="56" type="curve" smooth="yes"/>
      <point x="209" y="72"/>
      <point x="198" y="83"/>
      <point x="181" y="83" type="curve" smooth="yes"/>
      <point x="162" y="83"/>
      <point x="149" y="69"/>
      <point x="149" y="48" type="curve" smooth="yes"/>
      <point x="149" y="16"/>
      <point x="176" y="-5"/>
      <point x="217" y="-5" type="curve" smooth="yes"/>
      <point x="272" y="-5"/>
      <point x="316" y="31"/>
      <point x="316" y="88" type="curve" smooth="yes"/>
      <point x="316" y="128"/>
      <point x="288" y="148"/>
      <point x="250" y="148" type="curve" smooth="yes"/>
      <point x="237" y="148"/>
      <point x="226" y="146"/>
      <point x="212" y="141" type="curve"/>
      <point x="221" y="175" type="line"/>
      <point x="244" y="170"/>
      <point x="245" y="170"/>
      <point x="259" y="170" type="curve" smooth="yes"/>
      <point x="285" y="170"/>
      <point x="303" y="176"/>
      <point x="317" y="188" type="curve" smooth="yes"/>
      <point x="327" y="197"/>
      <point x="336" y="213"/>
      <point x="336" y="224" type="curve" smooth="yes"/>
      <point x="336" y="228"/>
      <point x="334" y="229"/>
    </contour>
  </outline>
</glyph>
<glyph name="timeSig0" format="2">
  <advance width="404"/>
  <unicode hex="E080"/>
  <outline>
    <contour>
      <point x="202" y="255" type="curve" smooth="yes"/>
      <point x="96" y="255"/>
      <point x="15" y="145"/>
      <point x="15" y="0" type="curve" smooth="yes"/>
      <point x="15" y="-145"/>
      <point x="96" y="-254"/>
      <point x="202" y="-254" type="curve" smooth="yes"/>
      <point x="308" y="-254"/>
      <point x="389" y="-145"/>
      <point x="389" y="0" type="curve" smooth="yes"/>
      <point x="389" y="145"/>
      <point x="308" y="255"/>
    </contour>
    <contour>
      <point x="261" y="-139" type="line" smooth="yes"/>
      <point x="261" y="-175"/>
      <point x="245" y="-214"/>
      <point x="202" y="-214" type="curve" smooth="yes"/>
      <point x="159" y="-214"/>
      <point x="143" y="-175"/>
      <point x="143" y="-139" type="curve" smooth="yes"/>
      <point x="143" y="139" type="line" smooth="yes"/>
      <point x="143" y="175"/>
      <point x="159" y="214"/>
      <point x="202" y="214" type="curve" smooth="yes"/>
      <point x="245" y="214"/>
      <point x="261" y="175"/>
      <point x="261" y="139" type="curve" smooth="yes"/>
    </contour>
  </outline>
</glyph>
<glyph name="timeSig1" format="2">
  <advance width="351"/>
  <unicode hex="E081"/>
  <outline>
    <contour>
      <point x="249" y="-197" type="line"/>
      <point x="249" y="233" type="line" smooth="yes"/>
      <point x="249" y="240"/>
      <point x="244" y="245"/>
      <point x="237" y="245" type="curve" smooth="yes"/>
      <point x="138" y="245" type="line" smooth="yes"/>
      <point x="136" y="245"/>
      <point x="134" y="244"/>
      <point x="132" y="243" type="curve" smooth="yes"/>
      <point x="128" y="239" type="line"/>
      <point x="16" y="45" type="line" smooth="yes"/>
      <point x="15" y="43"/>
      <point x="15" y="41"/>
      <point x="15" y="39" type="curve" smooth="yes"/>
      <point x="15" y="35"/>
      <point x="18" y="31"/>
      <point x="21" y="29" type="curve" smooth="yes"/>
      <point x="40" y="18" type="line" smooth="yes"/>
      <point x="42" y="17"/>
      <point x="44" y="16"/>
      <point x="46" y="16" type="curve" smooth="yes"/>
      <point x="50" y="16"/>
      <point x="54" y="19"/>
      <point x="56" y="22" type="curve" smooth="yes"/>
      <point x="127" y="144" type="line"/>
      <point x="127" y="-197" type="line"/>
      <point x="51" y="-197" type="line" smooth="yes"/>
      <point x="44" y="-197"/>
      <point x="39" y="-202"/>
      <point x="39" y="-209" type="curve" smooth="yes"/>
      <point x="39" y="-231" type="line" smooth="yes"/>
      <point x="39" y="-238"/>
      <point x="44" y="-243"/>
      <point x="51" y="-243" type="curve" smooth="yes"/>
      <point x="325" y="-243" type="line" smooth="yes"/>
      <point x="332" y="-243"/>
      <point x="336" y="-238"/>
      <point x="336" y="-231" type="curve" smooth="yes"/>
      <point x="336" y="-209" type="line" smooth="yes"/>
      <point x="336" y="-202"/>
      <point x="332" y="-197"/>
      <point x="325" y="-197" type="curve" smooth="yes"/>
    </contour>
  </outline>
</glyph>
<glyph name="timeSig3" format="2">
  <advance width="379"/>
  <unicode hex="E083"/>
  <outline>
    <contour>
      <point x="272" y="16" type="line"/>
      <point x="352" y="47"/>
      <point x="357" y="99"/>
      <point x="357" y="117" type="curve" smooth="yes"/>
      <point x="357" y="122" type="line" smooth="yes"/>
      <point x="357" y="131"/>
      <point x="354" y="244"/>
      <point x="182" y="244" type="curve" smooth="yes"/>
      <point x="10" y="244"/>
      <point x="15" y="122"/>
      <point x="15" y="122" type="curve"/>
      <point x="16" y="122" type="line"/>
      <point x="15" y="120" type="line"/>
      <point x="15" y="84"/>
      <point x="44" y="56"/>
      <point x="80" y="56" type="curve" smooth="yes"/>
      <point x="116" y="56"/>
      <point x="144" y="84"/>
      <point x="144" y="120" type="curve" smooth="yes"/>
      <point x="144" y="149"/>
      <point x="122" y="177"/>
      <point x="94" y="183" type="curve"/>
      <point x="97" y="186" type="line"/>
      <point x="111" y="196"/>
      <point x="130" y="201"/>
      <point x="149" y="201" type="curve" smooth="yes"/>
      <point x="191" y="201"/>
      <point x="236" y="176"/>
      <point x="236" y="122" type="curve" smooth="yes"/>
      <point x="236" y="59"/>
      <point x="189" y="50"/>
      <point x="177" y="48" type="curve" smooth="yes"/>
      <point x="165" y="46"/>
      <point x="109" y="42"/>
      <point x="97" y="42" type="curve" smooth="yes"/>
      <point x="85" y="42"/>
      <point x="84" y="28"/>
      <point x="84" y="28" type="curve"/>
      <point x="84" y="8" type="line"/>
      <point x="84" y="8"/>
      <point x="86" y="-3"/>
      <point x="97" y="-4" type="curve"/>
      <point x="114" y="-5"/>
      <point x="137" y="-5"/>
      <point x="169" y="-10" type="curve" smooth="yes"/>
      <point x="213" y="-16"/>
      <point x="236" y="-46"/>
      <point x="236" y="-116" type="curve" smooth="yes"/>
      <point x="236" y="-183"/>
      <point x="191" y="-201"/>
      <point x="149" y="-201" type="curve" smooth="yes"/>
      <point x="121" y="-201"/>
      <point x="95" y="-193"/>
      <point x="84" y="-185" type="curve"/>
      <point x="117" y="-183"/>
      <point x="144" y="-154"/>
      <point x="144" y="-121" type="curve" smooth="yes"/>
      <point x="144" y="-85"/>
      <point x="116" y="-56"/>
      <point x="80" y="-56" type="curve" smooth="yes"/>
      <point x="44" y="-56"/>
      <point x="15" y="-85"/>
      <point x="15" y="-121" type="curve" smooth="yes"/>
      <point x="15" y="-203"/>
      <point x="90" y="-244"/>
      <point x="164" y="-244" type="curve" smooth="yes"/>
      <point x="260" y="-244"/>
      <point x="364" y="-211"/>
      <point x="364" y="-102" type="curve" smooth="yes"/>
      <point x="364" y="-29"/>
      <point x="314" y="2"/>
      <point x="270" y="16" type="curve"/>
    </contour>
  </outline>
</glyph>
<glyph name="timeSig4" format="2">
  <advance width="457"/>
  <unicode hex="E084"/>
  <outline>
    <contour>
      <point x="208" y="-127" type="line"/>
      <point x="208" y="-201" type="line"/>
      <point x="125" y="-201" type="line" smooth="yes"/>
      <point x="118" y="-201"/>
      <point x="111" y="-207"/>
      <point x="111" y="-215" type="curve" smooth="yes"/>
      <point x="111" y="-234" type="line" smooth="yes"/>
      <point x="111" y="-242"/>
      <point x="118" y="-248"/>
      <point x="125" y="-248" type="curve" smooth="yes"/>
      <point x="428" y="-248" type="line" smooth="yes"/>
      <point x="436" y="-248"/>
      <point x="442" y="-242"/>
      <point x="442" y="-234" type="curve" smooth="yes"/>
      <point x="442" y="-215" type="line" smooth="yes"/>
      <point x="442" y="-207"/>
      <point x="436" y="-201"/>
      <point x="428" y="-201" type="curve" smooth="yes"/>
      <point x="338" y="-201" type="line"/>
      <point x="338" y="-127" type="line"/>
      <point x="428" y="-127" type="line" smooth="yes"/>
      <point x="436" y="-127"/>
      <point x="442" y="-120"/>
      <point x="442" y="-112" type="curve" smooth="yes"/>
      <point x="442" y="-93" type="line" smooth="yes"/>
      <point x="442" y="-86"/>
      <point x="436" y="-79"/>
      <point x="428" y="-79" type="curve" smooth="yes"/>
      <point x="338" y="-79" type="line"/>
      <point x="338" y="80" type="line" smooth="yes"/>
      <point x="338" y="86"/>
      <point x="335" y="91"/>
      <point x="331" y="93" type="curve" smooth="yes"/>
      <point x="319" y="99" type="line" smooth="yes"/>
      <point x="317" y="100"/>
      <point x="316" y="100"/>
      <point x="314" y="100" type="curve" smooth="yes"/>
      <point x="310" y="100"/>
      <point x="306" y="100"/>
      <point x="303" y="97" type="curve" smooth="yes"/>
      <point x="212" y="14" type="line" smooth="yes"/>
      <point x="209" y="11"/>
      <point x="208" y="7"/>
      <point x="208" y="3" type="curve" smooth="yes"/>
      <point x="208" y="-79" type="line"/>
      <point x="92" y="-79" type="line"/>
      <point x="92" y="-79"/>
      <point x="204" y="41"/>
      <point x="322" y="199" type="curve" smooth="yes"/>
      <point x="326" y="204"/>
      <point x="327" y="209"/>
      <point x="327" y="213" type="curve" smooth="yes"/>
      <point x="327" y="218"/>
      <point x="325" y="222"/>
      <point x="324" y="223" type="curve" smooth="yes"/>
      <point x="302" y="245" type="line" smooth="yes"/>
      <point x="299" y="247"/>
      <point x="296" y="249"/>
      <point x="292" y="249" type="curve" smooth="yes"/>
      <point x="286" y="249"/>
      <point x="151" y="249"/>
      <point x="143" y="249" type="curve" smooth="yes"/>
      <point x="136" y="249"/>
      <point x="131" y="243"/>
      <point x="130" y="237" type="curve"/>
      <point x="130" y="237"/>
      <point x="125" y="163"/>
      <point x="99" y="82" type="curve" smooth="yes"/>
      <point x="73" y="1"/>
      <point x="43" y="-49"/>
      <point x="17" y="-86" type="curve"/>
      <point x="17" y="-86"/>
      <point x="14" y="-91"/>
      <point x="14" y="-97" type="curve" smooth="yes"/>
      <point x="14" y="-99"/>
      <point x="14" y="-101"/>
      <point x="15" y="-103" type="curve" smooth="yes"/>
      <point x="18" y="-110"/>
      <point x="25" y="-121"/>
      <point x="25" y="-121" type="curve"/>
      <point x="25" y="-121"/>
      <point x="27" y="-127"/>
      <point x="36" y="-127" type="curve" smooth="yes"/>
    </contour>
  </outline>
</glyph>
<glyph name="timeSig5" format="2">
  <advance width="377"/>
  <unicode hex="E085"/>
  <outline>
    <contour>
      <point x="27" y="218" type="curve"/>
      <point x="27" y="218"/>
      <point x="32" y="170"/>
      <point x="32" y="118" type="curve" smooth="yes"/>
      <point x="32" y="105" type="line"/>
      <point x="31" y="49"/>
      <point x="27" y="-17"/>
      <point x="27" y="-17" type="curve"/>
      <point x="27" y="-22"/>
      <point x="27" y="-32"/>
      <point x="34" y="-33" type="curve" smooth="yes"/>
      <point x="43" y="-35"/>
      <point x="64" y="-40"/>
      <point x="69" y="-41" type="curve"/>
      <point x="71" y="-41"/>
      <point x="72" y="-41"/>
      <point x="74" y="-41" type="curve" smooth="yes"/>
      <point x="78" y="-41"/>
      <point x="82" y="-40"/>
      <point x="84" y="-34" type="curve" smooth="yes"/>
      <point x="89" y="-21"/>
      <point x="100" y="31"/>
      <point x="163" y="31" type="curve" smooth="yes"/>
      <point x="234" y="31"/>
      <point x="247" y="-30"/>
      <point x="247" y="-78" type="curve" smooth="yes"/>
      <point x="247" y="-128"/>
      <point x="231" y="-200"/>
      <point x="165" y="-203" type="curve"/>
      <point x="157" y="-203" type="line" smooth="yes"/>
      <point x="134" y="-203"/>
      <point x="121" y="-200"/>
      <point x="115" y="-196" type="curve" smooth="yes"/>
      <point x="112" y="-195"/>
      <point x="110" y="-192"/>
      <point x="110" y="-190" type="curve" smooth="yes"/>
      <point x="110" y="-187"/>
      <point x="111" y="-185"/>
      <point x="114" y="-183" type="curve" smooth="yes"/>
      <point x="123" y="-177" name=".hr01"/>
      <point x="154" y="-166"/>
      <point x="154" y="-117" type="curve" smooth="yes"/>
      <point x="154" y="-68"/>
      <point x="120" y="-49"/>
      <point x="81" y="-49" type="curve" smooth="yes"/>
      <point x="42" y="-49"/>
      <point x="15" y="-85"/>
      <point x="15" y="-119" type="curve" smooth="yes"/>
      <point x="15" y="-207"/>
      <point x="98" y="-244"/>
      <point x="175" y="-244" type="curve" smooth="yes"/>
      <point x="277" y="-244"/>
      <point x="362" y="-183"/>
      <point x="362" y="-76" type="curve" smooth="yes"/>
      <point x="362" y="30"/>
      <point x="288" y="86"/>
      <point x="188" y="86" type="curve" smooth="yes"/>
      <point x="155" y="86"/>
      <point x="120" y="78"/>
      <point x="91" y="58" type="curve" smooth="yes"/>
      <point x="90" y="57"/>
      <point x="88" y="57"/>
      <point x="87" y="57" type="curve"/>
      <point x="83" y="57" name=".hr02"/>
      <point x="80" y="60"/>
      <point x="80" y="64" type="curve" smooth="yes"/>
      <point x="80" y="127" type="line" smooth="yes"/>
      <point x="80" y="133"/>
      <point x="85" y="138"/>
      <point x="91" y="138" type="curve"/>
      <point x="92" y="138" type="line"/>
      <point x="107" y="137"/>
      <point x="140" y="133"/>
      <point x="175" y="133" type="curve" smooth="yes"/>
      <point x="247" y="133"/>
      <point x="301" y="148"/>
      <point x="329" y="222" type="curve" smooth="yes"/>
      <point x="330" y="225"/>
      <point x="331" y="229"/>
      <point x="331" y="232" type="curve" smooth="yes"/>
      <point x="331" y="240"/>
      <point x="326" y="246"/>
      <point x="313" y="246" type="curve" smooth="yes"/>
      <point x="309" y="246"/>
      <point x="305" y="245"/>
      <point x="299" y="244" type="curve" smooth="yes"/>
      <point x="250" y="232"/>
      <point x="212" y="228"/>
      <point x="175" y="228" type="curve" smooth="yes"/>
      <point x="139" y="228" name=".hr03"/>
      <point x="104" y="232"/>
      <point x="61" y="238" type="curve"/>
      <point x="61" y="238"/>
      <point x="56" y="239"/>
      <point x="49" y="239" type="curve" smooth="yes"/>
      <point x="34" y="239"/>
      <point x="27" y="234"/>
    </contour>
  </outline>
</glyph>
<glyph name="timeSig6" format="2">
  <advance width="402"/>
  <unicode hex="E086"/>
  <outline>
    <contour>
      <point x="210" y="-202" type="curve" smooth="yes"/>
      <point x="177" y="-202"/>
      <point x="150" y="-157"/>
      <point x="150" y="-101" type="curve" smooth="yes"/>
      <point x="150" y="-45"/>
      <point x="177" y="1"/>
      <point x="210" y="1" type="curve" smooth="yes"/>
      <point x="243" y="1"/>
      <point x="271" y="-45"/>
      <point x="271" y="-101" type="curve" smooth="yes"/>
      <point x="271" y="-157"/>
      <point x="243" y="-202"/>
    </contour>
    <contour>
      <point x="247" y="48" type="curve" smooth="yes"/>
      <point x="186" y="48"/>
      <point x="164" y="30"/>
      <point x="150" y="15" type="curve"/>
      <point x="147" y="36"/>
      <point x="145" y="52"/>
      <point x="145" y="68" type="curve" smooth="yes"/>
      <point x="145" y="125"/>
      <point x="165" y="199"/>
      <point x="235" y="199" type="curve" smooth="yes"/>
      <point x="260" y="199"/>
      <point x="275" y="191"/>
      <point x="285" y="180" type="curve"/>
      <point x="264" y="171"/>
      <point x="247" y="144"/>
      <point x="247" y="121" type="curve" smooth="yes"/>
      <point x="247" y="85"/>
      <point x="275" y="57"/>
      <point x="311" y="57" type="curve" smooth="yes"/>
      <point x="347" y="57"/>
      <point x="376" y="85"/>
      <point x="376" y="121" type="curve" smooth="yes"/>
      <point x="376" y="124" type="line" smooth="yes"/>
      <point x="376" y="133"/>
      <point x="374" y="148"/>
      <point x="370" y="156" type="curve"/>
      <point x="357" y="192"/>
      <point x="315" y="245"/>
      <point x="215" y="245" type="curve" smooth="yes"/>
      <point x="125" y="245"/>
      <point x="60" y="159"/>
      <point x="40" y="113" type="curve" smooth="yes"/>
      <point x="30" y="89"/>
      <point x="15" y="40"/>
      <point x="15" y="-16" type="curve" smooth="yes"/>
      <point x="15" y="-77"/>
      <point x="32" y="-146"/>
      <point x="91" y="-198" type="curve"/>
      <point x="149" y="-242"/>
      <point x="186" y="-244"/>
      <point x="221" y="-244" type="curve" smooth="yes"/>
      <point x="256" y="-244"/>
      <point x="387" y="-203"/>
      <point x="387" y="-87" type="curve" smooth="yes"/>
      <point x="387" y="11"/>
      <point x="310" y="48"/>
    </contour>
  </outline>
</glyph>
<glyph name="timeSig7" format="2">
  <advance width="381"/>
  <unicode hex="E087"/>
  <outline>
    <contour>
      <point x="162" y="-123" type="curve" smooth="yes"/>
      <point x="140" y="-156"/>
      <point x="111" y="-196"/>
      <point x="111" y="-233" type="curve" smooth="yes"/>
      <point x="111" y="-244"/>
      <point x="114" y="-250"/>
      <point x="125" y="-250" type="curve" smooth="yes"/>
      <point x="141" y="-250"/>
      <point x="151" y="-246"/>
      <point x="183" y="-244" type="curve"/>
      <point x="186" y="-244"/>
      <point x="190" y="-243"/>
      <point x="193" y="-243" type="curve" smooth="yes"/>
      <point x="222" y="-243"/>
      <point x="249" y="-250"/>
      <point x="256" y="-250" type="curve" smooth="yes"/>
      <point x="265" y="-250"/>
      <point x="282" y="-239"/>
      <point x="281" y="-230" type="curve"/>
      <point x="281" y="-229"/>
      <point x="281" y="-228"/>
      <point x="281" y="-227" type="curve"/>
      <point x="281" y="-225"/>
      <point x="275" y="-194"/>
      <point x="275" y="-157" type="curve" smooth="yes"/>
      <point x="275" y="-136"/>
      <point x="277" y="-112"/>
      <point x="283" y="-90" type="curve" smooth="yes"/>
      <point x="295" y="-43"/>
      <point x="327" y="42"/>
      <point x="349" y="105" type="curve" smooth="yes"/>
      <point x="360" y="136"/>
      <point x="366" y="191"/>
      <point x="366" y="214" type="curve" smooth="yes"/>
      <point x="366" y="223"/>
      <point x="366" y="227"/>
      <point x="365" y="237" type="curve" smooth="yes"/>
      <point x="364" y="247"/>
      <point x="360" y="251"/>
      <point x="354" y="251" type="curve" smooth="yes"/>
      <point x="336" y="251" type="line" smooth="yes"/>
      <point x="331" y="251"/>
      <point x="324" y="247"/>
      <point x="324" y="237" type="curve" smooth="yes"/>
      <point x="324" y="227"/>
      <point x="322" y="158"/>
      <point x="282" y="158" type="curve" smooth="yes"/>
      <point x="240" y="158"/>
      <point x="228" y="244"/>
      <point x="163" y="244" type="curve" smooth="yes"/>
      <point x="101" y="244"/>
      <point x="63" y="181"/>
      <point x="60" y="175" type="curve"/>
      <point x="60" y="223" type="line" smooth="yes"/>
      <point x="60" y="229"/>
      <point x="55" y="234"/>
      <point x="49" y="234" type="curve" smooth="yes"/>
      <point x="26" y="234" type="line" smooth="yes"/>
      <point x="20" y="234"/>
      <point x="15" y="229"/>
      <point x="15" y="223" type="curve" smooth="yes"/>
      <point x="15" y="38" type="line" smooth="yes"/>
      <point x="15" y="32"/>
      <point x="20" y="27"/>
      <point x="26" y="27" type="curve" smooth="yes"/>
      <point x="49" y="27" type="line" smooth="yes"/>
      <point x="55" y="27"/>
      <point x="60" y="32"/>
      <point x="60" y="38" type="curve" smooth="yes"/>
      <point x="60" y="70" type="line" smooth="yes"/>
      <point x="60" y="93"/>
      <point x="75" y="124"/>
      <point x="110" y="124" type="curve" smooth="yes"/>
      <point x="145" y="124"/>
      <point x="148" y="86"/>
      <point x="228" y="86" type="curve" smooth="yes"/>
      <point x="248" y="86"/>
      <point x="285" y="89"/>
      <point x="295" y="99" type="curve"/>
      <point x="287" y="83"/>
      <point x="185" y="-90"/>
    </contour>
  </outline>
</glyph>
<glyph name="timeSig8" format="2">
  <advance width="408"/>
  <unicode hex="E088"/>
  <outline>
    <contour>
      <point x="268" y="45" type="curve"/>
      <point x="200" y="67"/>
      <point x="125" y="100"/>
      <point x="125" y="145" type="curve" smooth="yes"/>
      <point x="125" y="184"/>
      <point x="161" y="200"/>
      <point x="204" y="200" type="curve" smooth="yes"/>
      <point x="266" y="200"/>
      <point x="308" y="171"/>
      <point x="308" y="125" type="curve" smooth="yes"/>
      <point x="308" y="77"/>
      <point x="286" y="54"/>
    </contour>
    <contour>
      <point x="204" y="-192" type="curve" smooth="yes"/>
      <point x="140" y="-192"/>
      <point x="85" y="-157" name=".hr01"/>
      <point x="85" y="-101" type="curve" smooth="yes"/>
      <point x="85" y="-34"/>
      <point x="137" y="-18"/>
      <point x="137" y="-18" type="curve"/>
      <point x="205" y="-41"/>
      <point x="302" y="-75"/>
      <point x="302" y="-130" type="curve" smooth="yes"/>
      <point x="302" y="-157"/>
      <point x="267" y="-192"/>
    </contour>
    <contour>
      <point x="324" y="18" type="curve"/>
      <point x="357" y="43"/>
      <point x="380" y="75"/>
      <point x="380" y="115" type="curve" smooth="yes" name=".hr02"/>
      <point x="380" y="187"/>
      <point x="301" y="246"/>
      <point x="204" y="246" type="curve" smooth="yes"/>
      <point x="107" y="246"/>
      <point x="28" y="187"/>
      <point x="28" y="115" type="curve" smooth="yes"/>
      <point x="28" y="75"/>
      <point x="38" y="39"/>
      <point x="85" y="9" type="curve" name=".hr03"/>
      <point x="40" y="-17"/>
      <point x="15" y="-54"/>
      <point x="15" y="-102" type="curve" smooth="yes"/>
      <point x="15" y="-183"/>
      <point x="100" y="-248"/>
      <point x="204" y="-248" type="curve" smooth="yes"/>
      <point x="308" y="-248"/>
      <point x="393" y="-183"/>
      <point x="393" y="-102" type="curve" smooth="yes"/>
      <point x="393" y="-54"/>
      <point x="376" y="-9"/>
    </contour>
  </outline>
</glyph>
<glyph name="timeSig9" format="2">
  <advance width="402"/>
  <unicode hex="E089"/>
  <outline>
    <contour>
      <point x="192" y="204" type="curve" smooth="yes"/>
      <point x="225" y="204"/>
      <point x="252" y="158"/>
      <point x="252" y="102" type="curve" smooth="yes"/>
      <point x="252" y="46"/>
      <point x="225" y="1"/>
      <point x="192" y="1" type="curve" smooth="yes"/>
      <point x="159" y="1"/>
      <point x="131" y="46"/>
      <point x="131" y="102" type="curve" smooth="yes"/>
      <point x="131" y="158"/>
      <point x="159" y="204"/>
    </contour>
    <contour>
      <point x="155" y="-47" type="curve" smooth="yes"/>
      <point x="216" y="-47"/>
      <point x="238" y="-29"/>
      <point x="252" y="-14" type="curve"/>
      <point x="255" y="-35"/>
      <point x="257" y="-51"/>
      <point x="257" y="-67" type="curve" smooth="yes"/>
      <point x="257" y="-124"/>
      <point x="237" y="-198"/>
      <point x="167" y="-198" type="curve" smooth="yes"/>
      <point x="142" y="-198"/>
      <point x="127" y="-190"/>
      <point x="117" y="-179" type="curve"/>
      <point x="138" y="-170"/>
      <point x="155" y="-143" name=".hr01"/>
      <point x="155" y="-120" type="curve" smooth="yes"/>
      <point x="155" y="-84"/>
      <point x="127" y="-56"/>
      <point x="91" y="-56" type="curve" smooth="yes"/>
      <point x="55" y="-56"/>
      <point x="26" y="-84"/>
      <point x="26" y="-120" type="curve" smooth="yes"/>
      <point x="26" y="-123" type="line" smooth="yes"/>
      <point x="26" y="-132"/>
      <point x="28" y="-147"/>
      <point x="32" y="-155" type="curve"/>
      <point x="45" y="-191"/>
      <point x="87" y="-244"/>
      <point x="187" y="-244" type="curve" smooth="yes"/>
      <point x="277" y="-244"/>
      <point x="342" y="-158"/>
      <point x="362" y="-112" type="curve" smooth="yes"/>
      <point x="372" y="-88"/>
      <point x="387" y="-39"/>
      <point x="387" y="17" type="curve" smooth="yes"/>
      <point x="387" y="78"/>
      <point x="370" y="147"/>
      <point x="311" y="199" type="curve"/>
      <point x="253" y="243"/>
      <point x="216" y="245"/>
      <point x="181" y="245" type="curve" smooth="yes"/>
      <point x="146" y="245"/>
      <point x="15" y="204" name=".hr02"/>
      <point x="15" y="88" type="curve" smooth="yes"/>
      <point x="15" y="-10"/>
      <point x="92" y="-47" name=".hr03"/>
    </contour>
  </outline>
</glyph>
<glyph name="timeSigCommon" format="2">
  <advance width="463"/>
  <unicode hex="E08A"/>
  <outline>
    <contour>
      <point x="325" y="179" type="curve" smooth="yes"/>
      <point x="300" y="163"/>
      <point x="282" y="134"/>
      <point x="282" y="102" type="curve" smooth="yes"/>
      <point x="282" y="98"/>
      <point x="282" y="94"/>
      <point x="283" y="90" type="curve" smooth="yes"/>
      <point x="288" y="49"/>
      <point x="321" y="17"/>
      <point x="362" y="12" type="curve"/>
      <point x="373" y="12" type="line" smooth="yes"/>
      <point x="423" y="12"/>
      <point x="463" y="52"/>
      <point x="463" y="102" type="curve" smooth="yes"/>
      <point x="463" y="108" type="line" smooth="yes"/>
      <point x="463" y="112"/>
      <point x="462" y="119"/>
      <point x="461" y="123" type="curve" smooth="yes"/>
      <point x="452" y="166"/>
      <point x="413" y="258"/>
      <point x="243" y="258" type="curve" smooth="yes"/>
      <point x="25" y="258"/>
      <point x="0" y="77"/>
      <point x="0" y="12" type="curve" smooth="yes"/>
      <point x="0" y="-107"/>
      <point x="15" y="-256"/>
      <point x="265" y="-256" type="curve" smooth="yes"/>
      <point x="364" y="-256" name=".hr01"/>
      <point x="441" y="-198"/>
      <point x="445" y="-91" type="curve"/>
      <point x="445" y="-86"/>
      <point x="442" y="-83"/>
      <point x="437" y="-83" type="curve" smooth="yes"/>
      <point x="424" y="-83" type="line" smooth="yes"/>
      <point x="420" y="-83"/>
      <point x="416" y="-87"/>
      <point x="416" y="-91" type="curve"/>
      <point x="412" y="-174"/>
      <point x="353" y="-224"/>
      <point x="265" y="-224" type="curve" smooth="yes"/>
      <point x="178" y="-224"/>
      <point x="136" y="-177"/>
      <point x="136" y="-89" type="curve" smooth="yes"/>
      <point x="136" y="102" type="line" smooth="yes"/>
      <point x="136" y="158"/>
      <point x="158" y="222"/>
      <point x="247" y="222" type="curve" smooth="yes"/>
      <point x="294" y="222"/>
      <point x="315" y="205"/>
      <point x="326" y="188" type="curve" smooth="yes"/>
      <point x="327" y="186"/>
      <point x="327" y="185"/>
      <point x="327" y="183" type="curve"/>
      <point x="327" y="182"/>
      <point x="327" y="180"/>
    </contour>
  </outline>
</glyph>
<glyph name="timeSigPlus" format="2">
  <advance width="408"/>
  <unicode hex="E08C"/>
  <outline>
    <contour>
      <point x="227" y="23" type="line"/>
      <point x="227" y="191" type="line" smooth="yes"/>
      <point x="227" y="198"/>
      <point x="221" y="204"/>
      <point x="214" y="204" type="curve" smooth="yes"/>
      <point x="194" y="204" type="line" smooth="yes"/>
      <point x="187" y="204"/>
      <point x="181" y="198"/>
      <point x="181" y="191" type="curve" smooth="yes"/>
      <point x="181" y="23" type="line"/>
      <point x="13" y="23" type="line" smooth="yes"/>
      <point x="6" y="23"/>
      <point x="0" y="17"/>
      <point x="0" y="10" type="curve" smooth="yes"/>
      <point x="0" y="-9" type="line" smooth="yes"/>
      <point x="0" y="-16"/>
      <point x="6" y="-23"/>
      <point x="13" y="-23" type="curve" smooth="yes"/>
      <point x="181" y="-23" type="line"/>
      <point x="181" y="-190" type="line" smooth="yes"/>
      <point x="181" y="-197"/>
      <point x="187" y="-204"/>
      <point x="194" y="-204" type="curve" smooth="yes"/>
      <point x="214" y="-204" type="line" smooth="yes"/>
      <point x="221" y="-204"/>
      <point x="227" y="-197"/>
      <point x="227" y="-190" type="curve" smooth="yes"/>
      <point x="227" y="-23" type="line"/>
      <point x="394" y="-23" type="line" smooth="yes"/>
      <point x="401" y="-23"/>
      <point x="408" y="-16"/>
      <point x="408" y="-9" type="curve" smooth="yes"/>
      <point x="408" y="10" type="line" smooth="yes"/>
      <point x="408" y="17"/>
      <point x="401" y="23"/>
      <point x="394" y="23" type="curve" smooth="yes"/>
    </contour>
  </outline>
</glyph>
<glyph name="noteheadDoubleWhole" format="2">
  <advance width="539"/>
  <unicode hex="E0A0"/>
  <outline>
    <contour>
      <point x="321" y="-97" type="curve"/>
      <point x="309" y="-100"/>
      <point x="293" y="-103"/>
      <point x="278" y="-103" type="curve" smooth="yes"/>
      <point x="250" y="-103"/>
      <point x="231" y="-94"/>
      <point x="218" y="-70" type="curve" smooth="yes"/>
      <point x="204" y="-43"/>
      <point x="186" y="22"/>
      <point x="186" y="53" type="curve" smooth="yes"/>
      <point x="186" y="76"/>
      <point x="196" y="90"/>
      <point x="218" y="98" type="curve"/>
      <point x="230" y="101"/>
      <point x="246" y="104"/>
      <point x="262" y="104" type="curve" smooth="yes"/>
      <point x="289" y="104"/>
      <point x="307" y="97"/>
      <point x="321" y="71" type="curve" smooth="yes"/>
      <point x="335" y="44"/>
      <point x="354" y="-20"/>
      <point x="354" y="-46" type="curve" smooth="yes"/>
      <point x="354" y="-72"/>
      <point x="345" y="-89"/>
    </contour>
    <contour>
      <point x="14" y="179" type="line" smooth="yes"/>
      <point x="6" y="179"/>
      <point x="0" y="173"/>
      <point x="0" y="165" type="curve" smooth="yes"/>
      <point x="0" y="-164" type="line" smooth="yes"/>
      <point x="0" y="-171"/>
      <point x="6" y="-178"/>
      <point x="14" y="-178" type="curve" smooth="yes"/>
      <point x="23" y="-178" type="line" smooth="yes"/>
      <point x="30" y="-178"/>
      <point x="37" y="-170"/>
      <point x="37" y="-164" type="curve" smooth="yes"/>
      <point x="37" y="165" type="line" smooth="yes"/>
      <point x="37" y="173"/>
      <point x="31" y="179"/>
      <point x="23" y="179" type="curve" smooth="yes"/>
    </contour>
    <contour>
      <point x="442" y="179" type="line" smooth="yes"/>
      <point x="434" y="179"/>
      <point x="428" y="173"/>
      <point x="428" y="165" type="curve" smooth="yes"/>
      <point x="428" y="87" type="line"/>
      <point x="398" y="116"/>
      <point x="347" y="136"/>
      <point x="270" y="136" type="curve" smooth="yes"/>
      <point x="192" y="136"/>
      <point x="141" y="116"/>
      <point x="111" y="87" type="curve"/>
      <point x="111" y="165" type="line" smooth="yes"/>
      <point x="111" y="173"/>
      <point x="105" y="179"/>
      <point x="97" y="179" type="curve" smooth="yes"/>
      <point x="88" y="179" type="line" smooth="yes"/>
      <point x="80" y="179"/>
      <point x="74" y="173"/>
      <point x="74" y="165" type="curve" smooth="yes"/>
      <point x="74" y="-164" type="line" smooth="yes"/>
      <point x="74" y="-171"/>
      <point x="80" y="-178"/>
      <point x="88" y="-178" type="curve" smooth="yes"/>
      <point x="97" y="-178" type="line" smooth="yes"/>
      <point x="104" y="-178"/>
      <point x="111" y="-170"/>
      <point x="111" y="-164" type="curve" smooth="yes"/>
      <point x="111" y="-85" type="line"/>
      <point x="141" y="-115"/>
      <point x="192" y="-135"/>
      <point x="270" y="-135" type="curve" smooth="yes"/>
      <point x="347" y="-135"/>
      <point x="398" y="-115"/>
      <point x="428" y="-85" type="curve"/>
      <point x="428" y="-164" type="line" smooth="yes"/>
      <point x="428" y="-171"/>
      <point x="434" y="-178"/>
      <point x="442" y="-178" type="curve" smooth="yes"/>
      <point x="451" y="-178" type="line" smooth="yes"/>
      <point x="458" y="-178"/>
      <point x="465" y="-170"/>
      <point x="465" y="-164" type="curve" smooth="yes"/>
      <point x="465" y="165" type="line" smooth="yes"/>
      <point x="465" y="173"/>
      <point x="459" y="179"/>
      <point x="451" y="179" type="curve" smooth="yes"/>
    </contour>
    <contour>
      <point x="515" y="179" type="line" smooth="yes"/>
      <point x="507" y="179"/>
      <point x="501" y="173"/>
      <point x="501" y="165" type="curve" smooth="yes"/>
      <point x="501" y="-164" type="line" smooth="yes"/>
      <point x="501" y="-171"/>
      <point x="507" y="-178"/>
      <point x="515" y="-178" type="curve" smooth="yes"/>
      <point x="524" y="-178" type="line" smooth="yes"/>
      <point x="531" y="-178"/>
      <point x="538" y="-170"/>
      <point x="538" y="-164" type="curve" smooth="yes"/>
      <point x="538" y="165" type="line" smooth="yes"/>
      <point x="538" y="173"/>
      <point x="532" y="179"/>
      <point x="524" y="179" type="curve" smooth="yes"/>
    </contour>
  </outline>
</glyph>
<glyph name="noteheadHalf" format="2">
  <advance width="325"/>
  <unicode hex="E0A3"/>
  <outline>
    <contour>
      <point x="75" y="-86" type="curve" smooth="yes"/>
      <point x="42" y="-86"/>
      <point x="35" y="-59"/>
      <point x="35" y="-50" type="curve" smooth="yes"/>
      <point x="35" y="-1"/>
      <point x="203" y="85"/>
      <point x="250" y="85" type="curve" smooth="yes"/>
      <point x="274" y="85"/>
      <point x="290" y="71"/>
      <point x="290" y="49" type="curve" smooth="yes"/>
      <point x="290" y="-1"/>
      <point x="121" y="-86"/>
    </contour>
    <contour>
      <point x="213" y="132" type="curve" smooth="yes"/>
      <point x="116" y="132"/>
      <point x="0" y="51"/>
      <point x="0" y="-42" type="curve" smooth="yes"/>
      <point x="0" y="-85"/>
      <point x="31" y="-133"/>
      <point x="112" y="-133" type="curve" smooth="yes"/>
      <point x="216" y="-133"/>
      <point x="325" y="-48"/>
      <point x="325" y="40" type="curve" smooth="yes"/>
      <point x="325" y="99"/>
      <point x="275" y="132"/>
    </contour>
  </outline>
</glyph>
<glyph name="noteheadXBlack" format="2">
  <advance width="325"/>
  <unicode hex="E0A9"/>
  <outline>
    <contour>
      <point x="320" y="96" type="line"/>
      <point x="323" y="98"/>
      <point x="325" y="102"/>
      <point x="325" y="106" type="curve"/>
      <point x="325" y="107" type="line"/>
      <point x="325" y="111"/>
      <point x="323" y="114"/>
      <point x="321" y="116" type="curve" smooth="yes"/>
      <point x="309" y="128" type="line"/>
      <point x="306" y="130"/>
      <point x="303" y="132"/>
      <point x="299" y="132" type="curve" smooth="yes"/>
      <point x="296" y="132"/>
      <point x="292" y="131"/>
      <point x="290" y="129" type="curve"/>
      <point x="163" y="28" type="line"/>
      <point x="35" y="129" type="line"/>
      <point x="33" y="131"/>
      <point x="29" y="132"/>
      <point x="26" y="132" type="curve" smooth="yes"/>
      <point x="22" y="132"/>
      <point x="20" y="130"/>
      <point x="17" y="128" type="curve"/>
      <point x="4" y="116" type="line"/>
      <point x="2" y="114"/>
      <point x="0" y="110"/>
      <point x="0" y="106" type="curve" smooth="yes"/>
      <point x="0" y="102"/>
      <point x="2" y="98"/>
      <point x="5" y="96" type="curve"/>
      <point x="127" y="0" type="line"/>
      <point x="5" y="-96" type="line"/>
      <point x="2" y="-98"/>
      <point x="0" y="-102"/>
      <point x="0" y="-106" type="curve" smooth="yes"/>
      <point x="0" y="-109"/>
      <point x="2" y="-113"/>
      <point x="4" y="-115" type="curve"/>
      <point x="16" y="-128" type="line"/>
      <point x="18" y="-131"/>
      <point x="22" y="-132"/>
      <point x="26" y="-132" type="curve" smooth="yes"/>
      <point x="29" y="-132"/>
      <point x="33" y="-131"/>
      <point x="35" y="-129" type="curve"/>
      <point x="163" y="-28" type="line"/>
      <point x="290" y="-129" type="line"/>
      <point x="292" y="-131"/>
      <point x="296" y="-132"/>
      <point x="299" y="-132" type="curve" smooth="yes"/>
      <point x="303" y="-132"/>
      <point x="307" y="-131"/>
      <point x="309" y="-128" type="curve"/>
      <point x="321" y="-115" type="line"/>
      <point x="323" y="-113"/>
      <point x="325" y="-109"/>
      <point x="325" y="-106" type="curve" smooth="yes"/>
      <point x="325" y="-102"/>
      <point x="323" y="-98"/>
      <point x="320" y="-96" type="curve"/>
      <point x="198" y="0" type="line"/>
    </contour>
  </outline>
</glyph>
<glyph name="noteheadPlusBlack" format="2">
  <advance width="325"/>
  <unicode hex="E0AF"/>
  <outline>
    <contour>
      <point x="186" y="23" type="line"/>
      <point x="186" y="123" type="line" smooth="yes"/>
      <point x="186" y="128"/>
      <point x="180" y="132"/>
      <point x="172" y="132" type="curve" smooth="yes"/>
      <point x="153" y="132" type="line" smooth="yes"/>
      <point x="145" y="132"/>
      <point x="139" y="128"/>
      <point x="139" y="123" type="curve" smooth="yes"/>
      <point x="139" y="23" type="line"/>
      <point x="11" y="23" type="line" smooth="yes"/>
      <point x="5" y="23"/>
      <point x="0" y="17"/>
      <point x="0" y="9" type="curve" smooth="yes"/>
      <point x="0" y="-10" type="line" smooth="yes"/>
      <point x="0" y="-17"/>
      <point x="5" y="-23"/>
      <point x="11" y="-23" type="curve" smooth="yes"/>
      <point x="140" y="-23" type="line"/>
      <point x="140" y="-124" type="line" smooth="yes"/>
      <point x="140" y="-128"/>
      <point x="146" y="-132"/>
      <point x="153" y="-132" type="curve" smooth="yes"/>
      <point x="172" y="-132" type="line" smooth="yes"/>
      <point x="180" y="-132"/>
      <point x="186" y="-128"/>
      <point x="186" y="-124" type="curve" smooth="yes"/>
      <point x="186" y="-23" type="line"/>
      <point x="314" y="-23" type="line" smooth="yes"/>
      <point x="320" y="-23"/>
      <point x="325" y="-17"/>
      <point x="325" y="-10" type="curve" smooth="yes"/>
      <point x="325" y="9" type="line" smooth="yes"/>
      <point x="325" y="17"/>
      <point x="320" y="23"/>
      <point x="314" y="23" type="curve" smooth="yes"/>
    </contour>
  </outline>
</glyph>
<glyph name="noteheadSquareBlack" format="2">
  <advance width="310"/>
  <unicode hex="E0B9"/>
  <outline>
    <contour>
      <point x="310" y="125" type="line"/>
      <point x="0" y="125" type="line"/>
      <point x="0" y="-125" type="line"/>
      <point x="310" y="-125" type="line"/>
    </contour>
  </outline>
</glyph>
<glyph name="noteheadTriangleUpWhite" format="2">
  <advance width="310"/>
  <unicode hex="E0BD"/>
  <outline>
    <contour>
      <point x="155" y="122" type="line"/>
      <point x="0" y="-136" type="line"/>
      <point x="310" y="-136" type="line"/>
    </contour>
    <contour>
      <point x="233" y="-77" type="curve" smooth="yes"/>
      <point x="77" y="-77" type="line" smooth="yes"/>
      <point x="72" y="-77"/>
      <point x="69" y="-73"/>
      <point x="69" y="-69" type="curve"/>
      <point x="69" y="-68"/>
      <point x="70" y="-66"/>
      <point x="70" y="-65" type="curve"/>
      <point x="149" y="65" type="line" smooth="yes"/>
      <point x="150" y="67"/>
      <point x="153" y="69"/>
      <point x="155" y="69" type="curve" smooth="yes"/>
      <point x="157" y="69"/>
      <point x="160" y="67"/>
      <point x="161" y="65" type="curve" smooth="yes"/>
      <point x="240" y="-65" type="line"/>
      <point x="240" y="-66"/>
      <point x="241" y="-68"/>
      <point x="241" y="-69" type="curve"/>
      <point x="241" y="-73"/>
      <point x="238" y="-77"/>
    </contour>
  </outline>
</glyph>
<glyph name="noteheadTriangleUpBlack" format="2">
  <advance width="310"/>
  <unicode hex="E0BE"/>
  <outline>
    <contour>
      <point x="155" y="122" type="line"/>
      <point x="0" y="-136" type="line"/>
      <point x="310" y="-136" type="line"/>
    </contour>
  </outline>
</glyph>
<glyph name="noteheadTriangleLeftWhite" format="2">
  <advance width="339"/>
  <unicode hex="E0BF"/>
  <outline>
    <contour>
      <point x="0" y="122" type="line"/>
      <point x="0" y="-136" type="line"/>
      <point x="339" y="-136" type="line"/>
    </contour>
    <contour>
      <point x="204" y="-65" type="line" smooth="yes"/>
      <point x="206" y="-66"/>
      <point x="207" y="-68"/>
      <point x="207" y="-70" type="curve" smooth="yes"/>
      <point x="207" y="-74"/>
      <point x="204" y="-78"/>
      <point x="200" y="-78" type="curve" smooth="yes"/>
      <point x="32" y="-78" type="line" smooth="yes"/>
      <point x="28" y="-78"/>
      <point x="25" y="-74"/>
      <point x="25" y="-71" type="curve" smooth="yes"/>
      <point x="25" y="57" type="line" smooth="yes"/>
      <point x="25" y="61"/>
      <point x="29" y="64"/>
      <point x="32" y="64" type="curve" smooth="yes"/>
      <point x="34" y="64"/>
      <point x="35" y="64"/>
      <point x="36" y="63" type="curve" smooth="yes"/>
    </contour>
  </outline>
</glyph>
<glyph name="noteheadTriangleRightWhite" format="2">
  <advance width="339"/>
  <unicode hex="E0C1"/>
  <outline>
    <contour>
      <point x="339" y="122" type="line"/>
      <point x="0" y="-136" type="line"/>
      <point x="339" y="-136" type="line"/>
    </contour>
    <contour>
      <point x="303" y="63" type="line"/>
      <point x="304" y="64"/>
      <point x="305" y="64"/>
      <point x="307" y="64" type="curve" smooth="yes"/>
      <point x="310" y="64"/>
      <point x="314" y="61"/>
      <point x="314" y="57" type="curve" smooth="yes"/>
      <point x="314" y="-71" type="line" smooth="yes"/>
      <point x="314" y="-74"/>
      <point x="311" y="-78"/>
      <point x="307" y="-78" type="curve" smooth="yes"/>
      <point x="139" y="-78" type="line" smooth="yes"/>
      <point x="135" y="-78"/>
      <point x="132" y="-74"/>
      <point x="132" y="-70" type="curve" smooth="yes"/>
      <point x="132" y="-68"/>
      <point x="133" y="-66"/>
      <point x="135" y="-65" type="curve"/>
    </contour>
  </outline>
</glyph>
<glyph name="noteheadTriangleRightBlack" format="2">
  <advance width="339"/>
  <unicode hex="E0C2"/>
  <outline>
    <contour>
      <point x="339" y="122" type="line"/>
      <point x="0" y="-136" type="line"/>
      <point x="339" y="-136" type="line"/>
    </contour>
  </outline>
</glyph>
<glyph name="noteheadMoonWhite" format="2">
  <advance width="310"/>
  <unicode hex="E0CA"/>
  <outline>
    <contour>
      <point x="0" y="125" type="line"/>
      <point x="0" y="0" type="line" smooth="yes"/>
      <point x="0" y="-69"/>
      <point x="69" y="-125"/>
      <point x="155" y="-125" type="curve" smooth="yes"/>
      <point x="241" y="-125"/>
      <point x="310" y="-69"/>
      <point x="310" y="0" type="curve" smooth="yes"/>
      <point x="310" y="125" type="line"/>
    </contour>
    <contour>
      <point x="155" y="-89" type="curve" smooth="yes"/>
      <point x="105" y="-89"/>
      <point x="36" y="-58"/>
      <point x="36" y="0" type="curve" smooth="yes"/>
      <point x="36" y="89" type="line"/>
      <point x="274" y="89" type="line"/>
      <point x="274" y="0" type="line" smooth="yes"/>
      <point x="274" y="-58"/>
      <point x="206" y="-89"/>
    </contour>
  </outline>
</glyph>
<glyph name="noteheadMoonBlack" format="2">
  <advance width="310"/>
  <unicode hex="E0CB"/>
  <outline>
    <contour>
      <point x="0" y="125" type="line"/>
      <point x="0" y="0" type="line" smooth="yes"/>
      <point x="0" y="-69"/>
      <point x="69" y="-125"/>
      <point x="155" y="-125" type="curve" smooth="yes"/>
      <point x="241" y="-125"/>
      <point x="310" y="-69"/>
      <point x="310" y="0" type="curve" smooth="yes"/>
      <point x="310" y="125" type="line"/>
    </contour>
  </outline>
</glyph>
<glyph name="noteheadTriangleRoundDownWhite" format="2">
  <advance width="310"/>
  <unicode hex="E0CC"/>
  <outline>
    <contour>
      <point x="157" y="-136" type="line"/>
      <point x="310" y="44" type="line"/>
      <point x="310" y="44"/>
      <point x="267" y="122"/>
      <point x="157" y="122" type="curve" smooth="yes"/>
      <point x="47" y="122"/>
      <point x="0" y="44"/>
      <point x="0" y="44" type="curve"/>
    </contour>
    <contour>
      <point x="157" y="74" type="curve" smooth="yes"/>
      <point x="197" y="74"/>
      <point x="238" y="59"/>
      <point x="264" y="27" type="curve"/>
      <point x="157" y="-99" type="line"/>
      <point x="47" y="27" type="line"/>
      <point x="60" y="42"/>
      <point x="95" y="74"/>
    </contour>
  </outline>
</glyph>
<glyph name="noteheadTriangleRoundDownBlack" format="2">
  <advance width="310"/>
  <unicode hex="E0CD"/>
  <outline>
    <contour>
      <point x="157" y="-136" type="line"/>
      <point x="310" y="44" type="line"/>
      <point x="310" y="44"/>
      <point x="267" y="122"/>
      <point x="157" y="122" type="curve" smooth="yes"/>
      <point x="47" y="122"/>
      <point x="0" y="44"/>
      <point x="0" y="44" type="curve"/>
    </contour>
  </outline>
</glyph>
<glyph name="noteheadSlashedBlack1" format="2">
  <advance width="325"/>
  <unicode hex="E0CF"/>
  <outline>
    <contour>
      <point x="421" y="207" type="curve"/>
      <point x="418" y="210"/>
      <point x="415" y="212"/>
      <point x="411" y="212" type="curve" smooth="yes"/>
      <point x="408" y="212"/>
      <point x="405" y="211"/>
      <point x="403" y="209" type="curve"/>
      <point x="286" y="112" type="line"/>
      <point x="266" y="125"/>
      <point x="241" y="132"/>
      <point x="213" y="132" type="curve" smooth="yes"/>
      <point x="116" y="132"/>
      <point x="0" y="50"/>
      <point x="0" y="-42" type="curve" smooth="yes"/>
      <point x="0" y="-62"/>
      <point x="7" y="-83"/>
      <point x="22" y="-100" type="curve"/>
      <point x="-93" y="-190" type="line"/>
      <point x="-96" y="-193"/>
      <point x="-98" y="-197"/>
      <point x="-98" y="-200" type="curve" smooth="yes"/>
      <point x="-98" y="-208"/>
      <point x="-93" y="-213"/>
      <point x="-85" y="-213" type="curve" smooth="yes"/>
      <point x="-82" y="-213"/>
      <point x="-79" y="-213"/>
      <point x="-77" y="-211" type="curve"/>
      <point x="39" y="-114" type="line"/>
      <point x="57" y="-126"/>
      <point x="81" y="-133"/>
      <point x="112" y="-133" type="curve" smooth="yes"/>
      <point x="216" y="-133"/>
      <point x="325" y="-49"/>
      <point x="325" y="40" type="curve" smooth="yes"/>
      <point x="325" y="63"/>
      <point x="317" y="83"/>
      <point x="303" y="98" type="curve"/>
      <point x="419" y="188" type="line"/>
      <point x="422" y="191"/>
      <point x="424" y="195"/>
      <point x="424" y="198" type="curve" smooth="yes"/>
      <point x="424" y="201"/>
      <point x="423" y="204"/>
    </contour>
  </outline>
</glyph>
<glyph name="noteheadSlashedBlack2" format="2">
  <advance width="325"/>
  <unicode hex="E0D0"/>
  <outline>
    <contour>
      <point x="267" y="-71" type="line"/>
      <point x="302" y="-40"/>
      <point x="325" y="0"/>
      <point x="325" y="40" type="curve" smooth="yes"/>
      <point x="325" y="99"/>
      <point x="275" y="132"/>
      <point x="213" y="132" type="curve" smooth="yes"/>
      <point x="166" y="132"/>
      <point x="116" y="113"/>
      <point x="75" y="84" type="curve"/>
      <point x="-77" y="209" type="line"/>
      <point x="-80" y="211"/>
      <point x="-83" y="212"/>
      <point x="-86" y="212" type="curve" smooth="yes"/>
      <point x="-89" y="212"/>
      <point x="-93" y="210"/>
      <point x="-96" y="207" type="curve"/>
      <point x="-97" y="205"/>
      <point x="-98" y="203"/>
      <point x="-98" y="201" type="curve"/>
      <point x="-98" y="200"/>
      <point x="-99" y="200"/>
      <point x="-98" y="199" type="curve"/>
      <point x="-98" y="195"/>
      <point x="-97" y="191"/>
      <point x="-94" y="189" type="curve"/>
      <point x="58" y="70" type="line"/>
      <point x="24" y="39"/>
      <point x="0" y="0"/>
      <point x="0" y="-42" type="curve" smooth="yes"/>
      <point x="0" y="-85"/>
      <point x="31" y="-133"/>
      <point x="112" y="-133" type="curve" smooth="yes"/>
      <point x="161" y="-133"/>
      <point x="211" y="-114"/>
      <point x="251" y="-85" type="curve"/>
      <point x="402" y="-210" type="line"/>
      <point x="405" y="-212"/>
      <point x="408" y="-213"/>
      <point x="410" y="-213" type="curve" smooth="yes"/>
      <point x="417" y="-213"/>
      <point x="424" y="-207"/>
      <point x="424" y="-200" type="curve"/>
      <point x="423" y="-196"/>
      <point x="422" y="-192"/>
      <point x="419" y="-190" type="curve"/>
    </contour>
  </outline>
</glyph>
<glyph name="noteheadSlashedHalf1" format="2">
  <advance width="325"/>
  <unicode hex="E0D1"/>
  <outline>
    <contour>
      <point x="39" y="-68" type="curve" smooth="yes"/>
      <point x="36" y="-63"/>
      <point x="34" y="-57"/>
      <point x="34" y="-51" type="curve" smooth="yes"/>
      <point x="34" y="-40"/>
      <point x="41" y="-27"/>
      <point x="52" y="-16" type="curve" smooth="yes"/>
      <point x="86" y="18"/>
      <point x="203" y="84"/>
      <point x="251" y="84" type="curve"/>
      <point x="156" y="6" type="line"/>
      <point x="48" y="-79" type="line"/>
      <point x="45" y="-76"/>
      <point x="42" y="-72"/>
    </contour>
    <contour>
      <point x="285" y="65" type="curve" smooth="yes"/>
      <point x="288" y="60"/>
      <point x="289" y="54"/>
      <point x="289" y="48" type="curve" smooth="yes"/>
      <point x="289" y="37"/>
      <point x="283" y="25"/>
      <point x="272" y="13" type="curve" smooth="yes"/>
      <point x="241" y="-18"/>
      <point x="119" y="-87"/>
      <point x="74" y="-87" type="curve"/>
      <point x="74" y="-87"/>
      <point x="73" y="-87"/>
      <point x="72" y="-87" type="curve"/>
      <point x="170" y="-6" type="line"/>
      <point x="275" y="77" type="line"/>
      <point x="279" y="74"/>
      <point x="283" y="70"/>
    </contour>
    <contour>
      <point x="411" y="212" type="curve" smooth="yes"/>
      <point x="408" y="212"/>
      <point x="405" y="211"/>
      <point x="403" y="209" type="curve" smooth="yes"/>
      <point x="286" y="113" type="line"/>
      <point x="266" y="125"/>
      <point x="241" y="132"/>
      <point x="213" y="132" type="curve" smooth="yes"/>
      <point x="123" y="132"/>
      <point x="0" y="55"/>
      <point x="0" y="-42" type="curve" smooth="yes"/>
      <point x="0" y="-56"/>
      <point x="3" y="-70"/>
      <point x="10" y="-83" type="curve" smooth="yes"/>
      <point x="14" y="-89"/>
      <point x="18" y="-94"/>
      <point x="22" y="-99" type="curve"/>
      <point x="-93" y="-190" type="line" smooth="yes"/>
      <point x="-96" y="-192"/>
      <point x="-98" y="-196"/>
      <point x="-98" y="-200" type="curve" smooth="yes"/>
      <point x="-98" y="-203"/>
      <point x="-97" y="-206"/>
      <point x="-95" y="-208" type="curve" smooth="yes"/>
      <point x="-93" y="-211"/>
      <point x="-89" y="-213"/>
      <point x="-85" y="-213" type="curve" smooth="yes"/>
      <point x="-82" y="-213"/>
      <point x="-79" y="-212"/>
      <point x="-77" y="-210" type="curve" smooth="yes"/>
      <point x="39" y="-114" type="line"/>
      <point x="59" y="-126"/>
      <point x="84" y="-133"/>
      <point x="112" y="-133" type="curve" smooth="yes"/>
      <point x="203" y="-133"/>
      <point x="325" y="-59"/>
      <point x="325" y="40" type="curve" smooth="yes"/>
      <point x="325" y="60"/>
      <point x="318" y="83"/>
      <point x="303" y="98" type="curve"/>
      <point x="419" y="189" type="line" smooth="yes"/>
      <point x="422" y="191"/>
      <point x="424" y="195"/>
      <point x="424" y="199" type="curve" smooth="yes"/>
      <point x="424" y="206"/>
      <point x="418" y="212"/>
    </contour>
  </outline>
</glyph>
<glyph name="noteheadSlashedHalf2" format="2">
  <advance width="325"/>
  <unicode hex="E0D2"/>
  <outline>
    <contour>
      <point x="185" y="-45" type="curve"/>
      <point x="160" y="-59"/>
      <point x="103" y="-87"/>
      <point x="74" y="-87" type="curve" smooth="yes"/>
      <point x="53" y="-87"/>
      <point x="34" y="-73"/>
      <point x="34" y="-51" type="curve" smooth="yes"/>
      <point x="34" y="-40"/>
      <point x="41" y="-27"/>
      <point x="52" y="-16" type="curve" smooth="yes"/>
      <point x="65" y="-3"/>
      <point x="87" y="12"/>
      <point x="113" y="27" type="curve"/>
      <point x="156" y="-6" type="line"/>
      <point x="196" y="-39" type="line"/>
      <point x="192" y="-41"/>
      <point x="189" y="-43"/>
    </contour>
    <contour>
      <point x="138" y="42" type="curve"/>
      <point x="163" y="56"/>
      <point x="220" y="84"/>
      <point x="249" y="84" type="curve" smooth="yes"/>
      <point x="271" y="84"/>
      <point x="289" y="71"/>
      <point x="289" y="48" type="curve" smooth="yes"/>
      <point x="289" y="37"/>
      <point x="283" y="25"/>
      <point x="272" y="13" type="curve" smooth="yes"/>
      <point x="260" y="0"/>
      <point x="238" y="-14"/>
      <point x="214" y="-29" type="curve"/>
      <point x="170" y="5" type="line"/>
      <point x="131" y="38" type="line"/>
      <point x="133" y="39"/>
      <point x="136" y="40"/>
    </contour>
    <contour>
      <point x="268" y="-71" type="line"/>
      <point x="304" y="-38"/>
      <point x="325" y="3"/>
      <point x="325" y="40" type="curve" smooth="yes"/>
      <point x="325" y="102"/>
      <point x="270" y="132"/>
      <point x="213" y="132" type="curve" smooth="yes"/>
      <point x="162" y="132"/>
      <point x="116" y="112"/>
      <point x="75" y="83" type="curve"/>
      <point x="-77" y="209" type="line"/>
      <point x="-79" y="211"/>
      <point x="-82" y="212"/>
      <point x="-85" y="212" type="curve" smooth="yes"/>
      <point x="-89" y="212"/>
      <point x="-93" y="210"/>
      <point x="-95" y="207" type="curve"/>
      <point x="-97" y="205"/>
      <point x="-98" y="202"/>
      <point x="-98" y="199" type="curve" smooth="yes"/>
      <point x="-98" y="195"/>
      <point x="-96" y="191"/>
      <point x="-93" y="189" type="curve"/>
      <point x="59" y="70" type="line"/>
      <point x="22" y="37"/>
      <point x="0" y="-5"/>
      <point x="0" y="-42" type="curve" smooth="yes"/>
      <point x="0" y="-104"/>
      <point x="55" y="-133"/>
      <point x="112" y="-133" type="curve" smooth="yes"/>
      <point x="163" y="-133"/>
      <point x="210" y="-114"/>
      <point x="251" y="-85" type="curve"/>
      <point x="403" y="-210" type="line"/>
      <point x="405" y="-212"/>
      <point x="408" y="-213"/>
      <point x="411" y="-213" type="curve" smooth="yes"/>
      <point x="418" y="-213"/>
      <point x="424" y="-207"/>
      <point x="424" y="-200" type="curve" smooth="yes"/>
      <point x="424" y="-196"/>
      <point x="422" y="-192"/>
      <point x="419" y="-190" type="curve"/>
    </contour>
  </outline>
</glyph>
<glyph name="noteheadSlashedWhole1" format="2">
  <advance width="373"/>
  <unicode hex="E0D3"/>
  <outline>
    <contour>
      <point x="103" y="47" type="curve"/>
      <point x="103" y="97"/>
      <point x="136" y="104"/>
      <point x="178" y="104" type="curve" smooth="yes"/>
      <point x="206" y="104"/>
      <point x="224" y="98"/>
      <point x="238" y="71" type="curve" smooth="yes"/>
      <point x="240" y="68"/>
      <point x="242" y="64"/>
      <point x="243" y="60" type="curve"/>
      <point x="123" y="-38" type="line"/>
      <point x="113" y="-8"/>
      <point x="104" y="29"/>
    </contour>
    <contour>
      <point x="270" y="-45" type="curve" smooth="yes"/>
      <point x="270" y="-94"/>
      <point x="236" y="-102"/>
      <point x="195" y="-102" type="curve" smooth="yes"/>
      <point x="167" y="-102"/>
      <point x="148" y="-94"/>
      <point x="135" y="-69" type="curve" smooth="yes"/>
      <point x="133" y="-66"/>
      <point x="132" y="-62"/>
      <point x="130" y="-57" type="curve"/>
      <point x="194" y="-4" type="line"/>
      <point x="251" y="40" type="line"/>
      <point x="261" y="11"/>
      <point x="270" y="-27"/>
    </contour>
    <contour>
      <point x="445" y="209" type="curve" smooth="yes"/>
      <point x="442" y="212"/>
      <point x="438" y="214"/>
      <point x="434" y="214" type="curve"/>
      <point x="431" y="213"/>
      <point x="429" y="213"/>
      <point x="426" y="211" type="curve" smooth="yes"/>
      <point x="305" y="111" type="line"/>
      <point x="277" y="126"/>
      <point x="238" y="136"/>
      <point x="187" y="136" type="curve" smooth="yes"/>
      <point x="49" y="136"/>
      <point x="0" y="66"/>
      <point x="0" y="1" type="curve" smooth="yes"/>
      <point x="0" y="-34"/>
      <point x="14" y="-70"/>
      <point x="48" y="-96" type="curve"/>
      <point x="-70" y="-188" type="line" smooth="yes"/>
      <point x="-73" y="-191"/>
      <point x="-75" y="-195"/>
      <point x="-75" y="-199" type="curve"/>
      <point x="-74" y="-202"/>
      <point x="-74" y="-204"/>
      <point x="-72" y="-207" type="curve" smooth="yes"/>
      <point x="-69" y="-210"/>
      <point x="-65" y="-211"/>
      <point x="-61" y="-211" type="curve" smooth="yes"/>
      <point x="-59" y="-211"/>
      <point x="-56" y="-211"/>
      <point x="-53" y="-209" type="curve" smooth="yes"/>
      <point x="68" y="-109" type="line"/>
      <point x="96" y="-124"/>
      <point x="135" y="-134"/>
      <point x="187" y="-134" type="curve" smooth="yes"/>
      <point x="325" y="-134"/>
      <point x="373" y="-64"/>
      <point x="373" y="1" type="curve" smooth="yes"/>
      <point x="373" y="36"/>
      <point x="359" y="72"/>
      <point x="325" y="98" type="curve"/>
      <point x="443" y="190" type="line" smooth="yes"/>
      <point x="446" y="193"/>
      <point x="448" y="197"/>
      <point x="448" y="201" type="curve"/>
      <point x="447" y="203"/>
      <point x="447" y="206"/>
    </contour>
  </outline>
</glyph>
